<?xml version="1.0" encoding="utf-8"?>
<!-- Generator: Adobe Illustrator 23.0.6, SVG Export Plug-In . SVG Version: 6.00 Build 0)  -->
<svg version="1.1" id="Capa_1" xmlns="http://www.w3.org/2000/svg" xmlns:xlink="http://www.w3.org/1999/xlink" x="0px" y="0px"
	 viewBox="0 0 91 91" style="enable-background:new 0 0 91 91;" xml:space="preserve">
<style type="text/css">
	.st0{fill:#FFC400;}
	.st1{fill:#4352FF;}
</style>
<g id="Grupo_751" transform="translate(-1770.118 -307.55)">
	<path class="st0" d="M1817.1,349.7l2,2c0.7,0.7,0.7,1.7,0,2.4l-2,2c-0.7,0.7-1.7,0.7-2.4,0l-2-2c-0.7-0.7-0.7-1.7,0-2.4l2-2
		C1815.4,349.1,1816.4,349.1,1817.1,349.7z"/>
	<path class="st1" d="M1819.7,351l-2-2c-0.3-0.3-0.5-0.4-0.9-0.6c0-0.1,0.1-0.2,0.1-0.3v-7.1c0-0.5-0.4-1-1-1c-0.5,0-1,0.4-1,1v7.1
		c0,0.1,0,0.2,0.1,0.3c-0.4,0.1-0.7,0.3-1,0.6l-2,2c-1,1-1,2.7,0,3.8l2,2c0.5,0.5,1.2,0.8,1.9,0.8c0.7,0,1.4-0.3,1.9-0.8l2-2
		c0.5-0.5,0.8-1.2,0.8-1.9C1820.5,352.2,1820.3,351.5,1819.7,351z M1818.3,353.4l-2,2c-0.3,0.3-0.7,0.3-1,0l-2-2
		c-0.3-0.3-0.3-0.7,0-1l2-2c0.1-0.1,0.3-0.2,0.5-0.2c0.2,0,0.4,0.1,0.5,0.2l2,2c0.1,0.1,0.2,0.3,0.2,0.5
		C1818.5,353.1,1818.5,353.2,1818.3,353.4z"/>
	<path class="st1" d="M1841.4,333.2c-0.2-0.2-0.5-0.3-0.8-0.2c-3.5,0.7-5.3-0.4-9.3-2.9c-1.2-0.7-2.5-1.5-4.2-2.5
		c-1.5-0.9-2.7-1.6-3.7-2.1c-3.4-2-3.9-2.3-7.5-2.3c0,0,0,0,0,0c0,0,0,0,0,0c-0.5,0-1,0.4-1,1v10.3c0,0.5,0.4,1,1,1c0.5,0,1-0.4,1-1
		v-9.3c2.2,0,2.6,0.3,5.5,2c0.9,0.6,2.1,1.3,3.7,2.1c1.6,0.9,2.9,1.7,4.1,2.4c3.6,2.2,6,3.6,9.5,3.3c-0.2,4.9-1.2,24-7.7,32.2
		c-6.4,8-11,11.8-14.6,14.8c-0.2,0.1-0.3,0.3-0.5,0.4c0,0,0-0.1,0-0.1v-6.7c0-0.5-0.4-1-1-1c-0.5,0-1,0.4-1,1v6.7c0,0,0,0.1,0,0.1
		c-0.2-0.1-0.3-0.3-0.5-0.4c-3.7-3-8.2-6.8-14.6-14.8c-6.5-8.1-7.5-27.3-7.7-32.2c3.6,0.3,5.9-1.1,9.3-3.2c0.5-0.3,0.6-0.9,0.3-1.4
		c-0.3-0.5-0.9-0.6-1.4-0.3c-4,2.4-5.7,3.4-9.1,2.7c-0.3-0.1-0.6,0-0.8,0.2c-0.2,0.2-0.4,0.5-0.4,0.8c0,1,0.3,24.7,8.2,34.6
		c6.5,8.2,11.2,12,14.9,15c0.7,0.6,1.4,1.2,2.1,1.8c0.2,0.2,0.4,0.2,0.6,0.2s0.5-0.1,0.6-0.2c0.7-0.6,1.4-1.2,2.1-1.8
		c3.7-3.1,8.4-6.9,14.9-15.1c7.9-9.9,8.2-33.6,8.2-34.6C1841.7,333.7,1841.6,333.4,1841.4,333.2z"/>
	<g id="Trazado_348">
		<path class="st1" d="M1842.7,369.4c-0.2,0-0.5-0.1-0.6-0.2c-0.5-0.4-1-0.8-1.5-1.2c-0.6-0.5-1.3-1.1-2-1.7c-0.4-0.4-0.5-1-0.1-1.4
			c0.4-0.4,1-0.5,1.4-0.1c0.7,0.6,1.4,1.2,2,1.7c0.3,0.2,0.6,0.5,0.9,0.7c4.1-3.2,7.8-7,11-11.1c4.4-5.5,5.2-18.2,5.3-22.1
			c-2.4,0.1-4-0.9-6.5-2.4c-0.8-0.5-1.7-1.1-2.9-1.7c-1.1-0.6-1.9-1.1-2.6-1.5c-2.3-1.3-2.3-1.4-4.4-1.4c-0.5,0-1-0.4-1-1
			c0-0.5,0.4-1,1-1c2.6,0,3,0.2,5.4,1.6c0.7,0.4,1.5,0.9,2.6,1.5c1.1,0.6,2.1,1.2,2.9,1.7c2.7,1.7,4,2.4,6.3,2
			c0.3-0.1,0.6,0,0.8,0.2c0.2,0.2,0.4,0.5,0.4,0.8c0,0.7-0.2,17.4-5.8,24.4c-3.5,4.4-7.5,8.4-12,11.9
			C1843.1,369.3,1842.9,369.4,1842.7,369.4z"/>
	</g>
	<g id="Grupo_390" transform="translate(2666.706 324.355)">
		<g id="Trazado_349">
			<path class="st1" d="M-884.6,39.4c-0.3,0-0.5-0.1-0.7-0.3c-2-1.9-3.8-4-5.5-6.2c-5.6-7-5.8-23.7-5.8-24.4c0-0.3,0.1-0.6,0.4-0.8
				c0.2-0.2,0.5-0.3,0.8-0.2c2.4,0.5,3.6-0.3,6.3-2c0.8-0.5,1.8-1.1,2.9-1.7c1.1-0.6,1.9-1.1,2.6-1.5c2.4-1.4,2.8-1.6,5.4-1.6
				c0.5,0,1,0.4,1,1s-0.4,1-1,1c-2.1,0-2.1,0-4.4,1.4c-0.7,0.4-1.5,0.9-2.6,1.5c-1.1,0.6-2,1.2-2.9,1.7c-2.5,1.5-4.1,2.5-6.5,2.4
				c0.1,3.9,1,16.6,5.3,22.1c1.7,2.1,3.5,4.1,5.4,6c0.4,0.4,0.4,1,0,1.4C-884.1,39.3-884.3,39.4-884.6,39.4z"/>
		</g>
		<g id="Trazado_350">
			<path class="st1" d="M-878.2,45c-0.2,0-0.5-0.1-0.6-0.2c-0.5-0.4-1-0.8-1.5-1.3c-1.4-1.2-3-2.5-5-4.4c-0.4-0.4-0.4-1,0-1.4
				c0.4-0.4,1-0.4,1.4,0c1.9,1.8,3.4,3.1,4.8,4.3c0.3,0.2,0.6,0.5,0.9,0.7c0.3-0.2,0.6-0.5,0.9-0.7c0.7-0.6,1.5-1.3,2.4-2
				c0.4-0.4,1-0.3,1.4,0.1c0.4,0.4,0.3,1-0.1,1.4c-0.9,0.8-1.7,1.4-2.4,2c-0.5,0.4-1,0.8-1.5,1.2C-877.7,44.9-877.9,45-878.2,45z"/>
		</g>
	</g>
</g>
</svg>
