<?xml version="1.0" encoding="utf-8"?>
<!-- Generator: Adobe Illustrator 23.0.6, SVG Export Plug-In . SVG Version: 6.00 Build 0)  -->
<svg version="1.1" id="Capa_1" xmlns="http://www.w3.org/2000/svg" xmlns:xlink="http://www.w3.org/1999/xlink" x="0px" y="0px"
	 viewBox="0 0 1296.6 276.2" style="enable-background:new 0 0 1296.6 276.2;" xml:space="preserve">
<style type="text/css">
	.st0{fill:#E8EDFC;}
	.st1{opacity:0.31;}
	.st2{clip-path:url(#SVGID_2_);}
	.st3{fill:none;stroke:#FFFFFF;stroke-width:4;stroke-linecap:round;stroke-miterlimit:10;}
	.st4{fill:#CAD9FC;}
	.st5{enable-background:new    ;}
	.st6{fill:none;stroke:#000000;stroke-linecap:round;stroke-linejoin:round;}
	.st7{fill:none;stroke:#000000;stroke-linecap:round;stroke-miterlimit:10;}
	.st8{fill:#141C27;}
	.st9{fill:none;stroke:#000000;stroke-miterlimit:10;}
	.st10{fill:none;stroke:#4956FA;stroke-miterlimit:10;}
	.st11{fill:none;stroke:#211915;stroke-miterlimit:10;}
	.st12{fill:none;stroke:#A1AFD3;stroke-width:2;stroke-linecap:round;stroke-linejoin:round;}
	.st13{fill:#A1AFD3;}
	.st14{fill:#FFFFFF;}
	.st15{fill:#FFFFFF;stroke:#000000;stroke-linecap:round;stroke-linejoin:round;}
	.st16{fill:#EDC620;stroke:#000000;stroke-miterlimit:10;}
	.st17{fill:#4956FA;stroke:#000000;stroke-miterlimit:10;}
	.st18{fill:none;stroke:#FDFDFF;stroke-linecap:round;stroke-linejoin:round;}
	.st19{fill:#4956FA;}
	.st20{fill:#D4E1F4;}
	.st21{fill:none;stroke:#211915;stroke-width:0.5;stroke-linecap:round;stroke-miterlimit:10;}
	.st22{fill:none;stroke:#211915;stroke-width:0.5;stroke-miterlimit:10;}
	.st23{fill:none;stroke:#211915;stroke-linecap:round;stroke-miterlimit:10;}
	.st24{fill:#4155FF;}
</style>
<rect id="Rectángulo_2093" x="656.2" y="1" class="st0" width="392" height="244.9"/>
<g id="Grupo_621" transform="translate(852.037 2092.547)" class="st1">
	<g>
		<defs>
			<polygon id="SVGID_1_" points="196.1,-2090.4 196.1,-1846.7 -194,-1846.7 -194.8,-2090.4 			"/>
		</defs>
		<clipPath id="SVGID_2_">
			<use xlink:href="#SVGID_1_"  style="overflow:visible;"/>
		</clipPath>
		<g id="Grupo_620" class="st2">
			<g id="Grupo_619" transform="translate(-26.378 -382.116)">
				<line id="Línea_1688" class="st3" x1="-173.6" y1="-1481" x2="330" y2="-1093.3"/>
				<line id="Línea_1689" class="st3" x1="-173.6" y1="-1497.5" x2="330" y2="-1109.8"/>
				<line id="Línea_1690" class="st3" x1="-173.6" y1="-1514" x2="330" y2="-1126.3"/>
				<line id="Línea_1691" class="st3" x1="-173.6" y1="-1530.4" x2="330" y2="-1142.7"/>
				<line id="Línea_1692" class="st3" x1="-173.6" y1="-1546.9" x2="330" y2="-1159.2"/>
				<line id="Línea_1693" class="st3" x1="-173.6" y1="-1563.4" x2="330" y2="-1175.7"/>
				<line id="Línea_1694" class="st3" x1="-173.6" y1="-1579.8" x2="330" y2="-1192.2"/>
				<line id="Línea_1695" class="st3" x1="-173.6" y1="-1596.3" x2="330" y2="-1208.6"/>
				<line id="Línea_1696" class="st3" x1="-173.6" y1="-1612.8" x2="330" y2="-1225.1"/>
				<line id="Línea_1697" class="st3" x1="-173.6" y1="-1629.2" x2="330" y2="-1241.6"/>
				<line id="Línea_1698" class="st3" x1="-173.6" y1="-1645.7" x2="330" y2="-1258"/>
				<line id="Línea_1699" class="st3" x1="-173.6" y1="-1662.2" x2="330" y2="-1274.5"/>
				<line id="Línea_1700" class="st3" x1="-173.6" y1="-1678.7" x2="330" y2="-1291"/>
				<line id="Línea_1701" class="st3" x1="-173.6" y1="-1695.1" x2="330" y2="-1307.4"/>
				<line id="Línea_1702" class="st3" x1="-173.6" y1="-1711.6" x2="330" y2="-1323.9"/>
				<line id="Línea_1703" class="st3" x1="-173.6" y1="-1744.5" x2="330" y2="-1356.9"/>
				<line id="Línea_1704" class="st3" x1="-194.8" y1="-1744.5" x2="308.8" y2="-1356.9"/>
				<line id="Línea_1705" class="st3" x1="-173.6" y1="-1761" x2="330" y2="-1373.3"/>
				<line id="Línea_1706" class="st3" x1="-173.6" y1="-1777.5" x2="330" y2="-1389.8"/>
				<line id="Línea_1707" class="st3" x1="-173.6" y1="-1793.9" x2="330" y2="-1406.3"/>
				<line id="Línea_1708" class="st3" x1="-173.6" y1="-1810.4" x2="330" y2="-1422.7"/>
				<line id="Línea_1709" class="st3" x1="-173.6" y1="-1826.9" x2="330" y2="-1439.2"/>
				<line id="Línea_1710" class="st3" x1="-173.6" y1="-1843.4" x2="330" y2="-1455.7"/>
				<line id="Línea_1711" class="st3" x1="-173.6" y1="-1859.8" x2="330" y2="-1472.1"/>
				<line id="Línea_1712" class="st3" x1="-173.6" y1="-1876.3" x2="330" y2="-1488.6"/>
				<line id="Línea_1713" class="st3" x1="-173.6" y1="-1892.8" x2="330" y2="-1505.1"/>
				<line id="Línea_1714" class="st3" x1="-173.6" y1="-1909.2" x2="330" y2="-1521.6"/>
				<line id="Línea_1715" class="st3" x1="-173.6" y1="-1925.7" x2="330" y2="-1538"/>
				<line id="Línea_1716" class="st3" x1="-173.6" y1="-1942.2" x2="330" y2="-1554.5"/>
				<line id="Línea_1717" class="st3" x1="-173.6" y1="-1958.6" x2="330" y2="-1571"/>
				<line id="Línea_1718" class="st3" x1="-173.6" y1="-1975.1" x2="330" y2="-1587.4"/>
				<line id="Línea_1719" class="st3" x1="-173.6" y1="-1991.6" x2="330" y2="-1603.9"/>
				<line id="Línea_1720" class="st3" x1="-173.6" y1="-2008.1" x2="330" y2="-1620.4"/>
				<line id="Línea_1721" class="st3" x1="-173.6" y1="-2024.5" x2="330" y2="-1636.8"/>
				<line id="Línea_1722" class="st3" x1="-173.6" y1="-2041" x2="330" y2="-1653.3"/>
				<line id="Línea_1723" class="st3" x1="-173.6" y1="-2057.5" x2="330" y2="-1669.8"/>
				<line id="Línea_1724" class="st3" x1="-173.6" y1="-2073.9" x2="330" y2="-1686.2"/>
				<line id="Línea_1725" class="st3" x1="-173.6" y1="-2090.4" x2="330" y2="-1702.7"/>
			</g>
		</g>
	</g>
</g>
<path id="Trazado_815" class="st4" d="M1293.3,176c6.1,0.9,1.2-9-2.1-11.2c-2.9-1.9-5.2-7.2-2.5-9.9c4.3-4.2,6.8-16.1,0.5-19.2
	c-8.3-4.1-8-7.3-7.2-19.8c1-14.3-7.9-20.4-19-20.4c-0.8,0-1.6,0-2.4,0.1c9.9,1-9.4-3.3-9.4,8.4c0,12.6,11,18.3,19.3,22.4
	c-1.1,7.5,0,7.2,0,11.7c0,5.8-0.1,9.9-2.8,12c-3.2,9-6.6,3.3-3.9,13C1272.9,174.2,1291.6,169.6,1293.3,176z"/>
<path id="Trazado_816" class="st4" d="M1239.9,162.9c2.6-9.7-0.1-4.2-3.3-13.3c-2.7-2.1-3.4-5.9-3.4-11.7c0-4.5,1.1-4.1,0-11.7
	c8.3-4.1,19.3-9.8,19.3-22.4c0-11.7-19.3-7.3-9.4-8.4c-0.8-0.1-1.6-0.1-2.4-0.1c-11.1,0-19,7.8-19,20.4s5.1,17.9-3.2,22
	c-6.3,3.1-4.8,12.6-1.6,15.7c4.8,4.7,1.4,10.6-1.6,12.6c-3.3,2.2-5.9,6.2-3.9,9.9C1213,169.5,1230.7,174.2,1239.9,162.9z"/>
<g class="st5">
	<path d="M9.4,51.2h5.3c2,0,3,1.2,3,2.7c0,1.3-0.9,2.2-1.9,2.4c1.1,0.2,2.1,1.3,2.1,2.6c0,1.6-1.1,2.9-3.1,2.9H9.4V51.2z M14.2,55.6
		c1,0,1.5-0.6,1.5-1.4c0-0.8-0.5-1.4-1.5-1.4h-3v2.8H14.2z M14.3,60.2c1,0,1.6-0.6,1.6-1.5c0-0.8-0.6-1.5-1.6-1.5h-3.1v3H14.3z"/>
	<path d="M19.2,58c0-2.2,1.5-4,4-4c2.5,0,4,1.8,4,4c0,2.2-1.5,4.1-4,4.1C20.7,62.1,19.2,60.2,19.2,58z M25.4,58
		c0-1.4-0.8-2.6-2.2-2.6c-1.4,0-2.2,1.2-2.2,2.6c0,1.4,0.8,2.6,2.2,2.6C24.6,60.6,25.4,59.4,25.4,58z"/>
	<path d="M28.8,54.2h1.7v1.1C31.1,54.6,32,54,33,54v1.7c-0.1,0-0.3,0-0.5,0c-0.7,0-1.6,0.5-2,1v5.3h-1.7V54.2z"/>
	<path d="M34.4,54.2h1.7v1.1c0.6-0.7,1.5-1.3,2.5-1.3v1.7c-0.1,0-0.3,0-0.5,0c-0.7,0-1.6,0.5-2,1v5.3h-1.7V54.2z"/>
	<path d="M39.5,58c0-2.2,1.5-4,4-4c2.5,0,4,1.8,4,4c0,2.2-1.5,4.1-4,4.1C41,62.1,39.5,60.2,39.5,58z M45.7,58c0-1.4-0.8-2.6-2.2-2.6
		c-1.4,0-2.2,1.2-2.2,2.6c0,1.4,0.8,2.6,2.2,2.6C44.9,60.6,45.7,59.4,45.7,58z"/>
	<path d="M54.1,56.2l-1.8,5.7h-1.8l-2.4-7.7h1.7l1.6,5.6l1.8-5.6h1.5l1.8,5.6l1.6-5.6H60l-2.4,7.7h-1.8L54.1,56.2z"/>
	<path d="M64.6,54c2.3,0,3.8,1.8,3.8,4.2v0.4h-6c0.1,1.2,1,2.1,2.5,2.1c0.8,0,1.6-0.3,2.2-0.8l0.8,1.1c-0.8,0.7-1.9,1.1-3.1,1.1
		c-2.3,0-4-1.6-4-4.1C60.7,55.8,62.3,54,64.6,54z M62.4,57.4h4.4c0-0.9-0.7-2-2.2-2C63.2,55.3,62.5,56.4,62.4,57.4z"/>
	<path d="M70.1,54.2h1.7v1.1c0.6-0.7,1.5-1.3,2.5-1.3v1.7c-0.1,0-0.3,0-0.5,0c-0.7,0-1.6,0.5-2,1v5.3h-1.7V54.2z"/>
</g>
<g class="st5">
	<path d="M187,42.8h-3v-1.5h7.8v1.5h-3v8.5H187V42.8z"/>
	<path d="M192.1,44h1.6v1.1c0.5-0.7,1.4-1.2,2.4-1.2v1.6c-0.1,0-0.3,0-0.5,0c-0.7,0-1.5,0.5-1.9,1v4.9h-1.6V44z"/>
	<path d="M201.7,50.5c-0.5,0.6-1.4,1-2.3,1c-1.2,0-2.5-0.8-2.5-2.4c0-1.7,1.3-2.4,2.5-2.4c1,0,1.8,0.3,2.3,0.9v-1.1
		c0-0.8-0.7-1.4-1.7-1.4c-0.8,0-1.5,0.3-2.1,0.9l-0.6-1.1c0.8-0.8,1.9-1.2,3-1.2c1.6,0,3,0.7,3,2.6v4.8h-1.6V50.5z M201.7,48.5
		c-0.4-0.5-1-0.8-1.7-0.8c-0.9,0-1.5,0.5-1.5,1.3c0,0.8,0.7,1.3,1.5,1.3c0.7,0,1.4-0.3,1.7-0.8V48.5z"/>
	<path d="M210.4,50.3c-0.6,0.7-1.4,1.2-2.3,1.2c-1.9,0-3.2-1.4-3.2-3.8c0-2.3,1.4-3.8,3.2-3.8c0.9,0,1.7,0.4,2.3,1.2v-3.8h1.6v10
		h-1.6V50.3z M210.4,46.2c-0.4-0.5-1.1-1-1.9-1c-1.2,0-2,1-2,2.4c0,1.4,0.8,2.4,2,2.4c0.8,0,1.5-0.4,1.9-1V46.2z"/>
	<path d="M213.9,41.8c0-0.5,0.4-1,1-1c0.5,0,1,0.4,1,1s-0.4,1-1,1C214.3,42.8,213.9,42.4,213.9,41.8z M214.1,44h1.6v7.2h-1.6V44z"/>
	<path d="M218,49.6v-4.2h-1.2V44h1.2v-2h1.6v2h1.5v1.4h-1.5v3.8c0,0.5,0.2,0.9,0.7,0.9c0.3,0,0.6-0.1,0.7-0.3l0.4,1.2
		c-0.3,0.3-0.8,0.5-1.5,0.5C218.6,51.4,218,50.8,218,49.6z"/>
	<path d="M222.3,41.8c0-0.5,0.4-1,1-1c0.5,0,1,0.4,1,1s-0.4,1-1,1C222.7,42.8,222.3,42.4,222.3,41.8z M222.5,44h1.6v7.2h-1.6V44z"/>
	<path d="M225.6,47.6c0-2.1,1.4-3.8,3.7-3.8c2.3,0,3.7,1.7,3.7,3.8c0,2.1-1.4,3.8-3.7,3.8C227.1,51.4,225.6,49.7,225.6,47.6z
		 M231.4,47.6c0-1.3-0.8-2.4-2.1-2.4c-1.3,0-2.1,1.1-2.1,2.4c0,1.3,0.8,2.4,2.1,2.4C230.7,50,231.4,48.9,231.4,47.6z"/>
	<path d="M239.6,46.7c0-1.1-0.6-1.5-1.5-1.5c-0.8,0-1.5,0.5-1.9,1v5.1h-1.6V44h1.6v1c0.5-0.6,1.4-1.2,2.5-1.2c1.6,0,2.3,0.8,2.3,2.3
		v5.1h-1.6V46.7z"/>
	<path d="M247.6,50.5c-0.5,0.6-1.4,1-2.3,1c-1.2,0-2.5-0.8-2.5-2.4c0-1.7,1.3-2.4,2.5-2.4c1,0,1.8,0.3,2.3,0.9v-1.1
		c0-0.8-0.7-1.4-1.7-1.4c-0.8,0-1.5,0.3-2.1,0.9l-0.6-1.1c0.8-0.8,1.9-1.2,3-1.2c1.6,0,3,0.7,3,2.6v4.8h-1.6V50.5z M247.6,48.5
		c-0.4-0.5-1-0.8-1.7-0.8c-0.9,0-1.5,0.5-1.5,1.3c0,0.8,0.7,1.3,1.5,1.3c0.7,0,1.4-0.3,1.7-0.8V48.5z"/>
	<path d="M251.2,41.2h1.6v10h-1.6V41.2z"/>
</g>
<g class="st5">
	<path d="M203.4,59.2h1.8v8.5h4.4v1.5h-6.2V59.2z"/>
	<path d="M210.4,65.6c0-2.1,1.4-3.8,3.7-3.8c2.3,0,3.7,1.7,3.7,3.8c0,2.1-1.4,3.8-3.7,3.8C211.9,69.4,210.4,67.7,210.4,65.6z
		 M216.3,65.6c0-1.3-0.8-2.4-2.1-2.4c-1.3,0-2.1,1.1-2.1,2.4c0,1.3,0.8,2.4,2.1,2.4C215.5,68,216.3,66.9,216.3,65.6z"/>
	<path d="M223.9,68.5c-0.5,0.6-1.4,1-2.3,1c-1.2,0-2.5-0.8-2.5-2.4c0-1.7,1.3-2.4,2.5-2.4c1,0,1.8,0.3,2.3,0.9v-1.1
		c0-0.8-0.7-1.4-1.7-1.4c-0.8,0-1.5,0.3-2.1,0.9l-0.6-1.1c0.8-0.8,1.9-1.2,3-1.2c1.6,0,3,0.7,3,2.6v4.8h-1.6V68.5z M223.9,66.5
		c-0.4-0.5-1-0.8-1.7-0.8c-0.9,0-1.5,0.5-1.5,1.3c0,0.8,0.7,1.3,1.5,1.3c0.7,0,1.4-0.3,1.7-0.8V66.5z"/>
	<path d="M232.4,64.7c0-1.1-0.6-1.5-1.5-1.5c-0.8,0-1.5,0.5-1.9,1v5.1h-1.6V62h1.6v1c0.5-0.6,1.4-1.2,2.6-1.2c1.6,0,2.3,0.8,2.3,2.3
		v5.1h-1.6V64.7z"/>
</g>
<g class="st5">
	<path d="M395.3,41.2h6.9v1.5H397v2.6h5v1.5h-5v4.3h-1.8V41.2z"/>
	<path d="M403.4,41.8c0-0.5,0.4-1,1-1c0.5,0,1,0.4,1,1s-0.4,1-1,1C403.9,42.8,403.4,42.4,403.4,41.8z M403.6,44h1.6v7.2h-1.6V44z"/>
	<path d="M412.1,46.7c0-1.1-0.6-1.5-1.5-1.5c-0.8,0-1.5,0.5-1.9,1v5.1h-1.6V44h1.6v1c0.5-0.6,1.4-1.2,2.6-1.2c1.6,0,2.3,0.8,2.3,2.3
		v5.1h-1.6V46.7z"/>
	<path d="M416.1,49.6v-4.2h-1.2V44h1.2v-2h1.6v2h1.5v1.4h-1.5v3.8c0,0.5,0.2,0.9,0.7,0.9c0.3,0,0.6-0.1,0.7-0.3l0.4,1.2
		c-0.3,0.3-0.8,0.5-1.5,0.5C416.7,51.4,416.1,50.8,416.1,49.6z"/>
	<path d="M423.8,43.8c2.2,0,3.6,1.7,3.6,3.9v0.4h-5.6c0.1,1.1,0.9,2,2.3,2c0.7,0,1.5-0.3,2.1-0.8l0.7,1c-0.7,0.7-1.8,1-2.9,1
		c-2.2,0-3.8-1.5-3.8-3.8C420.1,45.5,421.6,43.8,423.8,43.8z M421.7,47h4.1c0-0.9-0.6-1.9-2-1.9C422.4,45.1,421.8,46.2,421.7,47z"/>
	<path d="M432.2,43.8c1.4,0,2.3,0.6,2.8,1.3l-1,1c-0.4-0.6-1-0.9-1.7-0.9c-1.3,0-2.2,1-2.2,2.4s0.9,2.4,2.2,2.4
		c0.7,0,1.3-0.3,1.7-0.9l1,1c-0.5,0.7-1.4,1.3-2.8,1.3c-2.2,0-3.8-1.6-3.8-3.8C428.4,45.4,430,43.8,432.2,43.8z"/>
	<path d="M441.3,46.7c0-1.1-0.6-1.5-1.5-1.5c-0.8,0-1.5,0.5-1.9,1v5.1h-1.6v-10h1.6V45c0.5-0.6,1.4-1.2,2.6-1.2
		c1.6,0,2.3,0.8,2.3,2.3v5.1h-1.6V46.7z"/>
	<path d="M448.8,41.2h1.8v8.5h4.4v1.5h-6.2V41.2z"/>
	<path d="M459.5,43.8c2.2,0,3.6,1.7,3.6,3.9v0.4h-5.6c0.1,1.1,0.9,2,2.3,2c0.7,0,1.5-0.3,2.1-0.8l0.7,1c-0.7,0.7-1.8,1-2.9,1
		c-2.2,0-3.8-1.5-3.8-3.8C455.8,45.5,457.3,43.8,459.5,43.8z M457.4,47h4.1c0-0.9-0.6-1.9-2-1.9C458.1,45.1,457.5,46.2,457.4,47z"/>
	<path d="M469.5,46.7c0-1.1-0.6-1.5-1.5-1.5c-0.8,0-1.5,0.5-1.9,1v5.1h-1.6V44h1.6v1c0.5-0.6,1.4-1.2,2.5-1.2c1.6,0,2.3,0.8,2.3,2.3
		v5.1h-1.6V46.7z"/>
	<path d="M478.2,50.3c-0.6,0.7-1.4,1.2-2.3,1.2c-1.9,0-3.2-1.4-3.2-3.8c0-2.3,1.3-3.8,3.2-3.8c0.9,0,1.7,0.4,2.3,1.2v-3.8h1.6v10
		h-1.6V50.3z M478.2,46.2c-0.4-0.5-1.1-1-1.9-1c-1.2,0-2,1-2,2.4c0,1.4,0.8,2.4,2,2.4c0.8,0,1.5-0.4,1.9-1V46.2z"/>
	<path d="M481.6,41.8c0-0.5,0.5-1,1-1c0.5,0,1,0.4,1,1s-0.4,1-1,1C482.1,42.8,481.6,42.4,481.6,41.8z M481.8,44h1.6v7.2h-1.6V44z"/>
	<path d="M490.3,46.7c0-1.1-0.6-1.5-1.5-1.5c-0.8,0-1.5,0.5-1.9,1v5.1h-1.6V44h1.6v1c0.5-0.6,1.4-1.2,2.5-1.2c1.6,0,2.3,0.8,2.3,2.3
		v5.1h-1.6V46.7z"/>
	<path d="M494.6,52c0.6,0.7,1.3,0.9,2.3,0.9c1,0,2.1-0.5,2.1-2v-0.9c-0.6,0.7-1.4,1.2-2.3,1.2c-1.8,0-3.2-1.3-3.2-3.7
		c0-2.3,1.3-3.7,3.2-3.7c0.9,0,1.7,0.4,2.3,1.2v-1h1.6v6.9c0,2.6-1.9,3.3-3.7,3.3c-1.2,0-2.1-0.3-3-1.1L494.6,52z M499,46.2
		c-0.3-0.5-1.1-1-1.9-1c-1.2,0-2,0.9-2,2.3c0,1.4,0.8,2.3,2,2.3c0.7,0,1.5-0.4,1.9-1V46.2z"/>
</g>
<g class="st5">
	<path d="M416.5,64.3c0-3.1,2.3-5.2,5.2-5.2c2.1,0,3.3,1.1,4.1,2.2l-1.5,0.8c-0.5-0.8-1.4-1.5-2.6-1.5c-1.9,0-3.4,1.5-3.4,3.6
		c0,2.1,1.5,3.6,3.4,3.6c1.2,0,2.1-0.6,2.6-1.5l1.5,0.8c-0.8,1.2-2,2.2-4.1,2.2C418.8,69.4,416.5,67.3,416.5,64.3z"/>
	<path d="M426.7,65.6c0-2.1,1.4-3.8,3.7-3.8c2.3,0,3.7,1.7,3.7,3.8c0,2.1-1.4,3.8-3.7,3.8C428.1,69.4,426.7,67.7,426.7,65.6z
		 M432.5,65.6c0-1.3-0.8-2.4-2.1-2.4c-1.3,0-2.1,1.1-2.1,2.4c0,1.3,0.8,2.4,2.1,2.4C431.7,68,432.5,66.9,432.5,65.6z"/>
	<path d="M444.6,64.5c0-0.8-0.3-1.3-1.2-1.3c-0.7,0-1.4,0.5-1.7,1v5.1h-1.6v-4.7c0-0.8-0.3-1.3-1.2-1.3c-0.7,0-1.3,0.5-1.7,1v5.1
		h-1.6V62h1.6v1c0.3-0.5,1.3-1.2,2.4-1.2c1.1,0,1.7,0.5,2,1.3c0.4-0.7,1.4-1.3,2.5-1.3c1.3,0,2.1,0.7,2.1,2.2v5.2h-1.6V64.5z"/>
	<path d="M448.2,72V62h1.6v1c0.5-0.7,1.4-1.2,2.3-1.2c1.9,0,3.2,1.4,3.2,3.8s-1.3,3.8-3.2,3.8c-0.9,0-1.7-0.4-2.3-1.2V72H448.2z
		 M451.6,63.2c-0.7,0-1.5,0.4-1.9,1v2.9c0.3,0.5,1.1,1,1.9,1c1.2,0,2-1,2-2.4C453.7,64.2,452.9,63.2,451.6,63.2z"/>
	<path d="M461.3,68.5c-0.5,0.6-1.4,1-2.3,1c-1.2,0-2.5-0.8-2.5-2.4c0-1.7,1.3-2.4,2.5-2.4c1,0,1.8,0.3,2.3,0.9v-1.1
		c0-0.8-0.7-1.4-1.7-1.4c-0.8,0-1.5,0.3-2.1,0.9l-0.6-1.1c0.8-0.8,1.9-1.2,3-1.2c1.6,0,3,0.7,3,2.6v4.8h-1.6V68.5z M461.3,66.5
		c-0.4-0.5-1-0.8-1.7-0.8c-0.9,0-1.5,0.5-1.5,1.3c0,0.8,0.7,1.3,1.5,1.3c0.7,0,1.4-0.3,1.7-0.8V66.5z"/>
	<path d="M469.8,64.7c0-1.1-0.6-1.5-1.5-1.5c-0.8,0-1.5,0.5-1.9,1v5.1h-1.6V62h1.6v1c0.5-0.6,1.4-1.2,2.5-1.2c1.6,0,2.3,0.8,2.3,2.3
		v5.1h-1.6V64.7z"/>
	<path d="M474,70.8c0.5,0,0.8-0.2,1-0.6l0.4-0.8l-3-7.3h1.7l2.1,5.4l2.1-5.4h1.7l-3.5,8.5c-0.5,1.2-1.4,1.6-2.5,1.6
		c-0.2,0-0.7,0-0.9-0.1l0.2-1.4C473.5,70.8,473.8,70.8,474,70.8z"/>
</g>
<g class="st5">
	<path d="M607.4,58.3H606v3.6h-2.8V51.2h5.3c2.4,0,3.7,1.6,3.7,3.6c0,1.9-1.1,2.8-2.1,3.2l2.2,3.9h-3.2L607.4,58.3z M608.2,53.5H606
		v2.4h2.2c0.7,0,1.3-0.5,1.3-1.2S608.9,53.5,608.2,53.5z"/>
	<path d="M616.9,54c2.3,0,4,1.7,4,4.3v0.5h-5.5c0.1,0.7,0.8,1.4,2,1.4c0.7,0,1.5-0.3,1.9-0.7l1,1.5c-0.8,0.7-2,1-3.2,1
		c-2.4,0-4.2-1.6-4.2-4.1C612.8,55.8,614.5,54,616.9,54z M615.3,57.2h3.2c-0.1-0.5-0.5-1.3-1.6-1.3
		C615.8,55.9,615.4,56.6,615.3,57.2z"/>
	<path d="M627.2,64.8V61c-0.6,0.8-1.4,1.1-2.3,1.1c-2,0-3.4-1.4-3.4-4.1c0-2.6,1.5-4,3.4-4c0.9,0,1.7,0.4,2.3,1.1v-0.9h2.4v10.7
		H627.2z M627.2,56.8c-0.3-0.4-1-0.7-1.5-0.7c-1,0-1.7,0.7-1.7,1.9c0,1.2,0.7,1.9,1.7,1.9c0.5,0,1.2-0.3,1.5-0.7V56.8z"/>
	<path d="M636.7,61c-0.5,0.5-1.4,1.1-2.7,1.1c-1.8,0-2.5-1-2.5-2.4v-5.5h2.5v4.5c0,0.9,0.5,1.2,1.3,1.2c0.7,0,1.2-0.4,1.5-0.8v-5
		h2.5v7.7h-2.5V61z"/>
	<path d="M644.6,54c2.3,0,4,1.7,4,4.3v0.5H643c0.1,0.7,0.8,1.4,2,1.4c0.7,0,1.5-0.3,1.9-0.7l1,1.5c-0.8,0.7-2,1-3.2,1
		c-2.4,0-4.2-1.6-4.2-4.1C640.4,55.8,642.1,54,644.6,54z M643,57.2h3.2c-0.1-0.5-0.5-1.3-1.6-1.3C643.5,55.9,643.1,56.6,643,57.2z"
		/>
	<path d="M650.1,59.2c0.6,0.5,1.8,1,2.7,1c0.7,0,1-0.2,1-0.6c0-0.4-0.5-0.5-1.3-0.7c-1.3-0.2-3.2-0.5-3.2-2.5c0-1.4,1.2-2.5,3.3-2.5
		c1.3,0,2.4,0.4,3.2,1l-0.9,1.6c-0.5-0.4-1.3-0.8-2.3-0.8c-0.6,0-1,0.2-1,0.5c0,0.4,0.4,0.5,1.2,0.6c1.3,0.2,3.3,0.5,3.3,2.6
		c0,1.5-1.3,2.6-3.5,2.6c-1.4,0-2.8-0.5-3.6-1.2L650.1,59.2z"/>
	<path d="M658,59.8v-3.5h-1.3v-2.1h1.3V52h2.4v2.1h1.6v2.1h-1.6v2.8c0,0.4,0.3,0.8,0.7,0.8c0.3,0,0.5-0.1,0.6-0.2l0.5,1.9
		c-0.3,0.3-0.9,0.5-1.8,0.5C658.8,62.1,658,61.3,658,59.8z"/>
	<path d="M666.8,54c2.3,0,4,1.7,4,4.3v0.5h-5.5c0.1,0.7,0.8,1.4,2,1.4c0.7,0,1.5-0.3,1.9-0.7l1,1.5c-0.8,0.7-2,1-3.2,1
		c-2.4,0-4.2-1.6-4.2-4.1C662.7,55.8,664.4,54,666.8,54z M665.2,57.2h3.2c-0.1-0.5-0.5-1.3-1.6-1.3
		C665.8,55.9,665.3,56.6,665.2,57.2z"/>
	<path d="M677.2,61c-0.6,0.7-1.4,1.1-2.3,1.1c-1.9,0-3.4-1.4-3.4-4.1c0-2.5,1.5-4,3.4-4c0.8,0,1.7,0.3,2.3,1.1v-3.9h2.4v10.7h-2.4
		V61z M677.2,56.8c-0.3-0.4-1-0.7-1.5-0.7c-1,0-1.7,0.7-1.7,1.9c0,1.2,0.7,1.9,1.7,1.9c0.5,0,1.2-0.3,1.5-0.7V56.8z"/>
	<path d="M685.6,51.2h2.8v8.3h4.3v2.4h-7V51.2z"/>
	<path d="M693.4,58c0-2.2,1.6-4,4.2-4c2.7,0,4.2,1.9,4.2,4c0,2.2-1.6,4.1-4.2,4.1C695,62.1,693.4,60.2,693.4,58z M699.3,58
		c0-1-0.6-1.9-1.7-1.9c-1.1,0-1.7,0.8-1.7,1.9c0,1,0.6,1.9,1.7,1.9C698.7,59.9,699.3,59.1,699.3,58z"/>
	<path d="M707.7,61.1c-0.5,0.6-1.4,1-2.4,1c-1.2,0-2.7-0.8-2.7-2.5c0-1.9,1.5-2.4,2.7-2.4c1,0,1.9,0.3,2.4,0.9v-1
		c0-0.7-0.6-1.1-1.6-1.1c-0.8,0-1.6,0.3-2.2,0.8l-0.9-1.6c1-0.8,2.3-1.2,3.5-1.2c1.9,0,3.6,0.7,3.6,3.1v4.8h-2.5V61.1z M707.7,59.2
		c-0.3-0.4-0.8-0.5-1.4-0.5c-0.7,0-1.2,0.3-1.2,0.9c0,0.6,0.6,0.9,1.2,0.9c0.5,0,1.1-0.2,1.4-0.6V59.2z"/>
	<path d="M717.2,57.4c0-0.9-0.5-1.3-1.3-1.3c-0.7,0-1.2,0.4-1.5,0.8v5H712v-7.7h2.5v0.9c0.5-0.5,1.4-1.1,2.7-1.1
		c1.8,0,2.6,1,2.6,2.4v5.5h-2.5V57.4z"/>
</g>
<g class="st5">
	<path d="M1008.5,51.2h7.8v2.3h-5.1v1.8h5v2.3h-5v4.2h-2.8V51.2z"/>
	<path d="M1023,61c-0.5,0.5-1.4,1.1-2.7,1.1c-1.8,0-2.5-1-2.5-2.4v-5.5h2.5v4.5c0,0.9,0.5,1.2,1.3,1.2c0.7,0,1.2-0.4,1.5-0.8v-5h2.5
		v7.7h-2.5V61z"/>
	<path d="M1032.5,57.4c0-0.9-0.5-1.3-1.3-1.3c-0.7,0-1.2,0.4-1.5,0.8v5h-2.5v-7.7h2.5v0.9c0.5-0.5,1.4-1.1,2.7-1.1
		c1.8,0,2.6,1,2.6,2.4v5.5h-2.5V57.4z"/>
	<path d="M1041.9,61c-0.6,0.7-1.4,1.1-2.3,1.1c-1.9,0-3.4-1.4-3.4-4.1c0-2.5,1.5-4,3.4-4c0.8,0,1.7,0.3,2.3,1.1v-3.9h2.4v10.7h-2.4
		V61z M1041.9,56.8c-0.3-0.4-1-0.7-1.5-0.7c-1,0-1.7,0.7-1.7,1.9c0,1.2,0.7,1.9,1.7,1.9c0.5,0,1.2-0.3,1.5-0.7V56.8z"/>
	<path d="M1049.8,54c2.3,0,4,1.7,4,4.3v0.5h-5.5c0.1,0.7,0.8,1.4,2,1.4c0.7,0,1.5-0.3,1.9-0.7l1,1.5c-0.8,0.7-2,1-3.2,1
		c-2.4,0-4.2-1.6-4.2-4.1C1045.7,55.8,1047.4,54,1049.8,54z M1048.2,57.2h3.2c-0.1-0.5-0.5-1.3-1.6-1.3
		C1048.7,55.9,1048.3,56.6,1048.2,57.2z"/>
	<path d="M1060.2,61c-0.6,0.7-1.4,1.1-2.3,1.1c-1.9,0-3.4-1.4-3.4-4.1c0-2.5,1.5-4,3.4-4c0.8,0,1.7,0.3,2.3,1.1v-3.9h2.4v10.7h-2.4
		V61z M1060.2,56.8c-0.3-0.4-1-0.7-1.5-0.7c-1,0-1.7,0.7-1.7,1.9c0,1.2,0.7,1.9,1.7,1.9c0.5,0,1.2-0.3,1.5-0.7V56.8z"/>
	<path d="M1068.6,51.2h2.8v8.3h4.3v2.4h-7V51.2z"/>
	<path d="M1076.4,58c0-2.2,1.6-4,4.2-4c2.7,0,4.2,1.9,4.2,4c0,2.2-1.6,4.1-4.2,4.1C1078,62.1,1076.4,60.2,1076.4,58z M1082.3,58
		c0-1-0.6-1.9-1.7-1.9c-1.1,0-1.7,0.8-1.7,1.9c0,1,0.6,1.9,1.7,1.9C1081.7,59.9,1082.3,59.1,1082.3,58z"/>
	<path d="M1090.7,61.1c-0.5,0.6-1.4,1-2.4,1c-1.2,0-2.7-0.8-2.7-2.5c0-1.9,1.5-2.4,2.7-2.4c1,0,1.9,0.3,2.4,0.9v-1
		c0-0.7-0.6-1.1-1.6-1.1c-0.8,0-1.6,0.3-2.2,0.8l-0.9-1.6c1-0.8,2.3-1.2,3.5-1.2c1.9,0,3.6,0.7,3.6,3.1v4.8h-2.5V61.1z M1090.7,59.2
		c-0.3-0.4-0.8-0.5-1.4-0.5c-0.7,0-1.2,0.3-1.2,0.9c0,0.6,0.6,0.9,1.2,0.9c0.5,0,1.1-0.2,1.4-0.6V59.2z"/>
	<path d="M1100.2,57.4c0-0.9-0.5-1.3-1.3-1.3c-0.7,0-1.2,0.4-1.5,0.8v5h-2.5v-7.7h2.5v0.9c0.5-0.5,1.4-1.1,2.7-1.1
		c1.8,0,2.6,1,2.6,2.4v5.5h-2.5V57.4z"/>
</g>
<g class="st5">
	<path d="M1228.2,51.2h1.9v9h4.7v1.6h-6.6V51.2z"/>
	<path d="M1239.6,54c2.3,0,3.8,1.8,3.8,4.2v0.4h-6c0.1,1.2,1,2.1,2.5,2.1c0.8,0,1.6-0.3,2.2-0.8l0.8,1.1c-0.8,0.7-1.9,1.1-3.1,1.1
		c-2.3,0-4-1.6-4-4.1C1235.7,55.8,1237.3,54,1239.6,54z M1237.4,57.4h4.4c0-0.9-0.7-2-2.2-2C1238.2,55.3,1237.5,56.4,1237.4,57.4z"
		/>
	<path d="M1250.3,57c0-1.2-0.6-1.6-1.6-1.6c-0.9,0-1.6,0.5-2,1v5.4h-1.7v-7.7h1.7v1.1c0.5-0.6,1.5-1.2,2.7-1.2
		c1.7,0,2.5,0.9,2.5,2.5v5.4h-1.7V57z"/>
	<path d="M1259.6,60.8c-0.6,0.8-1.5,1.2-2.5,1.2c-2,0-3.4-1.5-3.4-4c0-2.5,1.4-4.1,3.4-4.1c1,0,1.9,0.4,2.5,1.3v-4h1.7v10.7h-1.7
		V60.8z M1259.6,56.5c-0.4-0.6-1.2-1-2-1c-1.3,0-2.2,1.1-2.2,2.6c0,1.5,0.8,2.6,2.2,2.6c0.8,0,1.6-0.4,2-1V56.5z"/>
	<path d="M1266.9,54c2.3,0,3.8,1.8,3.8,4.2v0.4h-6c0.1,1.2,1,2.1,2.5,2.1c0.8,0,1.6-0.3,2.2-0.8l0.8,1.1c-0.8,0.7-1.9,1.1-3.1,1.1
		c-2.3,0-4-1.6-4-4.1C1263,55.8,1264.6,54,1266.9,54z M1264.7,57.4h4.4c0-0.9-0.7-2-2.2-2C1265.4,55.3,1264.8,56.4,1264.7,57.4z"/>
	<path d="M1272.4,54.2h1.7v1.1c0.6-0.7,1.5-1.3,2.5-1.3v1.7c-0.1,0-0.3,0-0.5,0c-0.7,0-1.6,0.5-2,1v5.3h-1.7V54.2z"/>
</g>
<path id="Trazado_817" class="st6" d="M180.9,121.6V96c0-2.4,2-4.4,4.4-4.4l0,0h66.4c2.4,0,4.4,2,4.4,4.4v48"/>
<path id="Trazado_818" class="st6" d="M228.4,185.5h-43.1c-2.4,0-4.4-2-4.4-4.4c0,0,0,0,0,0v-54.8"/>
<line id="Línea_1726" class="st7" x1="192.7" y1="132" x2="237.5" y2="132"/>
<line id="Línea_1727" class="st7" x1="192.7" y1="144.5" x2="220.6" y2="144.5"/>
<g class="st5">
	<path class="st8" d="M190.8,102.7h2.6v7.8h4v2.2h-6.6V102.7z"/>
	<path class="st8" d="M203.2,102.5c3.1,0,5.3,2.1,5.3,5.2s-2.3,5.2-5.3,5.2c-3.1,0-5.4-2.1-5.4-5.2S200.2,102.5,203.2,102.5z
		 M203.2,104.8c-1.7,0-2.7,1.3-2.7,2.9c0,1.6,1.1,2.9,2.7,2.9c1.6,0,2.7-1.3,2.7-2.9C206,106,204.9,104.8,203.2,104.8z"/>
	<path class="st8" d="M215.8,111.2h-4.2l-0.5,1.5h-2.8l3.8-10h3.2l3.8,10h-2.8L215.8,111.2z M212.3,109h2.8l-1.4-4.1L212.3,109z"/>
	<path class="st8" d="M222.4,106.6v6h-2.6v-10h2.7l4,5.8v-5.8h2.6v10h-2.5L222.4,106.6z"/>
</g>
<line id="Línea_1728" class="st7" x1="192.7" y1="157.9" x2="239.7" y2="157.9"/>
<path id="Trazado_819" class="st6" d="M660.8,181.5h-32.7c-3.4,0-6.1-2.8-6.1-6.1l0,0v-54"/>
<path id="Trazado_820" class="st9" d="M208.7,185.5h43.1c2.4,0,4.4-2,4.4-4.4c0,0,0,0,0,0v-54.8"/>
<line id="Línea_1729" class="st7" x1="192.7" y1="172.6" x2="203.9" y2="172.6"/>
<line id="Línea_1730" class="st7" x1="211.4" y1="172.6" x2="222.6" y2="172.6"/>
<line id="Línea_1731" class="st10" x1="86.4" y1="138.5" x2="160.9" y2="138.5"/>
<line id="Línea_1732" class="st10" x1="285.7" y1="138.5" x2="360.2" y2="138.5"/>
<line id="Línea_1733" class="st10" x1="519.3" y1="138.5" x2="593.7" y2="138.5"/>
<line id="Línea_1734" class="st11" x1="1196" y1="138.5" x2="1121.6" y2="138.5"/>
<line id="Línea_1735" class="st10" x1="708.5" y1="138.5" x2="783" y2="138.5"/>
<line id="Línea_1736" class="st10" x1="915.4" y1="138.5" x2="989.8" y2="138.5"/>
<path id="Trazado_821" class="st12" d="M1048.1,217.7v28.2h-392v-26.5"/>
<path id="Trazado_822" class="st12" d="M656.2,29.2V1h392v27.6"/>
<circle id="Elipse_208" class="st13" cx="656.1" cy="31" r="3.5"/>
<circle id="Elipse_209" class="st13" cx="1048" cy="31" r="3.5"/>
<circle id="Elipse_210" class="st13" cx="656.1" cy="216.9" r="3.5"/>
<circle id="Elipse_211" class="st13" cx="1048" cy="216.9" r="3.5"/>
<path id="Rectángulo_2094" class="st14" d="M630.4,81.7h68.5c2.2,0,4,1.8,4,4v87.1c0,2.2-1.8,4-4,4h-68.5c-2.2,0-4-1.8-4-4V85.7
	C626.4,83.5,628.1,81.7,630.4,81.7z"/>
<line id="Línea_1737" class="st7" x1="638.2" y1="117.2" x2="684" y2="117.2"/>
<line id="Línea_1738" class="st7" x1="638.2" y1="130" x2="666.7" y2="130"/>
<path id="Trazado_824" class="st15" d="M682.8,176.5v-26.8h16.8v33.7l-8.1-6.7l-8.4,5.7"/>
<g class="st5">
	<path class="st8" d="M636.7,92.9h2.6v7.8h4v2.2h-6.6V92.9z"/>
	<path class="st8" d="M649.2,92.7c3.1,0,5.3,2.1,5.3,5.2s-2.3,5.2-5.3,5.2s-5.4-2.1-5.4-5.2S646.1,92.7,649.2,92.7z M649.2,95
		c-1.7,0-2.7,1.3-2.7,2.9c0,1.6,1.1,2.9,2.7,2.9c1.6,0,2.7-1.3,2.7-2.9C651.9,96.3,650.8,95,649.2,95z"/>
	<path class="st8" d="M661.7,101.4h-4.2l-0.5,1.5h-2.8l3.8-10h3.2l3.8,10h-2.8L661.7,101.4z M658.3,99.2h2.8l-1.4-4.1L658.3,99.2z"
		/>
	<path class="st8" d="M668.4,96.9v6h-2.6v-10h2.7l4,5.8v-5.8h2.6v10h-2.5L668.4,96.9z"/>
</g>
<line id="Línea_1739" class="st7" x1="638.2" y1="143.6" x2="651.3" y2="143.6"/>
<circle id="Elipse_212" class="st16" cx="691.2" cy="150.8" r="11.7"/>
<path id="Trazado_825" class="st6" d="M684.4,152.4l4.1,4.2l8.9-10.6"/>
<path id="Trazado_826" class="st6" d="M626.1,112V85.8c0-2.5,2-4.5,4.5-4.5c0,0,0,0,0,0h67.9c2.5,0,4.5,2,4.5,4.5c0,0,0,0,0,0v49.1"
	/>
<path id="Trazado_827" class="st6" d="M674.7,177.3h-44.1c-2.5,0-4.5-2-4.5-4.5v-56"/>
<line id="Línea_1740" class="st7" x1="638.1" y1="165.3" x2="649.3" y2="165.3"/>
<line id="Línea_1741" class="st7" x1="656.8" y1="165.3" x2="668.1" y2="165.3"/>
<path id="Rectángulo_2095" class="st14" d="M1021.6,81.7h68.5c2.2,0,4,1.8,4,4v87.1c0,2.2-1.8,4-4,4h-68.5c-2.2,0-4-1.8-4-4V85.7
	C1017.6,83.5,1019.4,81.7,1021.6,81.7z"/>
<line id="Línea_1742" class="st7" x1="1030.4" y1="117.4" x2="1076.2" y2="117.4"/>
<line id="Línea_1743" class="st7" x1="1030.4" y1="130.2" x2="1058.9" y2="130.2"/>
<g class="st5">
	<path class="st8" d="M1028.9,93.1h2.6v7.8h4v2.2h-6.6V93.1z"/>
	<path class="st8" d="M1041.4,92.9c3.1,0,5.3,2.1,5.3,5.2s-2.3,5.2-5.3,5.2c-3.1,0-5.4-2.1-5.4-5.2S1038.3,92.9,1041.4,92.9z
		 M1041.4,95.2c-1.7,0-2.7,1.3-2.7,2.9c0,1.6,1.1,2.9,2.7,2.9c1.6,0,2.7-1.3,2.7-2.9C1044.1,96.5,1043,95.2,1041.4,95.2z"/>
	<path class="st8" d="M1053.9,101.6h-4.2l-0.5,1.5h-2.8l3.8-10h3.2l3.8,10h-2.8L1053.9,101.6z M1050.5,99.4h2.8l-1.4-4.1
		L1050.5,99.4z"/>
	<path class="st8" d="M1060.6,97v6h-2.6v-10h2.7l4,5.8v-5.8h2.6v10h-2.5L1060.6,97z"/>
</g>
<line id="Línea_1744" class="st7" x1="1030.4" y1="143.8" x2="1043.5" y2="143.8"/>
<line id="Línea_1745" class="st7" x1="1030.7" y1="165.3" x2="1041.9" y2="165.3"/>
<line id="Línea_1746" class="st7" x1="1049.4" y1="165.3" x2="1060.7" y2="165.3"/>
<path id="Trazado_828" class="st6" d="M1018.3,112.2V86c0-2.5,2-4.5,4.5-4.5h67.9c2.5,0,4.5,2,4.5,4.5v49.1"/>
<path id="Trazado_829" class="st6" d="M1066.9,177.5h-44.1c-2.5,0-4.5-2-4.5-4.5v-56"/>
<path id="Trazado_830" class="st6" d="M1075,176.8v-27h16.8v33.7l-8.1-6.7l-8.4,5.7"/>
<circle id="Elipse_213" class="st17" cx="1083.4" cy="151" r="11.7"/>
<path id="Trazado_831" class="st18" d="M1076.7,152.4l4.1,4.2l8.9-10.6"/>
<path id="Trazado_832" class="st19" d="M800.4,167.1v-61c0-3.2,2.6-5.7,5.7-5.7h88.6c3.2,0,5.7,2.6,5.7,5.7v61.2"/>
<path id="Trazado_833" class="st6" d="M878.6,100.2h18c2.2,0,4,1.8,4,4v63.1"/>
<path id="Trazado_834" class="st6" d="M800.4,167.1v-62.9c0-2.2,1.8-4,4-4H872"/>
<ellipse id="Elipse_214" class="st19" cx="848.7" cy="148.2" rx="24.6" ry="21.5"/>
<g id="Grupo_630" transform="translate(1017.92 2202.818)">
	<g id="Grupo_622" transform="translate(3.126)">
		<path id="Trazado_835" class="st14" d="M-171-2042.8c-13.1,0-23.8-10.7-23.8-23.8c0-13.1,10.7-23.8,23.8-23.8
			c13.1,0,23.8,10.7,23.8,23.8C-147.2-2053.5-157.8-2042.8-171-2042.8z M-171-2087.5c-11.5,0-20.9,9.4-20.9,20.9
			c0,11.5,9.4,20.9,20.9,20.9c11.5,0,20.9-9.4,20.9-20.9C-150.1-2078.1-159.4-2087.5-171-2087.5z"/>
	</g>
	<g id="Grupo_629" transform="translate(0 6.098)">
		<g id="Grupo_625">
			<g id="Grupo_624">
				<g id="Grupo_623">
					<path id="Trazado_836" class="st14" d="M-193.3-2060.9c-0.2,0-0.4,0-0.6-0.1c-0.7-0.3-1-1.2-0.7-1.9c0,0,0,0,0,0
						c4-8.5,11.5-14.4,21.7-17.2c4.6-1.3,9.4-1.8,14.2-1.7c0.8,0.1,1.4,0.7,1.3,1.5c-0.1,0.8-0.7,1.4-1.5,1.3c0,0,0,0,0,0
						c-4.5-0.1-9,0.4-13.4,1.6c-9.4,2.6-16.1,7.9-19.8,15.7C-192.3-2061.3-192.8-2060.9-193.3-2060.9z"/>
					<path id="Trazado_837" class="st14" d="M-164.5-2071.8l-2-2l6.6-6.6l-7.9-7.9l2-2l9.9,9.9L-164.5-2071.8z"/>
				</g>
			</g>
		</g>
		<g id="Grupo_628" transform="translate(14.864 5.943)">
			<g id="Grupo_627">
				<g id="Grupo_626">
					<path id="Trazado_838" class="st14" d="M-190.2-2069.4c-1,0-1.6,0-1.7,0c-0.8-0.1-1.4-0.7-1.3-1.5c0,0,0,0,0,0
						c0.1-0.8,0.7-1.4,1.5-1.3c0,0,0,0,0,0c4.5,0.1,9-0.4,13.4-1.6c9.4-2.6,16.1-7.9,19.8-15.7c0.3-0.7,1.2-1,1.9-0.7
						c0.7,0.3,1,1.2,0.7,1.9c0,0,0,0,0,0c-4,8.5-11.5,14.4-21.7,17.2C-181.7-2070-186-2069.4-190.2-2069.4z"/>
					<path id="Trazado_839" class="st14" d="M-184.9-2060.9l-9.9-9.9l8.7-8.7l2,2l-6.6,6.6l7.9,7.9L-184.9-2060.9z"/>
				</g>
			</g>
		</g>
	</g>
</g>
<path id="Trazado_840" class="st6" d="M807.1,167.2l-11.8,0v7.2c0,2.6,2.1,4.7,4.7,4.7h100.3c2.6,0,4.7-2.1,4.7-4.7c0,0,0,0,0,0v-7
	l-45.4-0.1c-3.6,1.4-7.5,2.1-11.4,2.1c-3.9,0-7.8-0.7-11.4-2.2l-24.2,0"/>
<path id="Trazado_841" class="st0" d="M28.3,183.8c-8.4-0.6-21-2.4-28.1-6.5c1.3-0.6,5.3-2.6,7.2-3.6c6.6-3.6,6.9-2.1,11-3.9
	C18.7,172.6,20.5,181.5,28.3,183.8z"/>
<path id="Trazado_842" class="st0" d="M62.1,169.7c4.1,1.8,4.3,0.3,11,3.9c1.8,1,5.8,3,7.2,3.6c-7.1,4.1-19.8,5.9-28.1,6.5
	C59.9,181.5,61.7,172.6,62.1,169.7z"/>
<path id="Trazado_843" class="st4" d="M69.1,110.7c0,3.7-1,7.4-2.9,10.6l0,0c-0.4-0.2-0.8-0.3-1.3-0.3c-1-0.1-2,0.1-2.7,0.7
	c-0.8,0.6-1.3-1-1.4-0.1c0-0.4-0.1-2.1-0.1-0.3c-1-15.3-8.2-17.1-8.2-17.1c-3.7,5.4-9.6,8.8-16.1,9.4H27c-4.2,0-7.2,1.6-7.4,5.2
	c0,0.5,0,1.2,0,1.9c0,0.5-0.4,0.9-0.9,0.9c-0.2,0-0.3,0-0.4-0.1c-0.7-0.4-1.6-0.6-2.4-0.5c-1.5-3.8-2.3-7.8-2.4-11.9
	c0-11.1,11.2-21.6,24.6-21.6c13.5,0,18.7,8.5,18.7,8.5h0.6C57.4,96.1,69.1,96.6,69.1,110.7L69.1,110.7z"/>
<g id="Grupo_631" transform="translate(195.279 2177.601)">
	<path id="Trazado_844" class="st6" d="M-132-2053.5L-132-2053.5c-1.8,0-2.1,1-2.2,1.5"/>
	<path id="Trazado_845" class="st6" d="M-134.6-2041.3c1.7-1.4,2.7-3.4,3-5.5c0-0.1,0-0.1,0-0.2c0.6-2.9,0.5-5.8,0-6.5
		c-0.1,0-0.2,0-0.3,0"/>
	<path id="Trazado_846" class="st6" d="M-176.4-2008c-2.9,1-7.4,1.9-13.1,5.2c-1.7,1-3.5,2-5.3,2.9c8.9,3.6,18.4,5.7,28,6.2"/>
	<path id="Trazado_847" class="st6" d="M-175.9-2052.5c0-0.4-0.3-1.1-1.9-1.1c-0.1,0-0.2,0-0.2,0c-0.5,0.3-0.7,3.4-0.1,6.5
		c0,0.1,0,0.1,0,0.2c0,0.4,0.1,0.7,0.2,1.1"/>
	<path id="Trazado_848" class="st6" d="M-176.9-2080.5c10-13.1,29.9-12.8,38.2-1.3c11.8,1.4,15.1,15.6,9.8,26.6
		c1.5,2.5,0.8,7.1,0.5,8.7c-0.4,3.9-2.7,7.3-6.2,9c0,3-1.1,5.8-3.1,8.1 M-176-2057.5c0.2-4.2,3.4-6.8,8.6-6.8h8.7c0,0,10.6-1,15-8.2
		c0.5-0.8,1.5-1,2.2-0.6c0.6,0.3,5.5,3.4,7,16.7c0.1-0.1,0.3-0.1,0.5-0.2 M-170-2027.1c-3.2-3.1-5.1-5.7-5.3-10.3
		c-3.5-1.8-5.8-5.2-6.2-9c-0.4-2-1.3-7.9,1.5-9.8c-1.1-3.5-1.7-7.1-1.8-10.8"/>
	<path id="Trazado_849" class="st6" d="M-139.8-2012.9l0-10.3c-5.1,7.3-8.7,6.4-17.9,6.5c-6.5,0.1-9.8-7-12.2-10.5v14.3
		c-2,1.8-4.1,3.5-6.4,4.9c0.6,3.8,2.7,12,9.6,14.3c7.9,0.6,15.9,0.6,23.9,0c6.9-2.3,9-10.5,9.6-14.3
		C-135.7-2009.4-137.8-2011-139.8-2012.9z"/>
	<path id="Trazado_850" class="st6" d="M-142.9-1993.7c7.4-0.2,21.3-3.4,28-6.2c-1.8-1-3.5-1.9-5.2-2.9c-5.8-3.4-10.2-4.2-13.1-5.2"
		/>
</g>
<path id="Trazado_851" class="st0" d="M1275.3,170c0,0.3-3.2,1.8-3.2,12.6c-1.7,0.7-4.8,0.4-6.5,0.6c3.2-4.2,5.2-14.5,5.3-14.8
	c1.1,1.5,2.1,1,3.4,1.7L1275.3,170z"/>
<path id="Trazado_852" class="st0" d="M1238.3,183.4c-1.7-0.2-5.3,0-7-0.6c0-10.6-2.8-12.3-2.8-12.4c1.2-0.6,2.9-0.7,4-2.2l0,0.1
	C1232.5,168.3,1233.7,178.2,1238.3,183.4z"/>
<path id="Trazado_853" class="st9" d="M1228.3,170.3c1.5,2.1,3.2,5.8,3.5,12.1c2.1,0.3,4.2,0.5,6.4,0.7c-3.7-4.6-5.2-11.1-5.8-14.6
	C1231.1,169.3,1229.7,169.8,1228.3,170.3z"/>
<path id="Trazado_854" class="st6" d="M1271.1,168.5c-2.5-1.6-4.9-3.3-7.2-5.1c-1.6-1.6-1.5-4.7-1.4-7c-7.8,7.8-13.7,7.8-21.6,0
	c0.1,2.3,0.2,5.4-1.4,7c-2.3,1.9-4.7,3.6-7.2,5.2"/>
<path id="Trazado_855" class="st9" d="M1255,183.6"/>
<path id="Trazado_856" class="st9" d="M1238.2,183.2c5.4,0.3,21.7,0.3,27.1,0"/>
<path id="Trazado_857" class="st9" d="M1228.3,170.3c-2.7,0.6-8.9,1.8-11.7,1.8c-2.7,0-5.2,1.7-6.1,4.3c5.7,2.7,15.1,5.1,21.3,6"/>
<path id="Trazado_858" class="st9" d="M1271.8,182.5c6.3-0.9,15.8-3.3,21.5-6.1c-0.9-2.6-3.4-4.3-6.2-4.3c-2.8,0-9.1-1.3-11.8-1.9"
	/>
<path id="Trazado_859" class="st9" d="M1271.1,168.5c-0.6,3.5-2.1,10.1-5.8,14.7c2.2-0.2,4.4-0.4,6.4-0.7c0.3-6.4,2-10.2,3.5-12.2
	C1273.9,169.8,1272.5,169.2,1271.1,168.5z"/>
<path id="Trazado_860" class="st6" d="M1282.5,114.6c0,13.8-2.4,16.2,5.1,19.9c7.5,3.8,6.5,15,2.1,19.4c-1.4,1.3-2.2,3.2-2,5.1
	c0.3,2.3,1.5,4.4,3.4,5.7c2.9,1.7,4.7,4.8,4.9,8.1 M1276.2,128.7l-0.5-0.2 M1213.9,142.7c-0.5,3.2,0.3,6.4,2.3,8.9
	c2.1,2,3.2,4.9,2.9,7.8c-0.4,3.3-2.2,6.3-4.9,8.2c-1.2,0.7-2.1,1.7-2.7,3"/>
<path id="Trazado_861" class="st6" d="M1223,107c3.9-6.3,9.7-11.6,17-11.4c6.7,0,10,2.1,11.7,4.1c1.7-2.1,5-4.1,11.7-4.1
	c13,0,19.1,5,19.1,19"/>
<path id="Trazado_862" class="st6" d="M1270.7,126.7c-0.6,3.5-1.1,6.7-0.4,10.2c1.3,6.2-0.5,10.5-4,15.3"/>
<path id="Trazado_863" class="st6" d="M1227.9,128.4c9.7-3.1,17.8-7.4,22.4-16.5c0.3-0.6,0.9-1,1.5-1c0.7,0,1.3,0.4,1.5,1
	c0.1,0.1,6.6,11.8,22.4,16.5"/>
<path id="Trazado_864" class="st9" d="M1241.2,156.6c-4.5-5.7-9.3-12.6-7.9-19.7c0.7-3.4,0.3-6.7-0.3-10"/>
<path id="Trazado_865" class="st6" d="M1221.7,112.6c0,13,5.7,20-4.3,24.9c-2,1-3.3,2.9-3.5,5.1"/>
<path id="Trazado_866" class="st6" d="M1052.6,181.7h-32.7c-3.4,0-6.1-2.8-6.1-6.1v-54.1"/>
<path id="Trazado_867" class="st9" d="M646.8,195c0,0-105.5,94.6-195.3,0"/>
<g id="Grupo_634" transform="translate(580.634 2178.46)">
	<rect id="Rectángulo_2096" x="-157.1" y="-2005.5" class="st4" width="31.6" height="11.4"/>
	<rect id="Rectángulo_2097" x="-121.1" y="-2075.5" class="st4" width="19.3" height="36"/>
	<rect id="Rectángulo_2098" x="-157.2" y="-2047.2" class="st4" width="31.6" height="21.9"/>
	<g id="Grupo_633">
		<g id="Grupo_632">
			<path id="Trazado_868" class="st6" d="M-83.6-1994.4c0.3-0.6,0.4-1.3,0.4-1.9c0-2.7-2.2-4.9-5-5c-0.3,0-0.6,0-0.8,0.1
				c-1.2-2.1-3.4-3.4-5.8-3.4c-2.4,0-4.6,1.3-5.8,3.4c-0.3,0-0.6-0.1-0.8-0.1c-2.7,0-4.9,2.2-5,5c0,0.6,0.1,1.1,0.3,1.7
				 M-101.8-2025.4h-7.9 M-109.7-2033.2h7.9 M-109.7-2019.2h7.9v7.8h-7.9V-2019.2z M-157.1-1994.6v-10.5h7.9 M-125.6-2011.4h-31.5
				v-7.8h31.5L-125.6-2011.4z M-149.2-2025.4h-7.9v-7.9 M-157.1-2036.7v-10.5h7.9 M-137-2053.5h-20.1v-21.8h20.1V-2053.5z
				 M-145.2-2005.2h7.9 M-137.3-2025.4h-11.9 M-149.2-2047.3h15.8 M-137.3-2005.2h11.9v10.5 M-125.5-2033.2v7.8h-7.9 M-133.4-2047.3
				h7.9v14 M-125.5-2053.5h-7.9v-7.9h7.9V-2053.5z M-125.5-2067.5h-7.9v-7.8h7.9V-2067.5z M-113.6-1994.6h-7.9v-10.5h7.9V-1994.6z
				 M-113.6-2011.4h-7.9v-7.8h7.9V-2011.4z M-113.6-2025.4h-7.9v-7.9h11.9 M-101.8-2039.5h-19.7v-35.9h19.7V-2039.5z"/>
			<path id="Trazado_869" class="st6" d="M-96.4-2013v-65.8c0-0.9-0.7-1.7-1.6-1.7h-11.6v-5c0-0.9-0.7-1.7-1.7-1.7h-11.6v-1.6
				c0-0.9-0.7-1.7-1.6-1.7h-9.9c-0.9,0-1.6,0.7-1.6,1.7v1.6h-11.6c-0.9,0-1.6,0.7-1.6,1.7v5h-11.6c-0.9,0-1.7,0.7-1.7,1.6
				c0,0,0,0,0,0v84.2h-22.4v-6.8c3.8-0.8,6.6-4.2,6.6-8.1c0-0.2-0.1-21.5-8.3-21.5s-8.3,21.2-8.3,21.5c0,3.9,2.8,7.3,6.6,8.1v6.8
				h-5.4"/>
		</g>
	</g>
</g>
<g id="Grupo_636" transform="translate(720.584 2341.256)">
	<path id="Trazado_903" class="st20" d="M-177.9-2069.7c-8.2-0.3-16.6-1.3-16.6-3.2v4.1c0,1.9,8.5,3.5,16.6,3.5s16.7-1.5,16.7-3.4
		l-0.2-4.3C-161.4-2071.1-169.8-2069.4-177.9-2069.7z"/>
	<path id="Trazado_904" class="st20" d="M-175.3-2076.1c-9.2,0-14.7-1.8-14.7-3.7v4.3c0,1.9,5.5,3.7,14.7,3.7s18.6-1.5,18.6-3.4
		v-4.1C-156.7-2077.4-166.1-2076.1-175.3-2076.1z"/>
	<path id="Trazado_905" class="st20" d="M-179.3-2082.4c-8.9,0.2-14-2.1-14.2-3.4v4.3c1.2,1.6,5.2,3.7,14.1,3.7s19-2,19-3.9l0.2-3.6
		C-162.2-2083.8-171-2082.6-179.3-2082.4z"/>
	<path id="Trazado_906" class="st21" d="M-183.3-2090.2c2-0.2,4.1-0.2,6.3-0.2c1.7,0,16.8,0.1,16.8,3.8c0,2.8-8.6,4.3-16.8,4.3
		s-16.8-1.5-16.8-4.3c0-1.3,1.8-2.3,5.5-3"/>
	<path id="Trazado_907" class="st22" d="M-160.3-2086.7v4.3c0,3-9.8,4.3-16.8,4.3s-16.8-1.3-16.8-4.3v-4.3"/>
	<path id="Trazado_908" class="st22" d="M-190.7-2079.9v-4.3"/>
	<path id="Trazado_909" class="st22" d="M-186.5-2078.9v-4.3"/>
	<path id="Trazado_910" class="st22" d="M-182.3-2078.1v-4.3"/>
	<path id="Trazado_911" class="st22" d="M-178-2078.1v-4.3"/>
	<path id="Trazado_912" class="st22" d="M-173.7-2078v-4.3"/>
	<path id="Trazado_913" class="st22" d="M-169.5-2078v-4.3"/>
	<path id="Trazado_914" class="st22" d="M-165.2-2079.2v-4.3"/>
	<path id="Trazado_915" class="st22" d="M-161.4-2080.7v-4.3"/>
	<path id="Trazado_916" class="st21" d="M-160.2-2082.7c2.1,0.6,3.5,1.4,3.5,2.5c0,2.8-8.6,4.3-16.8,4.3c-7.4,0-15.2-1.2-16.6-3.5"
		/>
	<path id="Trazado_917" class="st22" d="M-156.7-2080.3v4.3c0,3-9.8,4.3-16.8,4.3s-16.8-1.3-16.8-4.3v-3.8"/>
	<path id="Trazado_918" class="st22" d="M-187.1-2073.5v-4.3"/>
	<path id="Trazado_919" class="st22" d="M-182.8-2072.5v-4.3"/>
	<path id="Trazado_920" class="st22" d="M-178.6-2071.7v-4.3"/>
	<path id="Trazado_921" class="st22" d="M-174.3-2071.7v-4.3"/>
	<path id="Trazado_922" class="st22" d="M-170-2071.6v-4.3"/>
	<path id="Trazado_923" class="st22" d="M-165.8-2071.6v-4.3"/>
	<path id="Trazado_924" class="st22" d="M-161.6-2072.8v-4.3"/>
	<path id="Trazado_925" class="st22" d="M-157.7-2074.3v-4.3"/>
	<path id="Trazado_926" class="st21" d="M-162-2072.6c-2.2,1.9-9.3,3-16.1,3c-8.1,0-16.8-1.5-16.8-4.3c0-1.1,1.4-2,4.2-2.7"/>
	<path id="Trazado_927" class="st22" d="M-161.2-2072.8v3.1c0,3-9.8,4.3-16.8,4.3s-16.8-1.3-16.8-4.3v-4.3"/>
	<path id="Trazado_928" class="st22" d="M-191.7-2067.3v-4.3"/>
	<path id="Trazado_929" class="st22" d="M-187.4-2066.2v-4.3"/>
	<path id="Trazado_930" class="st22" d="M-183.2-2065.4v-4.3"/>
	<path id="Trazado_931" class="st22" d="M-178.9-2065.4v-4.3"/>
	<path id="Trazado_932" class="st22" d="M-174.6-2065.4v-4.3"/>
	<path id="Trazado_933" class="st22" d="M-170.4-2065.4v-4.3"/>
	<path id="Trazado_934" class="st22" d="M-166.2-2066.5v-4.3"/>
	<path id="Trazado_935" class="st22" d="M-162.3-2068v-4.3"/>
</g>
<g class="st5">
	<path d="M775.8,57.1h-1.3v3.4h-2.6v-10h5c2.2,0,3.5,1.5,3.5,3.3c0,1.7-1.1,2.7-2,3l2,3.7h-3L775.8,57.1z M776.5,52.7h-2v2.2h2
		c0.7,0,1.2-0.4,1.2-1.1C777.8,53.1,777.2,52.7,776.5,52.7z"/>
	<path d="M781.3,55.5c0-3.1,2.3-5.2,5.3-5.2c2.5,0,3.8,1.4,4.4,2.7l-2.2,1c-0.3-0.8-1.2-1.5-2.2-1.5c-1.6,0-2.7,1.3-2.7,2.9
		c0,1.6,1.2,2.9,2.7,2.9c1,0,1.9-0.7,2.2-1.5l2.2,1c-0.6,1.3-2,2.7-4.4,2.7C783.7,60.7,781.3,58.6,781.3,55.5z"/>
	<path d="M794.8,54.4v6h-2.6v-10h2.7l4,5.8v-5.8h2.6v10H799L794.8,54.4z"/>
	<path d="M806.6,55.5c0-3.1,2.3-5.2,5.3-5.2c2.5,0,3.8,1.4,4.4,2.7l-2.2,1c-0.3-0.8-1.2-1.5-2.2-1.5c-1.6,0-2.7,1.3-2.7,2.9
		c0,1.6,1.2,2.9,2.7,2.9c1,0,1.9-0.7,2.2-1.5l2.2,1c-0.6,1.3-2,2.7-4.4,2.7C809,60.7,806.6,58.6,806.6,55.5z"/>
	<path d="M817.5,53.2h2.3v0.9c0.5-0.6,1.4-1.1,2.3-1.1v2.2c-0.1,0-0.3-0.1-0.6-0.1c-0.6,0-1.4,0.3-1.7,0.7v4.6h-2.3V53.2z"/>
	<path d="M826.5,53.1c2.1,0,3.7,1.6,3.7,4v0.5H825c0.1,0.7,0.8,1.3,1.8,1.3c0.6,0,1.4-0.3,1.8-0.6l1,1.4c-0.7,0.6-1.9,1-3,1
		c-2.2,0-4-1.5-4-3.8C822.6,54.8,824.2,53.1,826.5,53.1z M825,56.1h3c-0.1-0.5-0.4-1.2-1.5-1.2C825.5,54.8,825.1,55.6,825,56.1z"/>
	<path d="M836.2,59.6c-0.6,0.7-1.3,1-2.1,1c-1.8,0-3.2-1.3-3.2-3.8c0-2.4,1.4-3.8,3.2-3.8c0.8,0,1.6,0.3,2.1,1v-3.6h2.3v10h-2.3
		V59.6z M836.2,55.7c-0.3-0.4-0.9-0.6-1.4-0.6c-0.9,0-1.6,0.7-1.6,1.8s0.7,1.8,1.6,1.8c0.5,0,1.1-0.3,1.4-0.7V55.7z"/>
	<path d="M840,51c0-0.7,0.6-1.3,1.3-1.3c0.7,0,1.3,0.6,1.3,1.3c0,0.7-0.6,1.3-1.3,1.3C840.6,52.3,840,51.7,840,51z M840.2,53.2h2.3
		v7.2h-2.3V53.2z"/>
	<path d="M844.6,58.5v-3.3h-1.2v-2h1.2v-2h2.3v2h1.5v2h-1.5v2.6c0,0.4,0.2,0.7,0.6,0.7c0.3,0,0.5-0.1,0.6-0.2l0.5,1.7
		c-0.3,0.3-0.9,0.5-1.7,0.5C845.4,60.7,844.6,59.9,844.6,58.5z"/>
	<path d="M862.2,53.7l-2.5,6.8h-1.1l-2.5-6.8v6.8h-2.6v-10h3.6l2.1,5.7l2.1-5.7h3.6v10h-2.6V53.7z"/>
	<path d="M870.8,59.8c-0.5,0.5-1.3,0.9-2.2,0.9c-1.1,0-2.5-0.8-2.5-2.4c0-1.8,1.4-2.3,2.5-2.3c1,0,1.8,0.3,2.2,0.8v-0.9
		c0-0.6-0.5-1-1.5-1c-0.7,0-1.5,0.3-2.1,0.8l-0.8-1.5c0.9-0.8,2.2-1.1,3.3-1.1c1.7,0,3.4,0.6,3.4,2.9v4.5h-2.3V59.8z M870.8,58
		c-0.2-0.3-0.8-0.5-1.3-0.5c-0.6,0-1.2,0.3-1.2,0.8s0.5,0.8,1.2,0.8c0.5,0,1-0.2,1.3-0.5V58z"/>
	<path d="M874.8,53.2h2.3v0.9c0.5-0.6,1.4-1.1,2.3-1.1v2.2c-0.1,0-0.3-0.1-0.6-0.1c-0.6,0-1.4,0.3-1.7,0.7v4.6h-2.3V53.2z"/>
	<path d="M883.4,57.9l-0.7,0.8v1.7h-2.3v-10h2.3v5.7l2.2-2.9h2.8l-2.7,3.3l2.8,3.9H885L883.4,57.9z"/>
	<path d="M891.8,53.1c2.1,0,3.7,1.6,3.7,4v0.5h-5.2c0.1,0.7,0.8,1.3,1.8,1.3c0.6,0,1.4-0.3,1.8-0.6l1,1.4c-0.7,0.6-1.9,1-3,1
		c-2.2,0-4-1.5-4-3.8C887.9,54.8,889.5,53.1,891.8,53.1z M890.3,56.1h3c-0.1-0.5-0.4-1.2-1.5-1.2C890.8,54.8,890.4,55.6,890.3,56.1z
		"/>
	<path d="M897.1,58.5v-3.3h-1.2v-2h1.2v-2h2.3v2h1.5v2h-1.5v2.6c0,0.4,0.2,0.7,0.6,0.7c0.3,0,0.5-0.1,0.6-0.2l0.5,1.7
		c-0.3,0.3-0.9,0.5-1.7,0.5C897.9,60.7,897.1,59.9,897.1,58.5z"/>
	<path d="M902,63.2v-10h2.3v0.8c0.6-0.7,1.3-1,2.1-1c1.8,0,3.2,1.3,3.2,3.8c0,2.5-1.4,3.8-3.2,3.8c-0.8,0-1.5-0.3-2.1-1v3.6H902z
		 M905.7,55.1c-0.5,0-1.1,0.3-1.4,0.7V58c0.3,0.4,0.9,0.7,1.4,0.7c0.9,0,1.6-0.7,1.6-1.8C907.3,55.8,906.6,55.1,905.7,55.1z"/>
	<path d="M910.9,50.5h2.3v10h-2.3V50.5z"/>
	<path d="M919.1,59.8c-0.5,0.5-1.3,0.9-2.2,0.9c-1.1,0-2.5-0.8-2.5-2.4c0-1.8,1.4-2.3,2.5-2.3c1,0,1.8,0.3,2.2,0.8v-0.9
		c0-0.6-0.5-1-1.5-1c-0.7,0-1.5,0.3-2.1,0.8l-0.8-1.5c0.9-0.8,2.2-1.1,3.3-1.1c1.7,0,3.4,0.6,3.4,2.9v4.5h-2.3V59.8z M919.1,58
		c-0.2-0.3-0.8-0.5-1.3-0.5c-0.6,0-1.2,0.3-1.2,0.8s0.5,0.8,1.2,0.8c0.5,0,1-0.2,1.3-0.5V58z"/>
	<path d="M926.6,53.1c1.6,0,2.5,0.7,3,1.3l-1.5,1.4c-0.3-0.4-0.8-0.7-1.4-0.7c-1,0-1.7,0.7-1.7,1.8s0.7,1.8,1.7,1.8
		c0.6,0,1.1-0.3,1.4-0.7l1.5,1.4c-0.4,0.6-1.4,1.3-3,1.3c-2.3,0-4-1.5-4-3.8C922.7,54.6,924.4,53.1,926.6,53.1z"/>
	<path d="M934,53.1c2.1,0,3.7,1.6,3.7,4v0.5h-5.2c0.1,0.7,0.8,1.3,1.8,1.3c0.6,0,1.4-0.3,1.8-0.6l1,1.4c-0.7,0.6-1.9,1-3,1
		c-2.2,0-4-1.5-4-3.8C930.2,54.8,931.7,53.1,934,53.1z M932.5,56.1h3c-0.1-0.5-0.4-1.2-1.5-1.2C933,54.8,932.6,55.6,932.5,56.1z"/>
</g>
<line id="Línea_1867" class="st23" x1="771.7" y1="66.6" x2="936.7" y2="66.6"/>
<path id="Polígono_18" class="st24" d="M166.2,138.6l-7,4v-8L166.2,138.6z"/>
<path id="Polígono_19" class="st24" d="M366.2,138.6l-7,4v-8L366.2,138.6z"/>
<path id="Polígono_20" class="st24" d="M599.2,138.6l-7,4v-8L599.2,138.6z"/>
<path id="Polígono_21" class="st24" d="M789.2,138.6l-7,4v-8L789.2,138.6z"/>
<path id="Polígono_22" class="st24" d="M995.2,138.6l-7,4v-8L995.2,138.6z"/>
<path id="Polígono_23" d="M1115.2,138.6l7-4v8L1115.2,138.6z"/>
<path id="Polígono_24" d="M456.1,193.6l-5.5,5.9l-2.3-7.7L456.1,193.6z"/>
<path id="Trazado_1252" class="st9" d="M1255.8,195c0,0-105.5,94.6-195.3,0"/>
<g id="Grupo_785" transform="translate(1329.584 2341.256)">
	<path id="Trazado_903-2" class="st20" d="M-177.9-2069.7c-8.2-0.3-16.6-1.3-16.6-3.2v4.1c0,1.9,8.5,3.5,16.6,3.5s16.7-1.5,16.7-3.4
		l-0.2-4.3C-161.4-2071.1-169.8-2069.4-177.9-2069.7z"/>
	<path id="Trazado_904-2" class="st20" d="M-175.3-2076.1c-9.2,0-14.7-1.8-14.7-3.7v4.3c0,1.9,5.5,3.7,14.7,3.7s18.6-1.5,18.6-3.4
		v-4.1C-156.7-2077.4-166.1-2076.1-175.3-2076.1z"/>
	<path id="Trazado_905-2" class="st20" d="M-179.3-2082.4c-8.9,0.2-14-2.1-14.2-3.4v4.3c1.2,1.6,5.2,3.7,14.1,3.7s19-2,19-3.9
		l0.2-3.6C-162.2-2083.8-171-2082.6-179.3-2082.4z"/>
	<path id="Trazado_906-2" class="st21" d="M-183.3-2090.2c2-0.2,4.1-0.2,6.3-0.2c1.7,0,16.8,0.1,16.8,3.8c0,2.8-8.6,4.3-16.8,4.3
		s-16.8-1.5-16.8-4.3c0-1.3,1.8-2.3,5.5-3"/>
	<path id="Trazado_907-2" class="st22" d="M-160.3-2086.7v4.3c0,3-9.8,4.3-16.8,4.3s-16.8-1.3-16.8-4.3v-4.3"/>
	<path id="Trazado_908-2" class="st22" d="M-190.7-2079.9v-4.3"/>
	<path id="Trazado_909-2" class="st22" d="M-186.5-2078.9v-4.3"/>
	<path id="Trazado_910-2" class="st22" d="M-182.3-2078.1v-4.3"/>
	<path id="Trazado_911-2" class="st22" d="M-178-2078.1v-4.3"/>
	<path id="Trazado_912-2" class="st22" d="M-173.7-2078v-4.3"/>
	<path id="Trazado_913-2" class="st22" d="M-169.5-2078v-4.3"/>
	<path id="Trazado_914-2" class="st22" d="M-165.2-2079.2v-4.3"/>
	<path id="Trazado_915-2" class="st22" d="M-161.4-2080.7v-4.3"/>
	<path id="Trazado_916-2" class="st21" d="M-160.2-2082.7c2.1,0.6,3.5,1.4,3.5,2.5c0,2.8-8.6,4.3-16.8,4.3c-7.4,0-15.2-1.2-16.6-3.5
		"/>
	<path id="Trazado_917-2" class="st22" d="M-156.7-2080.3v4.3c0,3-9.8,4.3-16.8,4.3s-16.8-1.3-16.8-4.3v-3.8"/>
	<path id="Trazado_918-2" class="st22" d="M-187.1-2073.5v-4.3"/>
	<path id="Trazado_919-2" class="st22" d="M-182.8-2072.5v-4.3"/>
	<path id="Trazado_920-2" class="st22" d="M-178.6-2071.7v-4.3"/>
	<path id="Trazado_921-2" class="st22" d="M-174.3-2071.7v-4.3"/>
	<path id="Trazado_922-2" class="st22" d="M-170-2071.6v-4.3"/>
	<path id="Trazado_923-2" class="st22" d="M-165.8-2071.6v-4.3"/>
	<path id="Trazado_924-2" class="st22" d="M-161.6-2072.8v-4.3"/>
	<path id="Trazado_925-2" class="st22" d="M-157.7-2074.3v-4.3"/>
	<path id="Trazado_926-2" class="st21" d="M-162-2072.6c-2.2,1.9-9.3,3-16.1,3c-8.1,0-16.8-1.5-16.8-4.3c0-1.1,1.4-2,4.2-2.7"/>
	<path id="Trazado_927-2" class="st22" d="M-161.2-2072.8v3.1c0,3-9.8,4.3-16.8,4.3s-16.8-1.3-16.8-4.3v-4.3"/>
	<path id="Trazado_928-2" class="st22" d="M-191.7-2067.3v-4.3"/>
	<path id="Trazado_929-2" class="st22" d="M-187.4-2066.2v-4.3"/>
	<path id="Trazado_930-2" class="st22" d="M-183.2-2065.4v-4.3"/>
	<path id="Trazado_931-2" class="st22" d="M-178.9-2065.4v-4.3"/>
	<path id="Trazado_932-2" class="st22" d="M-174.6-2065.4v-4.3"/>
	<path id="Trazado_933-2" class="st22" d="M-170.4-2065.4v-4.3"/>
	<path id="Trazado_934-2" class="st22" d="M-166.2-2066.5v-4.3"/>
	<path id="Trazado_935-2" class="st22" d="M-162.3-2068v-4.3"/>
</g>
<path id="Polígono_25" d="M1065.1,193.6l-5.5,5.9l-2.3-7.7L1065.1,193.6z"/>
</svg>
