<svg xmlns="http://www.w3.org/2000/svg" width="67.17" height="63.612" viewBox="0 0 67.17 63.612"><defs><style>.a{fill:#ffc400;}.a,.b,.c{stroke:#fff;stroke-linecap:round;stroke-linejoin:round;stroke-width:2px;}.b{fill:#4155ff;}.c{fill:none;}</style></defs><g transform="translate(-2688.715 -726.921)"><path class="a" d="M2759.932,777.454v-4.82H2756a15.057,15.057,0,0,0-2.656-6.476l2.759-2.76-3.408-3.408-2.752,2.752a15.05,15.05,0,0,0-6.484-2.694v-3.885h-4.82v3.885a15.056,15.056,0,0,0-6.485,2.694l-2.752-2.752L2726,763.4l2.76,2.76a15.033,15.033,0,0,0-2.656,6.476h-3.929v4.82h3.944a15.049,15.049,0,0,0,2.686,6.432l-2.8,2.8,3.408,3.408,2.812-2.812a15.036,15.036,0,0,0,6.425,2.649v3.989h4.82v-3.989a15.042,15.042,0,0,0,6.425-2.649l2.812,2.812,3.408-3.408-2.8-2.8a15.054,15.054,0,0,0,2.686-6.432Z" transform="translate(-5.047 -4.392)"/><circle class="b" cx="3.662" cy="3.662" r="3.662" transform="translate(2732.342 766.991)"/><path class="c" d="M2689.715,741.459V730.682a2.648,2.648,0,0,1,2.518-2.761h49.03a2.648,2.648,0,0,1,2.518,2.761V746.65" transform="translate(0)"/><path class="c" d="M2711.86,791.233h-19.385a2.761,2.761,0,0,1-2.761-2.761V753.9" transform="translate(0 -4.04)"/><line class="c" x2="28.28" transform="translate(2702.094 738.775)"/><line class="c" x2="10.369" transform="translate(2702.094 746.65)"/></g></svg>