<svg xmlns="http://www.w3.org/2000/svg" xmlns:xlink="http://www.w3.org/1999/xlink" width="60.103" height="72.586" viewBox="0 0 60.103 72.586"><defs><style>.a,.c,.e,.f{fill:none;}.b{clip-path:url(#a);}.c,.e,.f{stroke:#fff;stroke-width:2px;}.c,.e{stroke-linecap:round;}.c{stroke-linejoin:round;}.d{fill:#ffc400;}.e,.f{stroke-miterlimit:10;}</style><clipPath id="a"><rect class="a" width="60.103" height="72.586" transform="translate(0 0)"/></clipPath></defs><g transform="translate(0 0)"><g class="b"><path class="c" d="M12.488,9C7.943,11.773,5.481,13.21,1,12.348c0,0,.227,28.371,9.305,39.719S25.285,67.5,30.051,71.586C34.818,67.5,40.718,63.415,49.8,52.067S59.1,12.348,59.1,12.348c-5.9,1.135-8.3-1.716-16.568-6.355S35.083,1,30.051,1"/><line class="c" y2="12" transform="translate(30.052 1)"/><line class="c" y2="7.826" transform="translate(30.052 61.175)"/><path class="d" d="M26.555,46.14a6.215,6.215,0,1,0-6.216-6.215,6.216,6.216,0,0,0,6.216,6.215"/><path class="e" d="M36.422,43.175a6.215,6.215,0,1,0-3.566-11.569"/><path class="e" d="M32.831,27.012a6.215,6.215,0,0,0-11.174,3.747"/><path class="f" d="M26.555,46.14a6.215,6.215,0,1,0-6.216-6.215,6.216,6.216,0,0,0,6.216,6.215"/></g></g></svg>