<svg xmlns="http://www.w3.org/2000/svg" width="67.573" height="80.304" viewBox="0 0 67.573 80.304"><defs><style>.a,.c{fill:none;stroke-linecap:round;}.a,.b,.c{stroke:#fff;stroke-width:2px;}.a{stroke-linejoin:round;}.b{fill:#ffc400;}.b,.c{stroke-miterlimit:10;}</style></defs><g transform="translate(-1469.238 -196.957)"><path class="a" d="M1520,229.1h10.753a2.367,2.367,0,0,1,2.367,2.367v37.71"/><path class="a" d="M1473.241,269.077V231.465a2.367,2.367,0,0,1,2.367-2.367h12.582"/><path class="a" d="M1477.305,269.189l-7.067-.014v4.285a2.8,2.8,0,0,0,2.8,2.8h59.971a2.8,2.8,0,0,0,2.8-2.8v-4.187l-27.147-.04a18.809,18.809,0,0,1-13.627-.021l-6.475-.013"/><rect class="b" width="6.31" height="6.31" rx="1.682" transform="translate(1513.738 209.627) rotate(45)"/><rect class="b" width="6.31" height="6.31" rx="1.682" transform="translate(1503.905 198.371) rotate(45)"/><rect class="b" width="6.31" height="6.31" rx="1.682" transform="translate(1494.839 213.848) rotate(45)"/><line class="c" y1="22.293" transform="translate(1494.839 222.145)"/><line class="c" y1="31.15" transform="translate(1503.905 206.612)"/><line class="c" y1="18.399" transform="translate(1513.738 217.924)"/></g></svg>