<?xml version="1.0" encoding="utf-8"?>
<!-- Generator: Adobe Illustrator 23.0.6, SVG Export Plug-In . SVG Version: 6.00 Build 0)  -->
<svg version="1.1" id="Capa_1" xmlns="http://www.w3.org/2000/svg" xmlns:xlink="http://www.w3.org/1999/xlink" x="0px" y="0px"
	 viewBox="0 0 91 91" style="enable-background:new 0 0 91 91;" xml:space="preserve">
<style type="text/css">
	.st0{fill:#FFC400;}
	.st1{fill:#404FFF;}
</style>
<g id="Grupo_557" transform="translate(-2304.742 146.997)">
	<path class="st0" d="M2394.6-63.5v4.8c0,0.7-0.6,1.3-1.3,1.3h-41.6c-0.7,0-1.3-0.6-1.3-1.3v-41.5c0-0.7,0.6-1.3,1.3-1.3h41.6
		c0.7,0,1.3,0.6,1.3,1.3v37.1"/>
	<g>
		<path class="st1" d="M2353-78.1h-45.1c-0.5,0-0.9-0.4-0.9-0.9v-64.5c0-0.5,0.4-0.9,0.9-0.9h6.4c0.6,0,1.1-0.5,1.1-1.1
			c0-0.6-0.5-1.1-1.1-1.1h-6.4c-1.8,0-3.2,1.4-3.2,3.2V-79c0,1.8,1.4,3.2,3.2,3.2h45.1c0.6,0,1.1-0.5,1.1-1.1
			C2354.1-77.5,2353.6-78.1,2353-78.1z"/>
		<path class="st1" d="M2374.5-79.9c-0.6,0-1.1,0.5-1.1,1.1v0.6c0,0.1-0.1,0.2-0.2,0.2h-3.1c-0.6,0-1.1,0.5-1.1,1.1
			c0,0.6,0.5,1.1,1.1,1.1h3.1c1.3,0,2.4-1.1,2.4-2.5v-0.6C2375.7-79.4,2375.2-79.9,2374.5-79.9z"/>
		<path class="st1" d="M2364.4-78.1h-5.7c-0.6,0-1.1,0.5-1.1,1.1c0,0.6,0.5,1.1,1.1,1.1h5.7c0.6,0,1.1-0.5,1.1-1.1
			C2365.6-77.5,2365.1-78.1,2364.4-78.1z"/>
		<path class="st1" d="M2374.5-91.4c-0.6,0-1.1,0.5-1.1,1.1v5.7c0,0.6,0.5,1.1,1.1,1.1c0.6,0,1.1-0.5,1.1-1.1v-5.7
			C2375.7-90.9,2375.2-91.4,2374.5-91.4z"/>
	</g>
	<path class="st1" d="M2393.3-102.7C2393.3-102.7,2393.3-102.7,2393.3-102.7h-17.6v-40.8c0-1.8-1.4-3.2-3.2-3.2h-40.2
		c-0.6,0-1.1,0.5-1.1,1.1c0,0.6,0.5,1.1,1.1,1.1h40.2c0.5,0,0.9,0.4,0.9,0.9v40.8h-21.7c0,0,0,0,0,0c-0.7,0-1.3,0.3-1.7,0.7
		c-0.5,0.5-0.7,1.1-0.7,1.7v41.5c0,0.7,0.3,1.3,0.7,1.7c0.5,0.5,1.1,0.7,1.7,0.7c0,0,0,0,0,0h41.6c0,0,0,0,0,0
		c1.4,0,2.5-1.1,2.5-2.5v-41.5C2395.7-101.6,2394.6-102.7,2393.3-102.7z M2393.5-58.7c0,0.1-0.1,0.2-0.2,0.2h-41.6
		c-0.1,0-0.1,0-0.1-0.1c0,0-0.1-0.1-0.1-0.1v-41.5c0-0.1,0.1-0.2,0.2-0.2h21.7v4.4c0,0.6,0.5,1.1,1.1,1.1c0.6,0,1.1-0.5,1.1-1.1
		v-4.4h17.6c0.1,0,0.2,0.1,0.2,0.2V-58.7z"/>
</g>
</svg>
