<svg xmlns="http://www.w3.org/2000/svg" xmlns:xlink="http://www.w3.org/1999/xlink" width="80.556" height="70.875" viewBox="0 0 80.556 70.875"><defs><style>.a,.c,.d{fill:none;}.b{clip-path:url(#a);}.c{stroke:#ffc400;}.c,.d{stroke-miterlimit:10;stroke-width:2px;}.d{stroke:#4352ff;}</style><clipPath id="a"><rect class="a" width="80.556" height="70.875" transform="translate(0 0)"/></clipPath></defs><g transform="translate(0 0)"><g class="b"><line class="c" x2="21.166" transform="translate(0 36.162)"/><line class="c" x2="41.145" transform="translate(0 7.319)"/><line class="c" x2="55.521" transform="translate(0 63.702)"/><rect class="d" width="10.365" height="10.365" rx="2.438" transform="translate(20.088 36.162) rotate(-45)"/><line class="d" x2="46.86" transform="translate(33.696 36.162)"/><path class="d" d="M2.438,0H7.927a2.437,2.437,0,0,1,2.437,2.437V7.926a2.438,2.438,0,0,1-2.438,2.438H2.437A2.437,2.437,0,0,1,0,7.927V2.438A2.438,2.438,0,0,1,2.438,0Z" transform="matrix(0.707, -0.707, 0.707, 0.707, 40.357, 7.318)"/><line class="d" x2="26.495" transform="translate(54.061 7.319)"/><rect class="d" width="10.365" height="10.365" rx="2.438" transform="matrix(0.707, -0.707, 0.707, 0.707, 54.226, 63.557)"/><line class="d" x2="12" transform="translate(68.556 63.702)"/></g></g></svg>