<svg xmlns="http://www.w3.org/2000/svg" width="86.68" height="91.023" viewBox="0 0 86.68 91.023"><defs><style>.a{fill:#ffc400;}.a,.b,.c{stroke:#4352ff;stroke-linecap:round;stroke-width:2px;}.a,.b{stroke-miterlimit:10;}.b,.c{fill:none;}.c{stroke-linejoin:round;}</style></defs><g transform="translate(-1900.158 -311.956)"><path class="a" d="M1933.161,373.744a11.229,11.229,0,1,0-11.229-11.228,11.228,11.228,0,0,0,11.229,11.228" transform="translate(3.702 6.82)"/><path class="b" d="M1945.391,369.094a11.23,11.23,0,1,0-5.958-19.325" transform="translate(6.823 6.014)"/><path class="b" d="M1945.068,343.134a11.233,11.233,0,0,0-20.839,7.823" transform="translate(4.062 4.314)"/><path class="c" d="M1901.372,348.88a42.486,42.486,0,0,0,84.333,10.2" transform="translate(0 6.391)"/><path class="c" d="M1970.415,326.177a42.507,42.507,0,0,0-66.554,16.546" transform="translate(0.479 0.581)"/><path class="b" d="M1963,313.042l1.1,12.169a3.149,3.149,0,0,1-2.852,3.419l-12.17,1.1" transform="translate(8.542 0)"/></g></svg>