<svg xmlns="http://www.w3.org/2000/svg" width="91.374" height="84.923" viewBox="0 0 91.374 84.923"><defs><style>.a{fill:#ffc400;}.a,.b{stroke:#4155ff;stroke-linecap:round;stroke-miterlimit:10;stroke-width:2px;}.b{fill:none;}</style></defs><g transform="translate(-2372.563 -729.763)"><circle class="a" cx="14.194" cy="14.194" r="14.194" transform="translate(2413.073 767.06)"/><path class="b" d="M2403.852,781.882a14.412,14.412,0,0,1-2.139.16,14.195,14.195,0,1,1,9.669-24.588" transform="translate(4.012 6.669)"/><path class="b" d="M2403.185,750.121a14.2,14.2,0,0,1,26.342,9.89" transform="translate(8.577 3.467)"/><line class="b" x1="16.672" transform="translate(2374.86 774.516)"/><line class="b" x1="20.685" transform="translate(2436.617 753.588)"/><line class="b" x2="19.71" transform="translate(2441.462 781.255)"/><path class="b" d="M2438.12,764.228l5.518,6.051a2.112,2.112,0,0,1-.137,2.982l-6.053,5.518" transform="translate(18.561 9.751)"/><path class="b" d="M2379.818,773.779l-5.518-6.051a2.111,2.111,0,0,1,.138-2.982l6.052-5.518" transform="translate(0 8.294)"/><path class="b" d="M2435.51,742.385l5.518,6.051a2.109,2.109,0,0,1-.137,2.981l-6.051,5.518" transform="translate(17.801 3.386)"/><path class="b" d="M2447.243,784.5a41.466,41.466,0,0,1-64.84-2.707" transform="translate(2.521 14.869)"/><path class="b" d="M2379.87,753.046a41.48,41.48,0,0,1,59.811-15.3" transform="translate(1.783)"/></g></svg>