<svg xmlns="http://www.w3.org/2000/svg" xmlns:xlink="http://www.w3.org/1999/xlink" width="69.376" height="77.875" viewBox="0 0 69.376 77.875"><defs><style>.a,.d,.e,.f{fill:none;}.b{clip-path:url(#a);}.c{fill:#ffc400;}.d{stroke:#4352ff;}.d,.e,.f{stroke-miterlimit:10;stroke-width:2px;}.e,.f{stroke:#4155ff;}.f{stroke-dasharray:5.562 5.562;}</style><clipPath id="a"><rect class="a" width="69.376" height="77.875"/></clipPath></defs><g transform="translate(0 0)"><g class="b" transform="translate(0 0)"><path class="c" d="M63.9,17.3l5.476-5.476a3.442,3.442,0,0,1,4.864,0L79.717,17.3a3.44,3.44,0,0,1,0,4.864l-5.476,5.476a3.439,3.439,0,0,1-4.864,0L63.9,22.169a3.439,3.439,0,0,1,0-4.864" transform="translate(-13.82 -2.378)"/><path class="d" d="M63.9,17.3l5.476-5.476a3.442,3.442,0,0,1,4.864,0L79.717,17.3a3.44,3.44,0,0,1,0,4.864l-5.476,5.476a3.439,3.439,0,0,1-4.864,0L63.9,22.169A3.439,3.439,0,0,1,63.9,17.3Z" transform="translate(-13.82 -2.378)"/><path class="e" d="M44.926,34.806l3.959,3.787,3.787-3.959" transform="translate(-9.872 -7.611)"/><path class="e" d="M71.414,1H65.525A15.511,15.511,0,0,0,50.013,16.511V31.088" transform="translate(-10.99 -0.22)"/><path class="e" d="M5.99,90.422h6.543A15.511,15.511,0,0,0,28.043,74.911V60.652" transform="translate(-1.316 -13.328)"/><path class="e" d="M36.905,64.539l-3.788-3.958-3.958,3.788" transform="translate(-6.407 -13.312)"/><line class="e" x2="2.14" transform="translate(0 38.958)"/><line class="f" x2="58.584" transform="translate(6.481 38.958)"/><line class="e" x2="2.141" transform="translate(67.234 38.958)"/><path class="c" d="M6.588,67.9h7.744a3.44,3.44,0,0,1,3.439,3.439v7.744a3.439,3.439,0,0,1-3.439,3.439H6.588a3.439,3.439,0,0,1-3.439-3.439V71.343A3.439,3.439,0,0,1,6.588,67.9" transform="translate(-0.692 -14.921)"/><rect class="d" width="14.623" height="14.623" rx="4.408" transform="translate(2.457 52.983)"/></g></g></svg>