<svg xmlns="http://www.w3.org/2000/svg" width="85.258" height="80.713" viewBox="0 0 85.258 80.713"><defs><style>.a{fill:#ffc400;}.a,.b,.c{stroke:#4155ff;stroke-linecap:round;stroke-linejoin:round;stroke-width:2px;}.b{fill:#fff;}.c{fill:none;}</style></defs><g transform="translate(-2688.715 -726.921)"><path class="a" d="M2770.413,783.364v-6.158h-5.019a19.237,19.237,0,0,0-3.394-8.274l3.525-3.526-4.354-4.354-3.516,3.516a19.23,19.23,0,0,0-8.284-3.442v-4.963h-6.158v4.963a19.233,19.233,0,0,0-8.285,3.442l-3.516-3.516-4.354,4.354,3.526,3.526a19.213,19.213,0,0,0-3.394,8.274h-5.019v6.158h5.039a19.233,19.233,0,0,0,3.432,8.218l-3.583,3.583,4.354,4.354,3.593-3.593a19.207,19.207,0,0,0,8.208,3.384v5.1h6.158v-5.1a19.217,19.217,0,0,0,8.208-3.384l3.592,3.593,4.354-4.354-3.582-3.583a19.229,19.229,0,0,0,3.431-8.218Z" transform="translate(2.56 2.228)"/><circle class="b" cx="4.678" cy="4.678" r="4.678" transform="translate(2744.173 777.835)"/><path class="c" d="M2689.715,745.216V731.448a3.527,3.527,0,0,1,3.527-3.527h68.671a3.527,3.527,0,0,1,3.527,3.527v20.4" transform="translate(0)"/><path class="c" d="M2718.006,801.6h-24.765a3.527,3.527,0,0,1-3.527-3.527V753.9" transform="translate(0 2.049)"/><line class="c" x2="36.13" transform="translate(2705.53 741.787)"/><line class="c" x2="13.248" transform="translate(2705.53 751.849)"/></g></svg>