<svg xmlns="http://www.w3.org/2000/svg" width="90.673" height="90.674" viewBox="0 0 90.673 90.674"><defs><style>.a{fill:none;stroke-linecap:round;}.a,.b{stroke:#4352ff;stroke-miterlimit:10;stroke-width:2px;}.b{fill:#ffc400;}</style></defs><g transform="translate(1 1)"><path class="a" d="M2493.21,391.518l-24.031-24.032a11.961,11.961,0,0,1,0-16.916l32.374-32.375a11.964,11.964,0,0,1,16.917,0" transform="translate(-2465.676 -314.691)"/><path class="a" d="M2544.642,343.843a11.961,11.961,0,0,1,0,16.916l-32.374,32.375a11.962,11.962,0,0,1-16.917,0l-2.792-2.793" transform="translate(-2459.473 -307.965)"/><line class="a" x2="8.863" y2="8.863" transform="translate(58.07 8.778)"/><rect class="b" width="9.454" height="9.454" rx="1.682" transform="translate(33.085 28.782) rotate(45)"/><line class="a" y1="28.175" x2="26.374" transform="translate(30.175 31.656)"/><rect class="b" width="9.454" height="9.454" rx="1.682" transform="translate(54.399 50.096) rotate(45)"/></g></svg>