<svg xmlns="http://www.w3.org/2000/svg" width="91.489" height="62.652" viewBox="0 0 91.489 62.652"><defs><style>.a,.c{fill:none;stroke-linecap:round;}.a,.b,.c{stroke:#4352ff;stroke-width:2px;}.a{stroke-linejoin:round;}.b{fill:#ffc400;}.b,.c{stroke-miterlimit:10;}</style></defs><g transform="translate(-2665.706 -321.636)"><path class="a" d="M2697.189,329.511c-3.907,2.382-6.022,3.616-9.872,2.875,0,0,.195,24.379,8,34.129s12.872,13.262,16.967,16.772c4.1-3.51,9.167-7.02,16.967-16.772s8-34.129,8-34.129c-5.07.976-7.132-1.474-14.237-5.461s-6.4-4.29-10.727-4.29" transform="translate(-0.542 0)"/><line class="a" y2="10.312" transform="translate(2711.739 322.636)"/><rect class="b" width="6.144" height="6.144" rx="1.682" transform="translate(2711.739 347.014) rotate(45)"/><line class="c" y1="7.114" transform="translate(2711.825 339.501)"/><line class="a" y2="6.725" transform="translate(2711.739 374.342)"/><path class="a" d="M2737.009,364.042c1.3,1.124,2.453,2.03,3.51,2.936A69.387,69.387,0,0,0,2752.43,355.2c5.476-6.845,5.613-23.958,5.613-23.958-3.559.684-5.007-1.035-9.994-3.834s-4.495-3.012-7.53-3.012" transform="translate(-1.848 -0.046)"/><g transform="translate(2666.706 324.355)"><path class="a" d="M2677.788,361.34a70.335,70.335,0,0,1-5.47-6.136c-5.476-6.845-5.613-23.958-5.613-23.958,3.559.684,5.006-1.035,9.994-3.834s4.495-3.012,7.53-3.012" transform="translate(-2666.706 -324.401)"/><path class="a" d="M2688.446,364.686c-1.473,1.292-2.752,2.291-3.917,3.29-1.784-1.53-3.833-3.059-6.441-5.638" transform="translate(-2667.005 -325.398)"/></g></g></svg>