<svg xmlns="http://www.w3.org/2000/svg" xmlns:xlink="http://www.w3.org/1999/xlink" width="69.471" height="69.933" viewBox="0 0 69.471 69.933"><defs><style>.a,.c,.f{fill:none;}.b{clip-path:url(#a);}.c{stroke:#4155ff;}.c,.f{stroke-miterlimit:10;stroke-width:2px;}.d{fill:#f7f8fc;}.e{fill:#ffc400;}.f{stroke:#4352ff;}</style><clipPath id="a"><rect class="a" width="69.471" height="69.933"/></clipPath></defs><g transform="translate(0 0)"><g transform="translate(0 0)"><g class="b"><line class="c" y2="65.262" transform="translate(34.705 3.796)"/><line class="c" x2="19.941" transform="translate(24.734 69.058)"/></g></g><line class="c" y2="21.4" transform="translate(58.481 27.572)"/><g transform="translate(0 0)"><g class="b"><path class="c" d="M60.048,28.115a23.776,23.776,0,0,0-47.521-1.223V49.471" transform="translate(-1.567 -0.543)"/><path class="d" d="M39.145,8.311A3.655,3.655,0,1,1,42.8,4.655a3.655,3.655,0,0,1-3.656,3.655" transform="translate(-4.44 -0.125)"/><path class="c" d="M39.145,8.311A3.655,3.655,0,1,1,42.8,4.655,3.655,3.655,0,0,1,39.145,8.311Z" transform="translate(-4.44 -0.125)"/><path class="e" d="M2.13,48.145,8.27,42a3.859,3.859,0,0,1,5.454,0l6.14,6.14a3.857,3.857,0,0,1,0,5.454l-6.14,6.14a3.856,3.856,0,0,1-5.454,0L2.13,53.6a3.856,3.856,0,0,1,0-5.454" transform="translate(-0.125 -5.114)"/><rect class="f" width="16.396" height="16.396" rx="4.408" transform="translate(-0.723 45.759) rotate(-45.004)"/><path class="e" d="M56.682,48.145,62.822,42a3.859,3.859,0,0,1,5.454,0l6.14,6.14a3.857,3.857,0,0,1,0,5.454l-6.14,6.14a3.856,3.856,0,0,1-5.454,0l-6.14-6.14a3.856,3.856,0,0,1,0-5.454" transform="translate(-6.95 -5.114)"/><path class="f" d="M56.682,48.145,62.822,42a3.859,3.859,0,0,1,5.454,0l6.14,6.14a3.857,3.857,0,0,1,0,5.454l-6.14,6.14a3.856,3.856,0,0,1-5.454,0l-6.14-6.14A3.856,3.856,0,0,1,56.682,48.145Z" transform="translate(-6.95 -5.114)"/></g></g></g></svg>