<?xml version="1.0" encoding="utf-8"?>
<!-- Generator: Adobe Illustrator 23.0.6, SVG Export Plug-In . SVG Version: 6.00 Build 0)  -->
<svg version="1.1" id="Capa_1" xmlns="http://www.w3.org/2000/svg" xmlns:xlink="http://www.w3.org/1999/xlink" x="0px" y="0px"
	 viewBox="0 0 91 91" style="enable-background:new 0 0 91 91;" xml:space="preserve">
<style type="text/css">
	.st0{fill:#FFC400;}
	.st1{fill:#4155FF;}
</style>
<g>
	<path class="st0" d="M89.7,65.3v-6.6h-5.3c-0.5-3.2-1.7-6.2-3.6-8.8l3.7-3.7l-4.7-4.7l-3.6,3.8c-2.7-1.9-5.6-3.2-8.8-3.6v-5.3h-6.6
		v5.3c-3.2,0.5-6.2,1.8-8.8,3.6l-3.7-3.7l-4.7,4.7l3.7,3.7c-1.9,2.7-3.1,5.6-3.6,8.8h-5.3v6.6h5.3c0.5,3.2,1.8,6.2,3.6,8.7L43.4,78
		l4.7,4.7l3.8-3.8c2.6,1.9,5.5,3.1,8.7,3.6v5.4h6.6v-5.4c3.2-0.5,6.2-1.7,8.7-3.6l3.8,3.8l4.7-4.7L80.8,74c1.9-2.6,3.1-5.5,3.6-8.7
		H89.7z M64.1,67c-2.8,0-5-2.2-5-5c0-2.8,2.2-5,5-5c2.8,0,5,2.2,5,5C69.1,64.7,66.8,67,64.1,67z"/>
	<path class="st1" d="M67.4,88.8h-6.6c-0.6,0-1.1-0.4-1.1-1.1v-4.6c-2.7-0.5-5.2-1.6-7.6-3.1l-3.2,3.2c-0.4,0.4-1.1,0.4-1.5,0
		l-4.7-4.7c-0.2-0.2-0.3-0.4-0.3-0.7c0-0.3,0.1-0.5,0.3-0.7l3.2-3.2c-1.5-2.2-2.6-4.9-3.2-7.6h-4.5c-0.6,0-1.1-0.4-1.1-1.1v-6.6
		c0-0.6,0.4-1.1,1.1-1.1h4.5c0.5-2.7,1.6-5.3,3.1-7.7l-3.1-3.1c-0.2-0.2-0.3-0.4-0.3-0.7s0.1-0.5,0.3-0.7l4.7-4.7
		c0.2-0.2,0.4-0.3,0.7-0.3l0,0c0.3,0,0.5,0.1,0.7,0.3l3.1,3.1c2.3-1.5,4.9-2.7,7.7-3.2v-4.4c0-0.6,0.4-1.1,1.1-1.1h6.6
		c0.6,0,1.1,0.4,1.1,1.1v4.4c2.7,0.5,5.3,1.6,7.7,3.2l3.1-3.1c0.4-0.4,1.1-0.4,1.5,0l4.7,4.7c0.4,0.4,0.4,1.1,0,1.5L82.2,50
		c1.5,2.3,2.6,4.9,3.1,7.7h4.5c0.6,0,1.1,0.4,1.1,1.1v6.6c0,0.6-0.4,1.1-1.1,1.1h-4.5c-0.5,2.7-1.6,5.3-3.2,7.6l3.2,3.2
		c0.4,0.4,0.4,1.1,0,1.5l-4.7,4.7c-0.2,0.2-0.4,0.3-0.7,0.3l0,0c-0.3,0-0.5-0.1-0.7-0.3l-3.2-3.2c-2.2,1.5-4.9,2.6-7.6,3.1v4.6
		C68.4,88.3,67.9,88.8,67.4,88.8z M61.8,86.7h4.5v-4.4c0-0.5,0.4-1,0.9-1.1c3-0.4,5.9-1.7,8.3-3.4c0.4-0.3,1-0.2,1.4,0.1l3.1,3.1
		L83,78l-3-3.2c-0.3-0.3-0.4-1-0.1-1.4c1.8-2.5,3-5.3,3.5-8.3c0.1-0.5,0.5-0.9,1.1-0.9h4.3v-4.5h-4.3c-0.5,0-1-0.4-1.1-0.9
		c-0.4-3-1.7-5.9-3.4-8.3c-0.3-0.4-0.2-1,0.1-1.4l3-3L80,43.1l-3,3c-0.3,0.3-1,0.4-1.4,0.1c-2.5-1.8-5.3-3-8.4-3.5
		c-0.5-0.1-0.9-0.5-0.9-1.1v-4.3h-4.5v4.3c0,0.5-0.4,1-0.9,1.1c-3,0.5-5.9,1.7-8.4,3.5c-0.4,0.3-1,0.2-1.4-0.1l-3-3l-3.1,3.1l3,3
		c0.3,0.3,0.4,1,0.1,1.4c-1.8,2.5-3,5.3-3.4,8.3c-0.1,0.5-0.5,0.9-1.1,0.9h-4.3v4.5h4.3c0.5,0,1,0.4,1.1,0.9c0.5,3,1.7,5.9,3.5,8.3
		c0.3,0.4,0.2,1-0.1,1.4l-3.1,3.1l3.1,3.1l3.1-3.1c0.3-0.3,1-0.4,1.4-0.1c2.5,1.8,5.3,3,8.3,3.4c0.5,0.1,0.9,0.5,0.9,1.1v4.5H61.8z
		 M64.1,68.1c-3.3,0-6.1-2.7-6.1-6.1c0-3.4,2.7-6.1,6.1-6.1c3.4,0,6.1,2.7,6.1,6.1C70.1,65.4,67.4,68.1,64.1,68.1z M64.1,58.1
		c-2.1,0-3.9,1.7-3.9,3.9c0,2.1,1.7,3.9,3.9,3.9c2.2,0,3.9-1.7,3.9-3.9S66.2,58.1,64.1,58.1z"/>
</g>
<g id="Trazado_355">
	<path class="st1" d="M81.7,30.4c-0.6,0-1.1-0.4-1.1-1.1V7.6C80.7,6.1,79.5,5,78,5H4.8C3.3,4.9,2.1,6.1,2.1,7.6v14.7
		c0,0.6-0.4,1.1-1.1,1.1S0,23,0,22.3V7.6C0,5,2.1,2.8,4.8,2.8H78c2.7,0,4.8,2.1,4.8,4.8v21.7C82.8,29.9,82.3,30.4,81.7,30.4z"/>
</g>
<g id="Trazado_356">
	<path class="st1" d="M31.2,85.6H4.8c-2.7,0-4.8-2.1-4.8-4.8V33.7c0-0.6,0.4-1.1,1.1-1.1s1.1,0.4,1.1,1.1v47.1
		c0,1.5,1.2,2.7,2.7,2.7h26.4c0.6,0,1.1,0.4,1.1,1.1C32.3,85.2,31.8,85.6,31.2,85.6z"/>
</g>
<g id="Línea_1291">
	<path class="st1" d="M56.4,19.7H17.9c-0.6,0-1.1-0.4-1.1-1.1c0-0.6,0.4-1.1,1.1-1.1h38.5c0.6,0,1.1,0.4,1.1,1.1
		C57.4,19.2,57,19.7,56.4,19.7z"/>
</g>
<g id="Línea_1292">
	<path class="st1" d="M32,30.4H17.9c-0.6,0-1.1-0.4-1.1-1.1c0-0.6,0.4-1.1,1.1-1.1H32c0.6,0,1.1,0.4,1.1,1.1
		C33,30,32.6,30.4,32,30.4z"/>
</g>
</svg>
