<?xml version="1.0" encoding="utf-8"?>
<!-- Generator: Adobe Illustrator 23.0.6, SVG Export Plug-In . SVG Version: 6.00 Build 0)  -->
<svg version="1.1" id="Capa_1" xmlns="http://www.w3.org/2000/svg" xmlns:xlink="http://www.w3.org/1999/xlink" x="0px" y="0px"
	 viewBox="0 0 91 91" style="enable-background:new 0 0 91 91;" xml:space="preserve">
<style type="text/css">
	.st0{fill:#FFC400;}
	.st1{fill:#4155FF;}
</style>
<g id="Grupo_397" transform="translate(-2372.563 -729.763)">
	<circle class="st0" cx="2427.1" cy="784.3" r="14.2"/>
	<path class="st1" d="M2462.8,782.2l-5.5-6.1c-0.4-0.4-1-0.4-1.4-0.1c-0.4,0.4-0.4,1-0.1,1.4l5.3,5.8h-0.1h-18.8
		c-0.5-7.9-7.1-14.2-15.1-14.2c-8.4,0-15.2,6.8-15.2,15.2s6.8,15.2,15.2,15.2c8,0,14.6-6.3,15.1-14.2h18.8l0,0l-5.8,5.3
		c-0.4,0.4-0.4,1-0.1,1.4c0.2,0.2,0.5,0.3,0.7,0.3s0.5-0.1,0.7-0.3l6.1-5.5C2463.8,785.4,2463.9,783.5,2462.8,782.2z M2427.1,797.5
		c-7.3,0-13.2-5.9-13.2-13.2s5.9-13.2,13.2-13.2s13.2,5.9,13.2,13.2S2434.4,797.5,2427.1,797.5z"/>
	<path class="st1" d="M2415.9,766.4c-2.8-2.6-6.5-4.1-10.3-4.1l0,0c-4.1,0-7.9,1.6-10.7,4.5c-2.6,2.6-4.2,6.1-4.4,9.7h-15.2l5.8-5.3
		c0.4-0.4,0.4-1,0.1-1.4c-0.4-0.4-1-0.4-1.4-0.1l-6.1,5.5c-1.3,1.2-1.4,3.1-0.2,4.4l5.5,6.1c0.2,0.2,0.5,0.3,0.7,0.3
		s0.5-0.1,0.7-0.3c0.4-0.4,0.4-1,0.1-1.4l-5.4-5.9h15.4c0.5,7.9,7.1,14.2,15.1,14.2c0.8,0,1.5-0.1,2.3-0.2c0.5-0.1,0.9-0.6,0.8-1.1
		c-0.1-0.5-0.6-0.9-1.1-0.8c-0.7,0.1-1.3,0.1-2,0.1c-7.3,0-13.2-5.9-13.2-13.2l0,0l0,0c0-3.5,1.4-6.8,3.9-9.3s5.8-3.9,9.3-3.9l0,0
		c3.3,0,6.5,1.3,9,3.5c0.4,0.4,1,0.4,1.4-0.1C2416.3,767.4,2416.3,766.8,2415.9,766.4z"/>
	<path class="st1" d="M2459.1,754.2l-5.5-6.1c-0.4-0.4-1-0.4-1.4-0.1c-0.4,0.4-0.4,1-0.1,1.4l5.3,5.8H2437c-1.4-2.2-3.3-4-5.6-5.3
		c-7.4-4-16.6-1.2-20.6,6.1c-0.3,0.5-0.1,1.1,0.4,1.4c0.5,0.3,1.1,0.1,1.4-0.4c3.5-6.4,11.5-8.8,17.9-5.3c5.2,2.8,7.9,8.8,6.6,14.5
		c-0.1,0.5,0.2,1.1,0.8,1.2c0.1,0,0.1,0,0.2,0c0.5,0,0.9-0.3,1-0.8c0.7-3.2,0.4-6.5-0.9-9.4h19.3l-5.8,5.3c-0.4,0.4-0.4,1-0.1,1.4
		c0.2,0.2,0.5,0.3,0.7,0.3s0.5-0.1,0.7-0.3l6.1-5.5C2460.1,757.4,2460.2,755.4,2459.1,754.2z"/>
	<g id="Trazado_371">
		<path class="st1" d="M2418.2,817.7c-10.2,0-20-3.6-27.7-10.4c-2.4-2.1-4.6-4.5-6.5-7.1c-0.3-0.4-0.2-1.1,0.2-1.4
			c0.4-0.3,1.1-0.2,1.4,0.2c1.8,2.5,3.9,4.7,6.2,6.7c8.2,7.1,18.6,10.6,29.4,9.8c10.8-0.8,20.6-5.7,27.7-13.9c0.4-0.4,1-0.5,1.4-0.1
			s0.5,1,0.1,1.4c-7.4,8.6-17.7,13.8-29.1,14.7C2420.1,817.7,2419.2,817.7,2418.2,817.7z"/>
	</g>
	<g id="Trazado_372">
		<path class="st1" d="M2381.5,757.1c-0.2,0-0.3,0-0.5-0.1c-0.5-0.3-0.7-0.9-0.4-1.3c10.8-20.8,36.5-28.8,57.3-18
			c1.3,0.7,2.7,1.5,3.9,2.3c0.5,0.3,0.6,0.9,0.3,1.4s-0.9,0.6-1.4,0.3c-1.2-0.8-2.5-1.6-3.8-2.2c-19.8-10.3-44.3-2.6-54.6,17.2
			C2382.2,756.9,2381.8,757.1,2381.5,757.1z"/>
	</g>
</g>
</svg>
