<?xml version="1.0" encoding="utf-8"?>
<!-- Generator: Adobe Illustrator 23.0.6, SVG Export Plug-In . SVG Version: 6.00 Build 0)  -->
<svg version="1.1" id="Capa_1" xmlns="http://www.w3.org/2000/svg" xmlns:xlink="http://www.w3.org/1999/xlink" x="0px" y="0px"
	 viewBox="0 0 91 91" style="enable-background:new 0 0 91 91;" xml:space="preserve">
<style type="text/css">
	.st0{fill:#FFC400;}
	.st1{fill:#4352FF;}
</style>
<g id="Grupo_686" transform="translate(-1900.158 -311.956)">
	<g id="Trazado_251">
		<path class="st0" d="M1939.1,380.6c6.2,0,11.2-5,11.2-11.2c0-6.2-5-11.2-11.2-11.2c-6.2,0-11.2,5-11.2,11.2c0,0,0,0,0,0
			C1927.9,375.6,1932.9,380.6,1939.1,380.6C1939.1,380.6,1939.1,380.6,1939.1,380.6"/>
		<path class="st1" d="M1939.1,381.6c-6.8,0-12.3-5.5-12.3-12.2c0-6.8,5.5-12.3,12.3-12.3c6.8,0,12.3,5.5,12.3,12.3
			S1945.9,381.6,1939.1,381.6z M1939.1,359.1c-5.7,0-10.2,4.6-10.2,10.2s4.6,10.2,10.2,10.2h0c5.7,0,10.2-4.6,10.2-10.2
			S1944.8,359.1,1939.1,359.1z"/>
	</g>
	<g id="Trazado_252">
		<path class="st1" d="M1956.2,376.3c-0.6,0-1.2,0-1.9-0.1c-0.5-0.1-0.9-0.6-0.8-1.1c0.1-0.5,0.6-0.9,1.1-0.8
			c2.7,0.4,5.4-0.3,7.6-1.9c2.2-1.6,3.6-4,4.1-6.7c0.9-5.6-3-10.8-8.6-11.7c-3.1-0.5-6.2,0.5-8.5,2.6c-0.4,0.4-1,0.4-1.4-0.1
			c-0.4-0.4-0.4-1,0.1-1.4c2.8-2.6,6.5-3.7,10.2-3.1c6.7,1,11.3,7.3,10.3,14c-0.5,3.2-2.2,6.1-4.9,8
			C1961.4,375.5,1958.8,376.3,1956.2,376.3z"/>
	</g>
	<g id="Trazado_253">
		<path class="st1" d="M1930.6,356.3c-0.5,0-0.9-0.3-1-0.8c-1.2-5.3,1.3-10.9,6.1-13.5c2.9-1.6,6.2-1.9,9.3-1c3.1,0.9,5.7,3,7.3,5.9
			c0.3,0.5,0.1,1.1-0.4,1.4s-1.1,0.1-1.4-0.4c-1.3-2.4-3.5-4.2-6.1-5c-2.6-0.8-5.4-0.5-7.8,0.8c-4,2.2-6.1,6.8-5.1,11.3
			c0.1,0.5-0.2,1.1-0.8,1.2C1930.7,356.3,1930.6,356.3,1930.6,356.3z"/>
	</g>
	<g id="Trazado_254">
		<path class="st1" d="M1946,403c-1.4,0-2.8-0.1-4.3-0.2c-23.9-2.3-41.5-23.6-39.2-47.6c0.1-0.6,0.5-1,1.1-0.9
			c0.6,0.1,1,0.5,0.9,1.1c-2.2,22.8,14.6,43.2,37.4,45.4c22.1,2.1,41.9-13.4,45.1-35.4c0.1-0.5,0.6-0.9,1.1-0.8
			c0.5,0.1,0.9,0.6,0.8,1.1C1985.9,387.3,1967.4,403,1946,403z"/>
	</g>
	<path class="st1" d="M1974.9,312.9c0-0.6-0.5-0.9-1.1-0.9c-0.6,0-1,0.5-0.9,1.1l1.1,12.2c0,0.3,0,0.5-0.1,0.7c0,0,0,0,0-0.1
		c-18.5-15.4-46-12.9-61.4,5.6c-2.9,3.4-5.2,7.3-6.9,11.4c-0.2,0.5,0,1.1,0.5,1.3c0.1,0.1,0.3,0.1,0.4,0.1c0.4,0,0.8-0.2,0.9-0.6
		c1.6-3.9,3.8-7.6,6.5-10.9c7.1-8.5,17.1-13.8,28.2-14.8c11.1-1,21.8,2.4,30.4,9.5c-0.2,0.1-0.3,0.1-0.5,0.1l-12.2,1.1
		c-0.6,0-1,0.5-0.9,1.1c0,0.5,0.5,0.9,1,0.9c0,0,0.1,0,0.1,0l12.2-1.1c2.3-0.2,4-2.2,3.8-4.5L1974.9,312.9z"/>
</g>
</svg>
