<?xml version="1.0" encoding="utf-8"?>
<!-- Generator: Adobe Illustrator 23.0.6, SVG Export Plug-In . SVG Version: 6.00 Build 0)  -->
<svg version="1.1" id="Capa_1" xmlns="http://www.w3.org/2000/svg" xmlns:xlink="http://www.w3.org/1999/xlink" x="0px" y="0px"
	 viewBox="0 0 91 91" style="enable-background:new 0 0 91 91;" xml:space="preserve">
<style type="text/css">
	.st0{fill:#4352FF;}
	.st1{fill:#FFC400;}
</style>
<g id="Grupo_685" transform="translate(447.141 1.225)">
	<g id="Trazado_249">
		<path class="st0" d="M-418.4,77.8c-0.3,0-0.5-0.1-0.7-0.3l-24-24c-5.1-5.1-5.1-13.3,0-18.3l32.4-32.4c5.1-5.1,13.3-5.1,18.3,0
			c0.4,0.4,0.4,1,0,1.4s-1,0.4-1.4,0c-4.3-4.3-11.2-4.3-15.5,0l-32.4,32.4c-4.3,4.3-4.3,11.2,0,15.5l24,24c0.4,0.4,0.4,1,0,1.4
			C-417.9,77.7-418.2,77.8-418.4,77.8z"/>
	</g>
	<g id="Trazado_250">
		<path class="st0" d="M-401.6,89.6c-3.5,0-6.7-1.3-9.2-3.8l-2.8-2.8c-0.4-0.4-0.4-1,0-1.4c0.4-0.4,1-0.4,1.4,0l2.8,2.8
			c2.1,2.1,4.8,3.2,7.8,3.2c2.9,0,5.7-1.1,7.8-3.2l32.4-32.4c2.1-2.1,3.2-4.8,3.2-7.8c0-2.9-1.1-5.7-3.2-7.8c-0.4-0.4-0.4-1,0-1.4
			s1-0.4,1.4,0c5.1,5.1,5.1,13.3,0,18.3l-32.4,32.4C-394.9,88.3-398.2,89.6-401.6,89.6z"/>
	</g>
	<g id="Línea_948">
		<path class="st0" d="M-379,18.6c-0.3,0-0.5-0.1-0.7-0.3l-8.9-8.9c-0.4-0.4-0.4-1,0-1.4c0.4-0.4,1-0.4,1.4,0l8.9,8.9
			c0.4,0.4,0.4,1,0,1.4C-378.5,18.5-378.8,18.6-379,18.6z"/>
	</g>
	<g id="Rectángulo_1027">
		<path class="st1" d="M-411.7,29.9l4.3,4.3c0.7,0.7,0.7,1.7,0,2.4l-4.3,4.3c-0.7,0.7-1.7,0.7-2.4,0l-4.3-4.3
			c-0.7-0.7-0.7-1.7,0-2.4l4.3-4.3C-413.4,29.2-412.4,29.2-411.7,29.9z"/>
		<path class="st0" d="M-412.9,42.4c-0.7,0-1.4-0.3-1.9-0.8l-4.3-4.3c-1-1-1-2.7,0-3.8l4.3-4.3c1-1,2.7-1,3.8,0v0l4.3,4.3
			c0.5,0.5,0.8,1.2,0.8,1.9c0,0.7-0.3,1.4-0.8,1.9l-4.3,4.3C-411.5,42.1-412.2,42.4-412.9,42.4z M-412.9,30.4
			c-0.2,0-0.3,0.1-0.5,0.2l-4.3,4.3c-0.3,0.3-0.3,0.7,0,1l4.3,4.3c0.3,0.3,0.7,0.3,1,0l4.3-4.3c0.1-0.1,0.2-0.3,0.2-0.5
			c0-0.2-0.1-0.4-0.2-0.5l-4.3-4.3C-412.5,30.5-412.7,30.4-412.9,30.4z"/>
	</g>
	<g id="Línea_949">
		<path class="st0" d="M-415.8,60.8c-0.2,0-0.5-0.1-0.7-0.3c-0.4-0.4-0.4-1,0-1.4l26.4-28.2c0.4-0.4,1-0.4,1.4,0
			c0.4,0.4,0.4,1,0,1.4l-26.4,28.2C-415.3,60.7-415.5,60.8-415.8,60.8z"/>
	</g>
	<g id="Rectángulo_1028">
		<path class="st1" d="M-390.4,51.2l4.3,4.3c0.7,0.7,0.7,1.7,0,2.4l-4.3,4.3c-0.7,0.7-1.7,0.7-2.4,0l-4.3-4.3
			c-0.7-0.7-0.7-1.7,0-2.4l4.3-4.3C-392.1,50.6-391,50.6-390.4,51.2z"/>
		<path class="st0" d="M-391.6,63.7c-0.7,0-1.4-0.3-1.9-0.8l-4.3-4.3c-0.5-0.5-0.8-1.2-0.8-1.9c0-0.7,0.3-1.4,0.8-1.9l4.3-4.3
			c1-1,2.8-1,3.8,0l4.3,4.3c0.5,0.5,0.8,1.2,0.8,1.9c0,0.7-0.3,1.4-0.8,1.9l-4.3,4.3C-390.2,63.4-390.9,63.7-391.6,63.7z
			 M-391.6,51.7c-0.2,0-0.4,0.1-0.5,0.2l-4.3,4.3c-0.1,0.1-0.2,0.3-0.2,0.5c0,0.2,0.1,0.4,0.2,0.5l4.3,4.3c0.3,0.3,0.7,0.3,1,0
			l4.3-4.3c0.1-0.1,0.2-0.3,0.2-0.5c0-0.2-0.1-0.4-0.2-0.5l-4.3-4.3C-391.2,51.8-391.4,51.7-391.6,51.7z"/>
	</g>
</g>
</svg>
