<?xml version="1.0" encoding="utf-8"?>
<!-- Generator: Adobe Illustrator 23.0.6, SVG Export Plug-In . SVG Version: 6.00 Build 0)  -->
<svg version="1.1" id="Capa_1" xmlns="http://www.w3.org/2000/svg" xmlns:xlink="http://www.w3.org/1999/xlink" x="0px" y="0px"
	 viewBox="0 0 886.6 279.2" style="enable-background:new 0 0 886.6 279.2;" xml:space="preserve">
<style type="text/css">
	.st0{fill:#E8EDFC;}
	.st1{opacity:0.31;}
	.st2{clip-path:url(#SVGID_2_);}
	.st3{fill:none;stroke:#FFFFFF;stroke-width:4;stroke-linecap:round;stroke-miterlimit:10;}
	.st4{fill:#CAD9FC;}
	.st5{enable-background:new    ;}
	.st6{fill:none;stroke:#000000;stroke-linecap:round;stroke-linejoin:round;}
	.st7{fill:none;stroke:#4956FA;stroke-miterlimit:10;}
	.st8{fill:none;stroke:#211915;stroke-miterlimit:10;}
	.st9{fill:none;stroke:#4956FA;}
	.st10{fill:none;stroke:#A1AFD3;stroke-width:2;stroke-linecap:round;stroke-linejoin:round;}
	.st11{fill:#A1AFD3;}
	.st12{fill:#FFFFFF;}
	.st13{fill:none;stroke:#000000;stroke-linecap:round;stroke-miterlimit:10;}
	.st14{fill:#FFFFFF;stroke:#000000;stroke-linecap:round;stroke-linejoin:round;}
	.st15{fill:#141C27;}
	.st16{fill:#EDC620;stroke:#000000;stroke-miterlimit:10;}
	.st17{fill:#4956FA;stroke:#000000;stroke-miterlimit:10;}
	.st18{fill:none;stroke:#FDFDFF;stroke-linecap:round;stroke-linejoin:round;}
	.st19{fill:#4956FA;}
	.st20{fill:none;stroke:#000000;stroke-miterlimit:10;}
	.st21{fill:none;stroke:#211915;stroke-linecap:round;stroke-miterlimit:10;}
	.st22{fill:#4155FF;}
	.st23{fill:#D4E1F4;}
	.st24{fill:none;stroke:#211915;stroke-width:0.5;stroke-linecap:round;stroke-miterlimit:10;}
	.st25{fill:none;stroke:#211915;stroke-width:0.5;stroke-miterlimit:10;}
</style>
<rect id="Rectángulo_2366" x="244.2" y="1" class="st0" width="392" height="244.9"/>
<g id="Grupo_777" transform="translate(466.037 916.546)" class="st1">
	<g>
		<defs>
			<polygon id="SVGID_1_" points="170.1,-914.4 170.1,-670.7 -220,-670.7 -220.8,-914.4 			"/>
		</defs>
		<clipPath id="SVGID_2_">
			<use xlink:href="#SVGID_1_"  style="overflow:visible;"/>
		</clipPath>
		<g id="Grupo_620" class="st2">
			<g id="Grupo_619" transform="translate(-26.378 -382.116)">
				<line id="Línea_1688" class="st3" x1="-199.6" y1="-305" x2="304" y2="82.7"/>
				<line id="Línea_1689" class="st3" x1="-199.6" y1="-321.5" x2="304" y2="66.2"/>
				<line id="Línea_1690" class="st3" x1="-199.6" y1="-338" x2="304" y2="49.7"/>
				<line id="Línea_1691" class="st3" x1="-199.6" y1="-354.4" x2="304" y2="33.3"/>
				<line id="Línea_1692" class="st3" x1="-199.6" y1="-370.9" x2="304" y2="16.8"/>
				<line id="Línea_1693" class="st3" x1="-199.6" y1="-387.4" x2="304" y2="0.3"/>
				<line id="Línea_1694" class="st3" x1="-199.6" y1="-403.8" x2="304" y2="-16.2"/>
				<line id="Línea_1695" class="st3" x1="-199.6" y1="-420.3" x2="304" y2="-32.6"/>
				<line id="Línea_1696" class="st3" x1="-199.6" y1="-436.8" x2="304" y2="-49.1"/>
				<line id="Línea_1697" class="st3" x1="-199.6" y1="-453.2" x2="304" y2="-65.6"/>
				<line id="Línea_1698" class="st3" x1="-199.6" y1="-469.7" x2="304" y2="-82"/>
				<line id="Línea_1699" class="st3" x1="-199.6" y1="-486.2" x2="304" y2="-98.5"/>
				<line id="Línea_1700" class="st3" x1="-199.6" y1="-502.7" x2="304" y2="-115"/>
				<line id="Línea_1701" class="st3" x1="-199.6" y1="-519.1" x2="304" y2="-131.4"/>
				<line id="Línea_1702" class="st3" x1="-199.6" y1="-535.6" x2="304" y2="-147.9"/>
				<line id="Línea_1703" class="st3" x1="-199.6" y1="-568.5" x2="304" y2="-180.9"/>
				<line id="Línea_1704" class="st3" x1="-220.8" y1="-568.5" x2="282.8" y2="-180.9"/>
				<line id="Línea_1705" class="st3" x1="-199.6" y1="-585" x2="304" y2="-197.3"/>
				<line id="Línea_1706" class="st3" x1="-199.6" y1="-601.5" x2="304" y2="-213.8"/>
				<line id="Línea_1707" class="st3" x1="-199.6" y1="-617.9" x2="304" y2="-230.3"/>
				<line id="Línea_1708" class="st3" x1="-199.6" y1="-634.4" x2="304" y2="-246.7"/>
				<line id="Línea_1709" class="st3" x1="-199.6" y1="-650.9" x2="304" y2="-263.2"/>
				<line id="Línea_1710" class="st3" x1="-199.6" y1="-667.4" x2="304" y2="-279.7"/>
				<line id="Línea_1711" class="st3" x1="-199.6" y1="-683.8" x2="304" y2="-296.1"/>
				<line id="Línea_1712" class="st3" x1="-199.6" y1="-700.3" x2="304" y2="-312.6"/>
				<line id="Línea_1713" class="st3" x1="-199.6" y1="-716.8" x2="304" y2="-329.1"/>
				<line id="Línea_1714" class="st3" x1="-199.6" y1="-733.2" x2="304" y2="-345.6"/>
				<line id="Línea_1715" class="st3" x1="-199.6" y1="-749.7" x2="304" y2="-362"/>
				<line id="Línea_1716" class="st3" x1="-199.6" y1="-766.2" x2="304" y2="-378.5"/>
				<line id="Línea_1717" class="st3" x1="-199.6" y1="-782.6" x2="304" y2="-395"/>
				<line id="Línea_1718" class="st3" x1="-199.6" y1="-799.1" x2="304" y2="-411.4"/>
				<line id="Línea_1719" class="st3" x1="-199.6" y1="-815.6" x2="304" y2="-427.9"/>
				<line id="Línea_1720" class="st3" x1="-199.6" y1="-832.1" x2="304" y2="-444.4"/>
				<line id="Línea_1721" class="st3" x1="-199.6" y1="-848.5" x2="304" y2="-460.8"/>
				<line id="Línea_1722" class="st3" x1="-199.6" y1="-865" x2="304" y2="-477.3"/>
				<line id="Línea_1723" class="st3" x1="-199.6" y1="-881.5" x2="304" y2="-493.8"/>
				<line id="Línea_1724" class="st3" x1="-199.6" y1="-897.9" x2="304" y2="-510.2"/>
				<line id="Línea_1725" class="st3" x1="-199.6" y1="-914.4" x2="304" y2="-526.7"/>
			</g>
		</g>
	</g>
</g>
<path id="Trazado_1216" class="st4" d="M883.3,176c6.1,0.9,1.2-9-2.1-11.2c-2.9-1.9-5.2-7.2-2.5-9.9c4.3-4.2,6.8-16.1,0.5-19.2
	c-8.3-4.1-8-7.3-7.2-19.8c1-14.3-7.9-20.4-19-20.4c-0.8,0-1.6,0-2.4,0.1c9.9,1-9.4-3.3-9.4,8.4c0,12.6,11,18.3,19.3,22.4
	c-1.1,7.5,0,7.2,0,11.7c0,5.8-0.1,9.9-2.8,12c-3.2,9-6.6,3.3-3.9,13C862.9,174.2,881.6,169.6,883.3,176z"/>
<path id="Trazado_1217" class="st4" d="M829.9,162.9c2.6-9.7-0.1-4.2-3.3-13.3c-2.7-2.1-3.4-5.9-3.4-11.7c0-4.5,1.1-4.1,0-11.7
	c8.3-4.1,19.3-9.8,19.3-22.4c0-11.7-19.3-7.3-9.4-8.4c-0.8-0.1-1.6-0.1-2.4-0.1c-11.1,0-19,7.8-19,20.4s5.1,17.9-3.2,22
	c-6.3,3.1-4.8,12.6-1.6,15.7c4.8,4.7,1.4,10.6-1.6,12.6c-3.3,2.2-5.9,6.2-3.9,9.9C803,169.5,820.7,174.2,829.9,162.9z"/>
<g class="st5">
	<path d="M195.4,58.3H194v3.6h-2.8V51.2h5.3c2.4,0,3.7,1.6,3.7,3.6c0,1.9-1.1,2.8-2.1,3.2l2.2,3.9h-3.2L195.4,58.3z M196.2,53.5H194
		v2.4h2.2c0.7,0,1.3-0.5,1.3-1.2S196.9,53.5,196.2,53.5z"/>
	<path d="M204.9,54c2.3,0,4,1.7,4,4.3v0.5h-5.5c0.1,0.7,0.8,1.4,2,1.4c0.7,0,1.5-0.3,1.9-0.7l1,1.5c-0.8,0.7-2,1-3.2,1
		c-2.4,0-4.2-1.6-4.2-4.1C200.8,55.8,202.5,54,204.9,54z M203.3,57.2h3.2c-0.1-0.5-0.5-1.3-1.6-1.3
		C203.8,55.9,203.4,56.6,203.3,57.2z"/>
	<path d="M215.2,64.8V61c-0.6,0.8-1.4,1.1-2.3,1.1c-2,0-3.4-1.4-3.4-4.1c0-2.6,1.5-4,3.4-4c0.9,0,1.7,0.4,2.3,1.1v-0.9h2.4v10.7
		H215.2z M215.2,56.8c-0.3-0.4-1-0.7-1.5-0.7c-1,0-1.7,0.7-1.7,1.9c0,1.2,0.7,1.9,1.7,1.9c0.5,0,1.2-0.3,1.5-0.7V56.8z"/>
	<path d="M224.7,61c-0.5,0.5-1.4,1.1-2.7,1.1c-1.8,0-2.5-1-2.5-2.4v-5.5h2.5v4.5c0,0.9,0.5,1.2,1.3,1.2c0.7,0,1.2-0.4,1.5-0.8v-5
		h2.5v7.7h-2.5V61z"/>
	<path d="M232.6,54c2.3,0,4,1.7,4,4.3v0.5H231c0.1,0.7,0.8,1.4,2,1.4c0.7,0,1.5-0.3,1.9-0.7l1,1.5c-0.8,0.7-2,1-3.2,1
		c-2.4,0-4.2-1.6-4.2-4.1C228.4,55.8,230.1,54,232.6,54z M231,57.2h3.2c-0.1-0.5-0.5-1.3-1.6-1.3C231.5,55.9,231.1,56.6,231,57.2z"
		/>
	<path d="M238.1,59.2c0.6,0.5,1.8,1,2.7,1c0.7,0,1-0.2,1-0.6c0-0.4-0.5-0.5-1.3-0.7c-1.3-0.2-3.2-0.5-3.2-2.5c0-1.4,1.2-2.5,3.3-2.5
		c1.3,0,2.4,0.4,3.2,1l-0.9,1.6c-0.5-0.4-1.3-0.8-2.3-0.8c-0.6,0-1,0.2-1,0.5c0,0.4,0.4,0.5,1.2,0.6c1.3,0.2,3.3,0.5,3.3,2.6
		c0,1.5-1.3,2.6-3.5,2.6c-1.4,0-2.8-0.5-3.6-1.2L238.1,59.2z"/>
	<path d="M246,59.8v-3.5h-1.3v-2.1h1.3V52h2.4v2.1h1.6v2.1h-1.6v2.8c0,0.4,0.3,0.8,0.7,0.8c0.3,0,0.5-0.1,0.6-0.2l0.5,1.9
		c-0.3,0.3-0.9,0.5-1.8,0.5C246.8,62.1,246,61.3,246,59.8z"/>
	<path d="M254.8,54c2.3,0,4,1.7,4,4.3v0.5h-5.5c0.1,0.7,0.8,1.4,2,1.4c0.7,0,1.5-0.3,1.9-0.7l1,1.5c-0.8,0.7-2,1-3.2,1
		c-2.4,0-4.2-1.6-4.2-4.1C250.7,55.8,252.4,54,254.8,54z M253.2,57.2h3.2c-0.1-0.5-0.5-1.3-1.6-1.3
		C253.8,55.9,253.3,56.6,253.2,57.2z"/>
	<path d="M265.2,61c-0.6,0.7-1.4,1.1-2.3,1.1c-1.9,0-3.4-1.4-3.4-4.1c0-2.5,1.5-4,3.4-4c0.8,0,1.7,0.3,2.3,1.1v-3.9h2.4v10.7h-2.4
		V61z M265.2,56.8c-0.3-0.4-1-0.7-1.5-0.7c-1,0-1.7,0.7-1.7,1.9c0,1.2,0.7,1.9,1.7,1.9c0.5,0,1.2-0.3,1.5-0.7V56.8z"/>
	<path d="M273.6,51.2h2.8v8.3h4.3v2.4h-7V51.2z"/>
	<path d="M281.4,58c0-2.2,1.6-4,4.2-4c2.7,0,4.2,1.9,4.2,4c0,2.2-1.6,4.1-4.2,4.1C283,62.1,281.4,60.2,281.4,58z M287.3,58
		c0-1-0.6-1.9-1.7-1.9c-1.1,0-1.7,0.8-1.7,1.9c0,1,0.6,1.9,1.7,1.9C286.7,59.9,287.3,59.1,287.3,58z"/>
	<path d="M295.7,61.1c-0.5,0.6-1.4,1-2.4,1c-1.2,0-2.7-0.8-2.7-2.5c0-1.9,1.5-2.4,2.7-2.4c1,0,1.9,0.3,2.4,0.9v-1
		c0-0.7-0.6-1.1-1.6-1.1c-0.8,0-1.6,0.3-2.2,0.8l-0.9-1.6c1-0.8,2.3-1.2,3.5-1.2c1.9,0,3.6,0.7,3.6,3.1v4.8h-2.5V61.1z M295.7,59.2
		c-0.3-0.4-0.8-0.5-1.4-0.5c-0.7,0-1.2,0.3-1.2,0.9c0,0.6,0.6,0.9,1.2,0.9c0.5,0,1.1-0.2,1.4-0.6V59.2z"/>
	<path d="M305.2,57.4c0-0.9-0.5-1.3-1.3-1.3c-0.7,0-1.2,0.4-1.5,0.8v5H300v-7.7h2.5v0.9c0.5-0.5,1.4-1.1,2.7-1.1
		c1.8,0,2.6,1,2.6,2.4v5.5h-2.5V57.4z"/>
</g>
<g class="st5">
	<path d="M596.5,51.2h7.8v2.3h-5.1v1.8h5v2.3h-5v4.2h-2.8V51.2z"/>
	<path d="M611,61c-0.5,0.5-1.4,1.1-2.7,1.1c-1.8,0-2.5-1-2.5-2.4v-5.5h2.5v4.5c0,0.9,0.5,1.2,1.3,1.2c0.7,0,1.2-0.4,1.5-0.8v-5h2.5
		v7.7H611V61z"/>
	<path d="M620.5,57.4c0-0.9-0.5-1.3-1.3-1.3c-0.7,0-1.2,0.4-1.5,0.8v5h-2.5v-7.7h2.5v0.9c0.5-0.5,1.4-1.1,2.7-1.1
		c1.8,0,2.6,1,2.6,2.4v5.5h-2.5V57.4z"/>
	<path d="M629.9,61c-0.6,0.7-1.4,1.1-2.3,1.1c-1.9,0-3.4-1.4-3.4-4.1c0-2.5,1.5-4,3.4-4c0.8,0,1.7,0.3,2.3,1.1v-3.9h2.4v10.7h-2.4
		V61z M629.9,56.8c-0.3-0.4-1-0.7-1.5-0.7c-1,0-1.7,0.7-1.7,1.9c0,1.2,0.7,1.9,1.7,1.9c0.5,0,1.2-0.3,1.5-0.7V56.8z"/>
	<path d="M637.8,54c2.3,0,4,1.7,4,4.3v0.5h-5.5c0.1,0.7,0.8,1.4,2,1.4c0.7,0,1.5-0.3,1.9-0.7l1,1.5c-0.8,0.7-2,1-3.2,1
		c-2.4,0-4.2-1.6-4.2-4.1C633.7,55.8,635.4,54,637.8,54z M636.2,57.2h3.2c-0.1-0.5-0.5-1.3-1.6-1.3
		C636.7,55.9,636.3,56.6,636.2,57.2z"/>
	<path d="M648.2,61c-0.6,0.7-1.4,1.1-2.3,1.1c-1.9,0-3.4-1.4-3.4-4.1c0-2.5,1.5-4,3.4-4c0.8,0,1.7,0.3,2.3,1.1v-3.9h2.4v10.7h-2.4
		V61z M648.2,56.8c-0.3-0.4-1-0.7-1.5-0.7c-1,0-1.7,0.7-1.7,1.9c0,1.2,0.7,1.9,1.7,1.9c0.5,0,1.2-0.3,1.5-0.7V56.8z"/>
	<path d="M656.6,51.2h2.8v8.3h4.3v2.4h-7V51.2z"/>
	<path d="M664.4,58c0-2.2,1.6-4,4.2-4c2.7,0,4.2,1.9,4.2,4c0,2.2-1.6,4.1-4.2,4.1C666,62.1,664.4,60.2,664.4,58z M670.3,58
		c0-1-0.6-1.9-1.7-1.9c-1.1,0-1.7,0.8-1.7,1.9c0,1,0.6,1.9,1.7,1.9C669.7,59.9,670.3,59.1,670.3,58z"/>
	<path d="M678.7,61.1c-0.5,0.6-1.4,1-2.4,1c-1.2,0-2.7-0.8-2.7-2.5c0-1.9,1.5-2.4,2.7-2.4c1,0,1.9,0.3,2.4,0.9v-1
		c0-0.7-0.6-1.1-1.6-1.1c-0.8,0-1.6,0.3-2.2,0.8l-0.9-1.6c1-0.8,2.3-1.2,3.5-1.2c1.9,0,3.6,0.7,3.6,3.1v4.8h-2.5V61.1z M678.7,59.2
		c-0.3-0.4-0.8-0.5-1.4-0.5c-0.7,0-1.2,0.3-1.2,0.9c0,0.6,0.6,0.9,1.2,0.9c0.5,0,1.1-0.2,1.4-0.6V59.2z"/>
	<path d="M688.2,57.4c0-0.9-0.5-1.3-1.3-1.3c-0.7,0-1.2,0.4-1.5,0.8v5h-2.5v-7.7h2.5v0.9c0.5-0.5,1.4-1.1,2.7-1.1
		c1.8,0,2.6,1,2.6,2.4v5.5h-2.5V57.4z"/>
</g>
<g class="st5">
	<path d="M820.2,51.2h1.9v9h4.7v1.6h-6.6V51.2z"/>
	<path d="M831.6,54c2.3,0,3.8,1.8,3.8,4.2v0.4h-6c0.1,1.2,1,2.1,2.5,2.1c0.8,0,1.6-0.3,2.2-0.8l0.8,1.1c-0.8,0.7-1.9,1.1-3.1,1.1
		c-2.3,0-4-1.6-4-4.1C827.7,55.8,829.3,54,831.6,54z M829.4,57.4h4.4c0-0.9-0.7-2-2.2-2C830.2,55.3,829.5,56.4,829.4,57.4z"/>
	<path d="M842.3,57c0-1.2-0.6-1.6-1.6-1.6c-0.9,0-1.6,0.5-2,1v5.4h-1.7v-7.7h1.7v1.1c0.5-0.6,1.5-1.2,2.7-1.2c1.7,0,2.5,0.9,2.5,2.5
		v5.4h-1.7V57z"/>
	<path d="M851.6,60.8c-0.6,0.8-1.5,1.2-2.5,1.2c-2,0-3.4-1.5-3.4-4c0-2.5,1.4-4.1,3.4-4.1c1,0,1.9,0.4,2.5,1.3v-4h1.7v10.7h-1.7
		V60.8z M851.6,56.5c-0.4-0.6-1.2-1-2-1c-1.3,0-2.2,1.1-2.2,2.6c0,1.5,0.8,2.6,2.2,2.6c0.8,0,1.6-0.4,2-1V56.5z"/>
	<path d="M858.9,54c2.3,0,3.8,1.8,3.8,4.2v0.4h-6c0.1,1.2,1,2.1,2.5,2.1c0.8,0,1.6-0.3,2.2-0.8l0.8,1.1c-0.8,0.7-1.9,1.1-3.1,1.1
		c-2.3,0-4-1.6-4-4.1C855,55.8,856.6,54,858.9,54z M856.7,57.4h4.4c0-0.9-0.7-2-2.2-2C857.5,55.3,856.8,56.4,856.7,57.4z"/>
	<path d="M864.4,54.2h1.7v1.1c0.6-0.7,1.5-1.3,2.5-1.3v1.7c-0.1,0-0.3,0-0.5,0c-0.7,0-1.6,0.5-2,1v5.3h-1.7V54.2z"/>
</g>
<path id="Trazado_1218" class="st6" d="M244.7,195.5h-29.6c-3.4,0-6.1-2.8-6.1-6.1l0,0v-38.7"/>
<line id="Línea_1868" class="st7" x1="107.3" y1="138.5" x2="181.7" y2="138.5"/>
<line id="Línea_1869" class="st8" x1="789" y1="138.5" x2="714.6" y2="138.5"/>
<path id="Trazado_1254" class="st9" d="M304.1,138.5H371"/>
<line id="Línea_1871" class="st7" x1="503.4" y1="138.5" x2="577.8" y2="138.5"/>
<path id="Trazado_1219" class="st10" d="M636.1,217.7v28.2h-392v-26.5"/>
<path id="Trazado_1220" class="st10" d="M244.2,29.2V1h392v27.6"/>
<circle id="Elipse_231" class="st11" cx="244.1" cy="31" r="3.5"/>
<circle id="Elipse_232" class="st11" cx="636" cy="31" r="3.5"/>
<circle id="Elipse_233" class="st11" cx="244.1" cy="216.9" r="3.5"/>
<circle id="Elipse_234" class="st11" cx="636" cy="216.9" r="3.5"/>
<path id="Trazado_1255" class="st12" d="M218.4,82.7h68.5c2.2,0,4,1.8,4,4v101.1c0,2.2-1.8,4-4,4h-68.5c-2.2,0-4-1.8-4-4V86.7
	C214.4,84.5,216.2,82.7,218.4,82.7z"/>
<line id="Línea_1872" class="st13" x1="224.2" y1="118.2" x2="270" y2="118.2"/>
<line id="Línea_1873" class="st13" x1="224.2" y1="131" x2="252.7" y2="131"/>
<path id="Trazado_1221" class="st14" d="M270.8,164v-17.1h16.8v21.5l-8.1-4.3l-8.4,3.6"/>
<g class="st5">
	<path class="st15" d="M222.8,93.9h2.6v7.8h4v2.2h-6.6V93.9z"/>
	<path class="st15" d="M235.2,93.7c3.1,0,5.3,2.1,5.3,5.2s-2.3,5.2-5.3,5.2c-3.1,0-5.4-2.1-5.4-5.2S232.1,93.7,235.2,93.7z
		 M235.2,96c-1.7,0-2.7,1.3-2.7,2.9c0,1.6,1.1,2.9,2.7,2.9c1.6,0,2.7-1.3,2.7-2.9C237.9,97.3,236.8,96,235.2,96z"/>
	<path class="st15" d="M247.7,102.4h-4.2l-0.5,1.5h-2.8l3.8-10h3.2l3.8,10h-2.8L247.7,102.4z M244.3,100.2h2.8l-1.4-4.1L244.3,100.2
		z"/>
	<path class="st15" d="M254.4,97.9v6h-2.6v-10h2.7l4,5.8v-5.8h2.6v10h-2.5L254.4,97.9z"/>
</g>
<line id="Línea_1874" class="st13" x1="224.2" y1="144.6" x2="237.3" y2="144.6"/>
<circle id="Elipse_235" class="st16" cx="279.2" cy="143.8" r="11.7"/>
<path id="Trazado_1222" class="st6" d="M272.4,145.4l4.1,4.2l8.9-10.6"/>
<path id="Trazado_1223" class="st6" d="M214.1,115.2V86.8c0-2.5,2-4.5,4.5-4.5c0,0,0,0,0,0h67.9c2.5,0,4.5,2,4.5,4.5c0,0,0,0,0,0
	v42.6"/>
<path id="Trazado_1224" class="st6" d="M277.5,191.3h-58.9c-2.5,0-4.5-2-4.5-4.5v-67.4"/>
<line id="Línea_1875" class="st13" x1="224.1" y1="159.3" x2="235.3" y2="159.3"/>
<line id="Línea_1876" class="st13" x1="242.8" y1="159.3" x2="254.1" y2="159.3"/>
<path id="Rectángulo_2368" class="st12" d="M609.6,86.7h68.5c2.2,0,4,1.8,4,4v87.1c0,2.2-1.8,4-4,4h-68.5c-2.2,0-4-1.8-4-4V90.7
	C605.6,88.5,607.4,86.7,609.6,86.7z"/>
<line id="Línea_1877" class="st13" x1="618.4" y1="122.4" x2="664.2" y2="122.4"/>
<line id="Línea_1878" class="st13" x1="618.4" y1="135.2" x2="646.9" y2="135.2"/>
<g class="st5">
	<path class="st15" d="M617,98.1h2.6v7.8h4v2.2H617V98.1z"/>
	<path class="st15" d="M629.4,97.9c3.1,0,5.3,2.1,5.3,5.2s-2.3,5.2-5.3,5.2s-5.4-2.1-5.4-5.2S626.3,97.9,629.4,97.9z M629.4,100.2
		c-1.7,0-2.7,1.3-2.7,2.9c0,1.6,1.1,2.9,2.7,2.9c1.6,0,2.7-1.3,2.7-2.9C632.1,101.5,631,100.2,629.4,100.2z"/>
	<path class="st15" d="M641.9,106.6h-4.2l-0.5,1.5h-2.8l3.8-10h3.2l3.8,10h-2.8L641.9,106.6z M638.5,104.4h2.8l-1.4-4.1L638.5,104.4
		z"/>
	<path class="st15" d="M648.6,102v6H646v-10h2.7l4,5.8v-5.8h2.6v10h-2.5L648.6,102z"/>
</g>
<line id="Línea_1879" class="st13" x1="618.4" y1="148.8" x2="631.5" y2="148.8"/>
<line id="Línea_1880" class="st13" x1="618.7" y1="170.3" x2="629.9" y2="170.3"/>
<line id="Línea_1881" class="st13" x1="637.4" y1="170.3" x2="648.7" y2="170.3"/>
<path id="Trazado_1225" class="st6" d="M606.3,117.2V91c0-2.5,2-4.5,4.5-4.5h67.9c2.5,0,4.5,2,4.5,4.5v49.1"/>
<path id="Trazado_1226" class="st6" d="M654.9,182.5h-44.1c-2.5,0-4.5-2-4.5-4.5v-56"/>
<path id="Trazado_1227" class="st6" d="M663,181.8v-27h16.8v33.7l-8.1-6.7l-8.4,5.7"/>
<circle id="Elipse_236" class="st17" cx="671.4" cy="156" r="11.7"/>
<path id="Trazado_1228" class="st18" d="M664.7,157.4l4.1,4.2l8.9-10.6"/>
<path id="Trazado_1229" class="st19" d="M388.4,167.1v-61c0-3.2,2.6-5.7,5.7-5.7h88.6c3.2,0,5.7,2.6,5.7,5.7v61.2"/>
<path id="Trazado_1230" class="st6" d="M466.6,100.2h18c2.2,0,4,1.8,4,4v63.1"/>
<path id="Trazado_1231" class="st6" d="M388.4,167.1v-62.9c0-2.2,1.8-4,4-4H460"/>
<ellipse id="Elipse_237" class="st19" cx="436.7" cy="148.2" rx="24.6" ry="21.5"/>
<g id="Grupo_778" transform="translate(631.92 1026.817)">
	<g id="Grupo_622" transform="translate(3.126)">
		<path id="Trazado_835" class="st12" d="M-197-866.8c-13.1,0-23.8-10.7-23.8-23.8c0-13.1,10.7-23.8,23.8-23.8
			c13.1,0,23.8,10.7,23.8,23.8C-173.2-877.5-183.8-866.8-197-866.8z M-197-911.5c-11.5,0-20.9,9.4-20.9,20.9
			c0,11.5,9.4,20.9,20.9,20.9c11.5,0,20.9-9.4,20.9-20.9C-176.1-902.1-185.4-911.5-197-911.5z"/>
	</g>
	<g id="Grupo_629" transform="translate(0 6.098)">
		<g id="Grupo_625">
			<g id="Grupo_624">
				<g id="Grupo_623">
					<path id="Trazado_836" class="st12" d="M-219.3-884.9c-0.2,0-0.4,0-0.6-0.1c-0.7-0.3-1-1.2-0.7-1.9c0,0,0,0,0,0
						c4-8.5,11.5-14.5,21.7-17.2c4.6-1.3,9.4-1.8,14.2-1.7c0.8,0.1,1.4,0.7,1.3,1.5c-0.1,0.8-0.7,1.4-1.5,1.3c0,0,0,0,0,0
						c-4.5-0.1-9,0.4-13.4,1.6c-9.4,2.6-16.1,7.9-19.8,15.7C-218.3-885.3-218.8-884.9-219.3-884.9z"/>
					<path id="Trazado_837" class="st12" d="M-190.5-895.8l-2-2l6.6-6.6l-7.9-7.9l2-2l9.9,9.9L-190.5-895.8z"/>
				</g>
			</g>
		</g>
		<g id="Grupo_628" transform="translate(14.864 5.943)">
			<g id="Grupo_627">
				<g id="Grupo_626">
					<path id="Trazado_838" class="st12" d="M-216.2-893.4c-1,0-1.6,0-1.7,0c-0.8-0.1-1.4-0.7-1.3-1.5c0,0,0,0,0,0
						c0.1-0.8,0.7-1.4,1.5-1.3c0,0,0,0,0,0c4.5,0.1,9-0.4,13.4-1.6c9.4-2.6,16.1-7.9,19.8-15.7c0.3-0.7,1.2-1,1.9-0.7
						c0.7,0.3,1,1.2,0.7,1.9c0,0,0,0,0,0c-4,8.5-11.5,14.4-21.7,17.2C-207.7-894-212-893.4-216.2-893.4z"/>
					<path id="Trazado_839" class="st12" d="M-210.8-884.9l-9.9-9.9l8.7-8.7l2,2l-6.6,6.6l7.9,7.9L-210.8-884.9z"/>
				</g>
			</g>
		</g>
	</g>
</g>
<path id="Trazado_1232" class="st6" d="M395.2,167.2l-11.8,0v7.2c0,2.6,2.1,4.7,4.7,4.7h100.3c2.6,0,4.7-2.1,4.7-4.7c0,0,0,0,0,0v-7
	l-45.4-0.1c-3.6,1.4-7.5,2.1-11.4,2.1c-3.9,0-7.8-0.7-11.4-2.2l-24.2,0"/>
<path id="Trazado_1233" class="st0" d="M865.3,170c0,0.3-3.2,1.8-3.2,12.6c-1.7,0.7-4.8,0.4-6.5,0.6c3.2-4.2,5.2-14.5,5.3-14.8
	c1.1,1.5,2.1,1,3.4,1.7L865.3,170z"/>
<path id="Trazado_1234" class="st0" d="M828.3,183.4c-1.7-0.2-5.3,0-7-0.6c0-10.6-2.8-12.3-2.8-12.4c1.2-0.6,2.9-0.7,4-2.2l0,0.1
	C822.5,168.3,823.7,178.2,828.3,183.4z"/>
<path id="Trazado_1235" class="st20" d="M818.3,170.3c1.5,2.1,3.2,5.8,3.5,12.1c2.1,0.3,4.2,0.5,6.4,0.7c-3.7-4.6-5.2-11.1-5.8-14.6
	C821.1,169.3,819.8,169.8,818.3,170.3z"/>
<path id="Trazado_1236" class="st6" d="M861.1,168.5c-2.5-1.6-4.9-3.3-7.2-5.1c-1.6-1.6-1.5-4.7-1.4-7c-7.8,7.8-13.7,7.8-21.6,0
	c0.1,2.3,0.2,5.4-1.4,7c-2.3,1.9-4.7,3.6-7.2,5.2"/>
<path id="Trazado_1237" class="st20" d="M850,183.6"/>
<path id="Trazado_1238" class="st20" d="M828.2,183.2c5.4,0.3,21.7,0.3,27.1,0"/>
<path id="Trazado_1239" class="st20" d="M818.3,170.3c-2.7,0.6-8.9,1.8-11.7,1.8c-2.7,0-5.2,1.7-6.1,4.3c5.7,2.7,15.1,5.1,21.3,6"/>
<path id="Trazado_1240" class="st20" d="M861.8,182.5c6.3-0.9,15.8-3.3,21.5-6.1c-0.9-2.6-3.4-4.3-6.2-4.3c-2.8,0-9.1-1.3-11.8-1.9"
	/>
<path id="Trazado_1241" class="st20" d="M861.1,168.5c-0.6,3.5-2.1,10.1-5.8,14.7c2.2-0.2,4.4-0.4,6.4-0.7c0.3-6.4,2-10.2,3.5-12.2
	C863.9,169.8,862.5,169.2,861.1,168.5z"/>
<path id="Trazado_1242" class="st6" d="M872.5,114.6c0,13.8-2.4,16.2,5.1,19.9c7.5,3.8,6.5,15,2.1,19.4c-1.4,1.3-2.2,3.2-2,5.1
	c0.3,2.3,1.5,4.4,3.4,5.7c2.9,1.7,4.7,4.8,4.9,8.1 M866.2,128.7l-0.5-0.2 M803.9,142.7c-0.5,3.2,0.3,6.4,2.3,8.9
	c2.1,2,3.2,4.9,2.9,7.8c-0.4,3.3-2.2,6.3-4.9,8.2c-1.2,0.7-2.1,1.7-2.7,3"/>
<path id="Trazado_1243" class="st6" d="M813,107c3.9-6.3,9.7-11.6,17-11.4c6.7,0,10,2.1,11.7,4.1c1.7-2.1,5-4.1,11.7-4.1
	c13,0,19.1,5,19.1,19"/>
<path id="Trazado_1244" class="st6" d="M860.7,126.7c-0.6,3.5-1.1,6.7-0.4,10.2c1.3,6.2-0.5,10.5-4,15.3"/>
<path id="Trazado_1245" class="st6" d="M817.9,128.4c9.7-3.1,17.8-7.4,22.4-16.5c0.3-0.6,0.9-1,1.5-1c0.7,0,1.3,0.4,1.5,1
	c0.1,0.1,6.6,11.8,22.4,16.5"/>
<path id="Trazado_1246" class="st20" d="M831.2,156.6c-4.5-5.7-9.3-12.6-7.9-19.7c0.7-3.4,0.3-6.7-0.3-10"/>
<path id="Trazado_1247" class="st6" d="M811.7,112.6c0,13,5.7,20-4.3,24.9c-2,1-3.3,2.9-3.5,5.1"/>
<path id="Trazado_1248" class="st6" d="M640.6,186.7h-32.7c-3.4,0-6.1-2.8-6.1-6.1v-54.1"/>
<g class="st5">
	<path d="M363.8,57.1h-1.3v3.4h-2.6v-10h5c2.2,0,3.5,1.5,3.5,3.3c0,1.7-1.1,2.7-2,3l2,3.7h-3L363.8,57.1z M364.5,52.7h-2v2.2h2
		c0.7,0,1.2-0.4,1.2-1.1C365.8,53.1,365.2,52.7,364.5,52.7z"/>
	<path d="M369.3,55.5c0-3.1,2.3-5.2,5.3-5.2c2.5,0,3.8,1.4,4.4,2.7l-2.2,1c-0.3-0.8-1.2-1.5-2.2-1.5c-1.6,0-2.7,1.3-2.7,2.9
		c0,1.6,1.2,2.9,2.7,2.9c1,0,1.9-0.7,2.2-1.5l2.2,1c-0.6,1.3-1.9,2.7-4.4,2.7C371.7,60.7,369.3,58.6,369.3,55.5z"/>
	<path d="M382.8,54.4v6h-2.6v-10h2.7l4,5.8v-5.8h2.6v10H387L382.8,54.4z"/>
	<path d="M394.6,55.5c0-3.1,2.3-5.2,5.3-5.2c2.5,0,3.8,1.4,4.4,2.7l-2.2,1c-0.3-0.8-1.2-1.5-2.2-1.5c-1.6,0-2.7,1.3-2.7,2.9
		c0,1.6,1.2,2.9,2.7,2.9c1,0,1.9-0.7,2.2-1.5l2.2,1c-0.6,1.3-1.9,2.7-4.4,2.7C397,60.7,394.6,58.6,394.6,55.5z"/>
	<path d="M405.5,53.2h2.3v0.9c0.5-0.6,1.4-1.1,2.3-1.1v2.2c-0.1,0-0.3-0.1-0.6-0.1c-0.6,0-1.4,0.3-1.7,0.7v4.6h-2.3V53.2z"/>
	<path d="M414.5,53.1c2.1,0,3.7,1.6,3.7,4v0.5H413c0.1,0.7,0.8,1.3,1.8,1.3c0.6,0,1.4-0.3,1.8-0.6l1,1.4c-0.7,0.6-1.9,1-3,1
		c-2.2,0-4-1.5-4-3.8C410.6,54.8,412.2,53.1,414.5,53.1z M413,56.1h3c-0.1-0.5-0.4-1.2-1.5-1.2C413.5,54.8,413.1,55.6,413,56.1z"/>
	<path d="M424.2,59.6c-0.6,0.7-1.3,1-2.1,1c-1.8,0-3.2-1.3-3.2-3.8c0-2.4,1.4-3.8,3.2-3.8c0.8,0,1.6,0.3,2.1,1v-3.6h2.3v10h-2.3
		V59.6z M424.2,55.7c-0.3-0.4-0.9-0.6-1.4-0.6c-0.9,0-1.6,0.7-1.6,1.8s0.7,1.8,1.6,1.8c0.5,0,1.1-0.3,1.4-0.7V55.7z"/>
	<path d="M428,51c0-0.7,0.6-1.3,1.3-1.3c0.7,0,1.3,0.6,1.3,1.3c0,0.7-0.6,1.3-1.3,1.3C428.6,52.3,428,51.7,428,51z M428.2,53.2h2.3
		v7.2h-2.3V53.2z"/>
	<path d="M432.6,58.5v-3.3h-1.2v-2h1.2v-2h2.3v2h1.5v2h-1.5v2.6c0,0.4,0.2,0.7,0.6,0.7c0.3,0,0.5-0.1,0.6-0.2l0.5,1.7
		c-0.3,0.3-0.9,0.5-1.7,0.5C433.4,60.7,432.6,59.9,432.6,58.5z"/>
	<path d="M450.2,53.7l-2.5,6.8h-1.1l-2.5-6.8v6.8h-2.6v-10h3.6l2.1,5.7l2.1-5.7h3.6v10h-2.6V53.7z"/>
	<path d="M458.8,59.8c-0.5,0.5-1.3,0.9-2.2,0.9c-1.1,0-2.5-0.8-2.5-2.4c0-1.8,1.4-2.3,2.5-2.3c1,0,1.8,0.3,2.2,0.8v-0.9
		c0-0.6-0.5-1-1.5-1c-0.7,0-1.5,0.3-2.1,0.8l-0.8-1.5c0.9-0.8,2.2-1.1,3.3-1.1c1.7,0,3.4,0.6,3.4,2.9v4.5h-2.3V59.8z M458.8,58
		c-0.2-0.3-0.8-0.5-1.3-0.5c-0.6,0-1.2,0.3-1.2,0.8s0.5,0.8,1.2,0.8c0.5,0,1-0.2,1.3-0.5V58z"/>
	<path d="M462.8,53.2h2.3v0.9c0.5-0.6,1.4-1.1,2.3-1.1v2.2c-0.1,0-0.3-0.1-0.6-0.1c-0.6,0-1.4,0.3-1.7,0.7v4.6h-2.3V53.2z"/>
	<path d="M471.5,57.9l-0.7,0.8v1.7h-2.3v-10h2.3v5.7l2.2-2.9h2.8l-2.7,3.3l2.8,3.9H473L471.5,57.9z"/>
	<path d="M479.8,53.1c2.1,0,3.7,1.6,3.7,4v0.5h-5.2c0.1,0.7,0.8,1.3,1.8,1.3c0.6,0,1.4-0.3,1.8-0.6l1,1.4c-0.7,0.6-1.9,1-3,1
		c-2.2,0-4-1.5-4-3.8C475.9,54.8,477.5,53.1,479.8,53.1z M478.3,56.1h3c-0.1-0.5-0.4-1.2-1.5-1.2C478.8,54.8,478.4,55.6,478.3,56.1z
		"/>
	<path d="M485.1,58.5v-3.3h-1.2v-2h1.2v-2h2.3v2h1.5v2h-1.5v2.6c0,0.4,0.2,0.7,0.6,0.7c0.3,0,0.5-0.1,0.6-0.2l0.5,1.7
		c-0.3,0.3-0.9,0.5-1.7,0.5C485.9,60.7,485.1,59.9,485.1,58.5z"/>
	<path d="M490,63.2v-10h2.3v0.8c0.6-0.7,1.3-1,2.1-1c1.8,0,3.2,1.3,3.2,3.8c0,2.5-1.4,3.8-3.2,3.8c-0.8,0-1.5-0.3-2.1-1v3.6H490z
		 M493.7,55.1c-0.5,0-1.1,0.3-1.4,0.7V58c0.3,0.4,0.9,0.7,1.4,0.7c0.9,0,1.6-0.7,1.6-1.8C495.3,55.8,494.6,55.1,493.7,55.1z"/>
	<path d="M498.9,50.5h2.3v10h-2.3V50.5z"/>
	<path d="M507.2,59.8c-0.5,0.5-1.3,0.9-2.2,0.9c-1.1,0-2.5-0.8-2.5-2.4c0-1.8,1.4-2.3,2.5-2.3c1,0,1.8,0.3,2.2,0.8v-0.9
		c0-0.6-0.5-1-1.5-1c-0.7,0-1.5,0.3-2.1,0.8l-0.8-1.5c0.9-0.8,2.2-1.1,3.3-1.1c1.7,0,3.4,0.6,3.4,2.9v4.5h-2.3V59.8z M507.2,58
		c-0.2-0.3-0.8-0.5-1.3-0.5c-0.6,0-1.2,0.3-1.2,0.8s0.5,0.8,1.2,0.8c0.5,0,1-0.2,1.3-0.5V58z"/>
	<path d="M514.6,53.1c1.6,0,2.5,0.7,3,1.3l-1.5,1.4c-0.3-0.4-0.8-0.7-1.4-0.7c-1,0-1.7,0.7-1.7,1.8s0.7,1.8,1.7,1.8
		c0.6,0,1.1-0.3,1.4-0.7l1.5,1.4c-0.4,0.6-1.4,1.3-3,1.3c-2.3,0-4-1.5-4-3.8C510.7,54.6,512.4,53.1,514.6,53.1z"/>
	<path d="M522,53.1c2.1,0,3.7,1.6,3.7,4v0.5h-5.2c0.1,0.7,0.8,1.3,1.8,1.3c0.6,0,1.4-0.3,1.8-0.6l1,1.4c-0.7,0.6-1.9,1-3,1
		c-2.2,0-4-1.5-4-3.8C518.2,54.8,519.8,53.1,522,53.1z M520.5,56.1h3c-0.1-0.5-0.4-1.2-1.5-1.2C521,54.8,520.6,55.6,520.5,56.1z"/>
</g>
<line id="Línea_1882" class="st21" x1="359.7" y1="66.6" x2="524.7" y2="66.6"/>
<g class="st5">
	<path d="M10.3,47.4h4.9c1.8,0,2.8,1.1,2.8,2.5c0,1.3-0.8,2.1-1.7,2.3c1.1,0.2,1.9,1.2,1.9,2.5c0,1.5-1,2.7-2.9,2.7h-5.1V47.4z
		 M14.8,51.5c0.9,0,1.4-0.5,1.4-1.3s-0.5-1.3-1.4-1.3H12v2.6H14.8z M14.9,55.8c1,0,1.5-0.5,1.5-1.4c0-0.8-0.5-1.4-1.5-1.4H12v2.8
		H14.9z"/>
	<path d="M19.5,53.7c0-2.1,1.4-3.8,3.7-3.8c2.3,0,3.7,1.7,3.7,3.8c0,2.1-1.4,3.8-3.7,3.8C20.9,57.6,19.5,55.8,19.5,53.7z M25.3,53.7
		c0-1.3-0.8-2.4-2.1-2.4c-1.3,0-2.1,1.1-2.1,2.4c0,1.3,0.8,2.4,2.1,2.4C24.6,56.2,25.3,55,25.3,53.7z"/>
	<path d="M28.6,50.1h1.6v1.1c0.5-0.7,1.4-1.2,2.4-1.2v1.6c-0.1,0-0.3,0-0.5,0c-0.7,0-1.5,0.5-1.9,1v4.9h-1.6V50.1z"/>
	<path d="M33.8,50.1h1.6v1.1c0.5-0.7,1.4-1.2,2.4-1.2v1.6c-0.1,0-0.3,0-0.5,0c-0.7,0-1.5,0.5-1.9,1v4.9h-1.6V50.1z"/>
	<path d="M38.5,53.7c0-2.1,1.4-3.8,3.7-3.8c2.3,0,3.7,1.7,3.7,3.8c0,2.1-1.4,3.8-3.7,3.8C39.9,57.6,38.5,55.8,38.5,53.7z M44.3,53.7
		c0-1.3-0.8-2.4-2.1-2.4c-1.3,0-2.1,1.1-2.1,2.4c0,1.3,0.8,2.4,2.1,2.4C43.6,56.2,44.3,55,44.3,53.7z"/>
	<path d="M52.2,52.1l-1.7,5.3h-1.6l-2.2-7.2h1.6l1.5,5.3l1.7-5.3h1.4l1.7,5.3l1.5-5.3h1.6l-2.2,7.2h-1.6L52.2,52.1z"/>
	<path d="M62.1,49.9c2.2,0,3.6,1.7,3.6,3.9v0.4h-5.6c0.1,1.1,0.9,2,2.3,2c0.7,0,1.5-0.3,2.1-0.8l0.7,1c-0.7,0.7-1.8,1-2.9,1
		c-2.2,0-3.8-1.5-3.8-3.8C58.4,51.6,59.9,49.9,62.1,49.9z M60.1,53.2h4.1c0-0.9-0.6-1.9-2-1.9C60.7,51.2,60.1,52.3,60.1,53.2z"/>
	<path d="M67.2,50.1h1.6v1.1c0.5-0.7,1.4-1.2,2.4-1.2v1.6c-0.1,0-0.3,0-0.5,0c-0.7,0-1.5,0.5-1.9,1v4.9h-1.6V50.1z"/>
</g>
<g id="Grupo_782" transform="translate(220.999 999.276)">
	<path id="Trazado_958" class="st0" d="M-159.9-833c4,1.7,4.3,0.3,10.8,3.8c1.8,0.9,5.8,2.9,7.1,3.5c-7,4-19.5,5.8-27.7,6.4
		C-162-821.4-160.2-830.2-159.9-833z"/>
	<g id="Grupo_648">
		<path id="Trazado_959" class="st0" d="M-193.1-819.4c-8.2-0.6-20.7-2.4-27.7-6.4c1.3-0.6,5.3-2.6,7.1-3.5
			c6.5-3.5,6.8-2.1,10.8-3.8C-202.6-830.4-200.8-821.6-193.1-819.4z"/>
		<path id="Trazado_960" class="st4" d="M-153-891.3c0,3.7-1,7.3-2.8,10.4l0,0c-0.4-0.2-0.8-0.3-1.2-0.2c-1-0.1-1.9,0.1-2.7,0.7
			c-0.8,0.6-1.3-1-1.4-0.1c0-0.4-0.1-2.1-0.1-0.3c-1-15.1-8.1-16.8-8.1-16.8c-3.6,5.3-9.5,8.7-15.9,9.3h-9.2c-4.1,0-7.1,1.5-7.3,5.1
			c0,0.5,0,1.2,0,1.9c0,0.5-0.4,0.9-0.9,0.9c-0.2,0-0.3,0-0.4-0.1c-0.7-0.4-1.5-0.5-2.3-0.5c-1.5-3.7-2.3-7.7-2.3-11.7
			c0-11,11-21.3,24.2-21.3c13.2,0,18.4,8.4,18.4,8.4h0.6C-164.5-905.6-153-905.1-153-891.3L-153-891.3z"/>
		<g id="Grupo_647" transform="translate(0.274)">
			<path id="Trazado_961" class="st6" d="M-158.9-878.1L-158.9-878.1c-1.8,0-2.1,1-2.2,1.5"/>
			<path id="Trazado_962" class="st6" d="M-161.6-866.1c1.6-1.4,2.7-3.3,2.9-5.4c0-0.1,0-0.1,0-0.2c0.6-2.8,0.4-5.7,0-6.4
				c-0.1,0-0.2,0-0.3,0"/>
			<path id="Trazado_963" class="st6" d="M-202.7-833.3c-2.8,1-7.3,1.8-12.9,5.1c-1.7,1-3.4,1.9-5.2,2.9c8.8,3.6,18.1,5.6,27.5,6.1"
				/>
			<path id="Trazado_964" class="st6" d="M-202.2-877.1c0-0.4-0.3-1.1-1.9-1.1c-0.1,0-0.2,0-0.2,0c-0.5,0.3-0.7,3.4-0.1,6.4
				c0,0.1,0,0.1,0,0.2c0,0.4,0.1,0.7,0.2,1.1"/>
			<path id="Trazado_965" class="st6" d="M-203.1-904.7c9.8-12.9,29.4-12.6,37.6-1.3c11.7,1.4,14.8,15.3,9.7,26.2
				c1.5,2.5,0.8,6.9,0.5,8.6c-0.4,3.8-2.7,7.2-6.1,8.9c0,2.9-1.1,5.8-3.1,8 M-202.3-882c0.2-4.2,3.3-6.7,8.4-6.7h8.6
				c0,0,10.4-1,14.7-8.1c0.5-0.8,1.4-1,2.2-0.6c0.6,0.3,5.4,3.4,6.9,16.4c0.1-0.1,0.3-0.1,0.4-0.2 M-196.3-852.1
				c-3.2-3-5-5.6-5.2-10.2c-3.4-1.7-5.7-5.1-6.1-8.9c-0.4-1.9-1.2-7.7,1.5-9.7c-1.1-3.4-1.7-7-1.7-10.6"/>
			<path id="Trazado_966" class="st6" d="M-166.7-838.1l0-10.2c-5,7.1-8.6,6.3-17.7,6.4c-6.4,0.1-9.6-6.8-12-10.3v14.1
				c-1.9,1.8-4.1,3.4-6.3,4.8c0.6,3.8,2.7,11.8,9.4,14.1c7.8,0.6,15.7,0.6,23.5,0c6.7-2.2,8.8-10.3,9.4-14.1
				C-162.6-834.7-164.7-836.3-166.7-838.1z"/>
			<path id="Trazado_967" class="st6" d="M-169.7-819.2c7.3-0.2,21-3.3,27.5-6.1c-1.7-0.9-3.5-1.9-5.2-2.9
				c-5.7-3.3-10.1-4.2-12.9-5.1"/>
		</g>
	</g>
</g>
<g class="st5">
	<path class="st22" d="M229.5,180.6c0-1.9,1.4-3.1,3.2-3.1c1.5,0,2.3,0.8,2.7,1.6l-1.3,0.6c-0.2-0.5-0.7-0.9-1.3-0.9
		c-0.9,0-1.6,0.8-1.6,1.7s0.7,1.7,1.6,1.7c0.6,0,1.1-0.4,1.3-0.9l1.3,0.6c-0.4,0.8-1.2,1.6-2.7,1.6
		C230.9,183.7,229.5,182.4,229.5,180.6z"/>
	<path class="st22" d="M238.9,177.5c1.8,0,3.2,1.3,3.2,3.1c0,1.8-1.4,3.1-3.2,3.1c-1.8,0-3.2-1.3-3.2-3.1
		C235.7,178.8,237.1,177.5,238.9,177.5z M238.9,178.9c-1,0-1.6,0.8-1.6,1.7c0,1,0.6,1.7,1.6,1.7c1,0,1.6-0.8,1.6-1.7
		C240.6,179.6,239.9,178.9,238.9,178.9z"/>
	<path class="st22" d="M242.9,177.6h1.5v4.7h2.4v1.4h-4V177.6z"/>
	<path class="st22" d="M247.7,177.6h1.5v4.7h2.4v1.4h-4V177.6z"/>
	<path class="st22" d="M256.3,182.7h-2.5l-0.3,0.9h-1.7l2.3-6h1.9l2.3,6h-1.7L256.3,182.7z M254.2,181.4h1.7l-0.8-2.4L254.2,181.4z"
		/>
	<path class="st22" d="M259.5,178.9h-1.7v-1.4h4.9v1.4H261v4.7h-1.5V178.9z"/>
	<path class="st22" d="M263.5,177.6h4.4v1.3H265v1h2.8v1.3H265v1.1h2.9v1.3h-4.4V177.6z"/>
	<path class="st22" d="M271.1,181.6h-0.8v2h-1.5v-6h3c1.3,0,2.1,0.9,2.1,2c0,1-0.6,1.6-1.2,1.8l1.2,2.2h-1.8L271.1,181.6z
		 M271.5,178.9h-1.2v1.4h1.2c0.4,0,0.7-0.3,0.7-0.7S271.9,178.9,271.5,178.9z"/>
	<path class="st22" d="M278.5,182.7h-2.5l-0.3,0.9h-1.7l2.3-6h1.9l2.3,6h-1.7L278.5,182.7z M276.5,181.4h1.7l-0.8-2.4L276.5,181.4z"
		/>
	<path class="st22" d="M281,177.6h1.5v4.7h2.4v1.4h-4V177.6z"/>
</g>
<path id="Polígono_26" class="st22" d="M187.2,138.6l-7,4v-8L187.2,138.6z"/>
<path id="Polígono_27" class="st22" d="M375.2,138.6l-7,4v-8L375.2,138.6z"/>
<path id="Polígono_28" class="st22" d="M584.2,138.6l-7,4v-8L584.2,138.6z"/>
<path id="Polígono_29" d="M710.2,138.6l7-4v8L710.2,138.6z"/>
<g id="Grupo_787">
	<path id="Trazado_1253" class="st20" d="M842.8,198c0,0-105.5,94.6-195.3,0"/>
	<g id="Grupo_786" transform="translate(942.584 1168.256)">
		<path id="Trazado_903" class="st23" d="M-203.9-893.7c-8.2-0.3-16.6-1.3-16.6-3.2v4.1c0,1.9,8.5,3.5,16.6,3.5s16.7-1.5,16.7-3.4
			l-0.2-4.3C-187.4-895.1-195.8-893.4-203.9-893.7z"/>
		<path id="Trazado_904" class="st23" d="M-201.3-900.1c-9.2,0-14.7-1.8-14.7-3.7v4.3c0,1.9,5.5,3.7,14.7,3.7s18.6-1.5,18.6-3.4
			v-4.1C-182.7-901.4-192.1-900.1-201.3-900.1z"/>
		<path id="Trazado_905" class="st23" d="M-205.3-906.4c-8.9,0.2-14-2.1-14.2-3.4v4.3c1.2,1.6,5.2,3.7,14.1,3.7s19-2,19-3.9l0.2-3.6
			C-188.2-907.8-197-906.6-205.3-906.4z"/>
		<path id="Trazado_906" class="st24" d="M-209.3-914.2c2-0.2,4.1-0.2,6.3-0.2c1.7,0,16.8,0.1,16.8,3.8c0,2.8-8.6,4.3-16.8,4.3
			s-16.8-1.5-16.8-4.3c0-1.3,1.8-2.3,5.5-3"/>
		<path id="Trazado_907" class="st25" d="M-186.3-910.7v4.3c0,3-9.8,4.3-16.8,4.3s-16.8-1.3-16.8-4.3v-4.3"/>
		<path id="Trazado_908" class="st25" d="M-216.7-903.9v-4.3"/>
		<path id="Trazado_909" class="st25" d="M-212.4-902.9v-4.3"/>
		<path id="Trazado_910" class="st25" d="M-208.3-902.1v-4.3"/>
		<path id="Trazado_911" class="st25" d="M-204-902.1v-4.3"/>
		<path id="Trazado_912" class="st25" d="M-199.7-902v-4.3"/>
		<path id="Trazado_913" class="st25" d="M-195.5-902v-4.3"/>
		<path id="Trazado_914" class="st25" d="M-191.2-903.2v-4.3"/>
		<path id="Trazado_915" class="st25" d="M-187.4-904.7v-4.3"/>
		<path id="Trazado_916" class="st24" d="M-186.2-906.7c2.1,0.6,3.5,1.4,3.5,2.5c0,2.8-8.6,4.3-16.8,4.3c-7.4,0-15.2-1.2-16.6-3.5"
			/>
		<path id="Trazado_917" class="st25" d="M-182.7-904.3v4.3c0,3-9.8,4.3-16.8,4.3s-16.8-1.3-16.8-4.3v-3.8"/>
		<path id="Trazado_918" class="st25" d="M-213.1-897.5v-4.3"/>
		<path id="Trazado_919" class="st25" d="M-208.8-896.5v-4.3"/>
		<path id="Trazado_920" class="st25" d="M-204.6-895.7v-4.3"/>
		<path id="Trazado_921" class="st25" d="M-200.3-895.7v-4.3"/>
		<path id="Trazado_922" class="st25" d="M-196-895.6v-4.3"/>
		<path id="Trazado_923" class="st25" d="M-191.8-895.6v-4.3"/>
		<path id="Trazado_924" class="st25" d="M-187.6-896.8v-4.3"/>
		<path id="Trazado_925" class="st25" d="M-183.7-898.3v-4.3"/>
		<path id="Trazado_926" class="st24" d="M-188-896.6c-2.2,1.9-9.3,3-16.1,3c-8.1,0-16.8-1.5-16.8-4.3c0-1.1,1.4-2,4.2-2.7"/>
		<path id="Trazado_927" class="st25" d="M-187.2-896.8v3.1c0,3-9.8,4.3-16.8,4.3s-16.8-1.3-16.8-4.3v-4.3"/>
		<path id="Trazado_928" class="st25" d="M-217.7-891.3v-4.3"/>
		<path id="Trazado_929" class="st25" d="M-213.4-890.2v-4.3"/>
		<path id="Trazado_930" class="st25" d="M-209.2-889.4v-4.3"/>
		<path id="Trazado_931" class="st25" d="M-204.9-889.4v-4.3"/>
		<path id="Trazado_932" class="st25" d="M-200.6-889.4v-4.3"/>
		<path id="Trazado_933" class="st25" d="M-196.4-889.4v-4.3"/>
		<path id="Trazado_934" class="st25" d="M-192.2-890.5v-4.3"/>
		<path id="Trazado_935" class="st25" d="M-188.3-892v-4.3"/>
	</g>
	<path id="Polígono_30" d="M645.3,196.1l7.8,2.1l-5.7,5.7L645.3,196.1z"/>
</g>
<g id="Grupo_788" transform="translate(-602)">
	<path id="Trazado_1253-2" class="st20" d="M827.2,207.6c0,0-37,28.7-85.5,30.6c-28.8,1.1-60.6-4.6-94.4-40.2"/>
	<g id="Grupo_786-2" transform="translate(942.584 1168.256)">
		<path id="Trazado_903-2" class="st23" d="M-203.9-893.7c-8.2-0.3-16.6-1.3-16.6-3.2v4.1c0,1.9,8.5,3.5,16.6,3.5s16.7-1.5,16.7-3.4
			l-0.2-4.3C-187.4-895.1-195.8-893.4-203.9-893.7z"/>
		<path id="Trazado_904-2" class="st23" d="M-201.3-900.1c-9.2,0-14.7-1.8-14.7-3.7v4.3c0,1.9,5.5,3.7,14.7,3.7s18.6-1.5,18.6-3.4
			v-4.1C-182.7-901.4-192.1-900.1-201.3-900.1z"/>
		<path id="Trazado_905-2" class="st23" d="M-205.3-906.4c-8.9,0.2-14-2.1-14.2-3.4v4.3c1.2,1.6,5.2,3.7,14.1,3.7s19-2,19-3.9
			l0.2-3.6C-188.2-907.8-197-906.6-205.3-906.4z"/>
		<path id="Trazado_906-2" class="st24" d="M-209.3-914.2c2-0.2,4.1-0.2,6.3-0.2c1.7,0,16.8,0.1,16.8,3.8c0,2.8-8.6,4.3-16.8,4.3
			s-16.8-1.5-16.8-4.3c0-1.3,1.8-2.3,5.5-3"/>
		<path id="Trazado_907-2" class="st25" d="M-186.3-910.7v4.3c0,3-9.8,4.3-16.8,4.3s-16.8-1.3-16.8-4.3v-4.3"/>
		<path id="Trazado_908-2" class="st25" d="M-216.7-903.9v-4.3"/>
		<path id="Trazado_909-2" class="st25" d="M-212.4-902.9v-4.3"/>
		<path id="Trazado_910-2" class="st25" d="M-208.3-902.1v-4.3"/>
		<path id="Trazado_911-2" class="st25" d="M-204-902.1v-4.3"/>
		<path id="Trazado_912-2" class="st25" d="M-199.7-902v-4.3"/>
		<path id="Trazado_913-2" class="st25" d="M-195.5-902v-4.3"/>
		<path id="Trazado_914-2" class="st25" d="M-191.2-903.2v-4.3"/>
		<path id="Trazado_915-2" class="st25" d="M-187.4-904.7v-4.3"/>
		<path id="Trazado_916-2" class="st24" d="M-186.2-906.7c2.1,0.6,3.5,1.4,3.5,2.5c0,2.8-8.6,4.3-16.8,4.3c-7.4,0-15.2-1.2-16.6-3.5
			"/>
		<path id="Trazado_917-2" class="st25" d="M-182.7-904.3v4.3c0,3-9.8,4.3-16.8,4.3s-16.8-1.3-16.8-4.3v-3.8"/>
		<path id="Trazado_918-2" class="st25" d="M-213.1-897.5v-4.3"/>
		<path id="Trazado_919-2" class="st25" d="M-208.8-896.5v-4.3"/>
		<path id="Trazado_920-2" class="st25" d="M-204.6-895.7v-4.3"/>
		<path id="Trazado_921-2" class="st25" d="M-200.3-895.7v-4.3"/>
		<path id="Trazado_922-2" class="st25" d="M-196-895.6v-4.3"/>
		<path id="Trazado_923-2" class="st25" d="M-191.8-895.6v-4.3"/>
		<path id="Trazado_924-2" class="st25" d="M-187.6-896.8v-4.3"/>
		<path id="Trazado_925-2" class="st25" d="M-183.7-898.3v-4.3"/>
		<path id="Trazado_926-2" class="st24" d="M-188-896.6c-2.2,1.9-9.3,3-16.1,3c-8.1,0-16.8-1.5-16.8-4.3c0-1.1,1.4-2,4.2-2.7"/>
		<path id="Trazado_927-2" class="st25" d="M-187.2-896.8v3.1c0,3-9.8,4.3-16.8,4.3s-16.8-1.3-16.8-4.3v-4.3"/>
		<path id="Trazado_928-2" class="st25" d="M-217.7-891.3v-4.3"/>
		<path id="Trazado_929-2" class="st25" d="M-213.4-890.2v-4.3"/>
		<path id="Trazado_930-2" class="st25" d="M-209.2-889.4v-4.3"/>
		<path id="Trazado_931-2" class="st25" d="M-204.9-889.4v-4.3"/>
		<path id="Trazado_932-2" class="st25" d="M-200.6-889.4v-4.3"/>
		<path id="Trazado_933-2" class="st25" d="M-196.4-889.4v-4.3"/>
		<path id="Trazado_934-2" class="st25" d="M-192.2-890.5v-4.3"/>
		<path id="Trazado_935-2" class="st25" d="M-188.3-892v-4.3"/>
	</g>
	<path id="Polígono_30-2" d="M645.3,196.1l7.8,2.1l-5.7,5.7L645.3,196.1z"/>
</g>
<g class="st5">
	<path class="st22" d="M223.8,183.5h-1.2v-2.4h-2.1V180h2.1v-2.3h1.2v2.3h2.1v1.1h-2.1V183.5z"/>
</g>
</svg>
