<?xml version="1.0" encoding="utf-8"?>
<!-- Generator: Adobe Illustrator 23.0.6, SVG Export Plug-In . SVG Version: 6.00 Build 0)  -->
<svg version="1.1" id="Capa_1" xmlns="http://www.w3.org/2000/svg" xmlns:xlink="http://www.w3.org/1999/xlink" x="0px" y="0px"
	 viewBox="0 0 914.2 276.2" style="enable-background:new 0 0 914.2 276.2;" xml:space="preserve">
<style type="text/css">
	.st0{fill:#E8EDFC;}
	.st1{clip-path:url(#SVGID_2_);}
	.st2{fill:none;stroke:#FFFFFF;stroke-width:4;stroke-linecap:round;stroke-miterlimit:10;}
	.st3{fill:#CAD9FC;}
	.st4{enable-background:new    ;}
	.st5{fill:none;stroke:#000000;stroke-linecap:round;stroke-linejoin:round;}
	.st6{fill:none;stroke:#4956FA;stroke-miterlimit:10;}
	.st7{fill:none;stroke:#A1AFD3;stroke-width:2;stroke-linecap:round;stroke-linejoin:round;}
	.st8{fill:#A1AFD3;}
	.st9{fill:#FFFFFF;}
	.st10{fill:none;stroke:#000000;stroke-linecap:round;stroke-miterlimit:10;}
	.st11{fill:#FFFFFF;stroke:#000000;stroke-linecap:round;stroke-linejoin:round;}
	.st12{fill:#141C27;}
	.st13{fill:#EDC620;stroke:#000000;stroke-miterlimit:10;}
	.st14{fill:#4956FA;stroke:#000000;stroke-miterlimit:10;}
	.st15{fill:none;stroke:#FDFDFF;stroke-linecap:round;stroke-linejoin:round;}
	.st16{fill:#4956FA;}
	.st17{fill:none;stroke:#000000;stroke-miterlimit:10;}
	.st18{fill:#D4E1F4;}
	.st19{fill:none;stroke:#211915;stroke-width:0.5;stroke-linecap:round;stroke-miterlimit:10;}
	.st20{fill:none;stroke:#211915;stroke-width:0.5;stroke-miterlimit:10;}
	.st21{fill:none;stroke:#211915;stroke-linecap:round;stroke-miterlimit:10;}
	.st22{fill:#4155FF;}
</style>
<rect id="Rectángulo_2093" x="270.8" y="1" class="st0" width="392" height="244.9"/>
<g>
	<defs>
		<polygon id="SVGID_1_" points="662.8,2.1 662.8,245.9 272.7,245.9 271.9,2.1 		"/>
	</defs>
	<clipPath id="SVGID_2_">
		<use xlink:href="#SVGID_1_"  style="overflow:visible;"/>
	</clipPath>
	<g id="Grupo_620" class="st1">
		<g id="Grupo_619" transform="translate(-26.378 -382.116)">
			<line id="Línea_1688" class="st2" x1="293.1" y1="611.5" x2="796.7" y2="999.2"/>
			<line id="Línea_1689" class="st2" x1="293.1" y1="595.1" x2="796.7" y2="982.7"/>
			<line id="Línea_1690" class="st2" x1="293.1" y1="578.6" x2="796.7" y2="966.3"/>
			<line id="Línea_1691" class="st2" x1="293.1" y1="562.1" x2="796.7" y2="949.8"/>
			<line id="Línea_1692" class="st2" x1="293.1" y1="545.6" x2="796.7" y2="933.3"/>
			<line id="Línea_1693" class="st2" x1="293.1" y1="529.2" x2="796.7" y2="916.9"/>
			<line id="Línea_1694" class="st2" x1="293.1" y1="512.7" x2="796.7" y2="900.4"/>
			<line id="Línea_1695" class="st2" x1="293.1" y1="496.2" x2="796.7" y2="883.9"/>
			<line id="Línea_1696" class="st2" x1="293.1" y1="479.8" x2="796.7" y2="867.5"/>
			<line id="Línea_1697" class="st2" x1="293.1" y1="463.3" x2="796.7" y2="851"/>
			<line id="Línea_1698" class="st2" x1="293.1" y1="446.8" x2="796.7" y2="834.5"/>
			<line id="Línea_1699" class="st2" x1="293.1" y1="430.4" x2="796.7" y2="818"/>
			<line id="Línea_1700" class="st2" x1="293.1" y1="413.9" x2="796.7" y2="801.6"/>
			<line id="Línea_1701" class="st2" x1="293.1" y1="397.4" x2="796.7" y2="785.1"/>
			<line id="Línea_1702" class="st2" x1="293.1" y1="381" x2="796.7" y2="768.6"/>
			<line id="Línea_1703" class="st2" x1="293.1" y1="348" x2="796.7" y2="735.7"/>
			<line id="Línea_1704" class="st2" x1="271.9" y1="348" x2="775.5" y2="735.7"/>
			<line id="Línea_1705" class="st2" x1="293.1" y1="331.5" x2="796.7" y2="719.2"/>
			<line id="Línea_1706" class="st2" x1="293.1" y1="315.1" x2="796.7" y2="702.8"/>
			<line id="Línea_1707" class="st2" x1="293.1" y1="298.6" x2="796.7" y2="686.3"/>
			<line id="Línea_1708" class="st2" x1="293.1" y1="282.1" x2="796.7" y2="669.8"/>
			<line id="Línea_1709" class="st2" x1="293.1" y1="265.7" x2="796.7" y2="653.3"/>
			<line id="Línea_1710" class="st2" x1="293.1" y1="249.2" x2="796.7" y2="636.9"/>
			<line id="Línea_1711" class="st2" x1="293.1" y1="232.7" x2="796.7" y2="620.4"/>
			<line id="Línea_1712" class="st2" x1="293.1" y1="216.3" x2="796.7" y2="603.9"/>
			<line id="Línea_1713" class="st2" x1="293.1" y1="199.8" x2="796.7" y2="587.5"/>
			<line id="Línea_1714" class="st2" x1="293.1" y1="183.3" x2="796.7" y2="571"/>
			<line id="Línea_1715" class="st2" x1="293.1" y1="166.8" x2="796.7" y2="554.5"/>
			<line id="Línea_1716" class="st2" x1="293.1" y1="150.4" x2="796.7" y2="538.1"/>
			<line id="Línea_1717" class="st2" x1="293.1" y1="133.9" x2="796.7" y2="521.6"/>
			<line id="Línea_1718" class="st2" x1="293.1" y1="117.4" x2="796.7" y2="505.1"/>
			<line id="Línea_1719" class="st2" x1="293.1" y1="101" x2="796.7" y2="488.6"/>
			<line id="Línea_1720" class="st2" x1="293.1" y1="84.5" x2="796.7" y2="472.2"/>
			<line id="Línea_1721" class="st2" x1="293.1" y1="68" x2="796.7" y2="455.7"/>
			<line id="Línea_1722" class="st2" x1="293.1" y1="51.6" x2="796.7" y2="439.2"/>
			<line id="Línea_1723" class="st2" x1="293.1" y1="35.1" x2="796.7" y2="422.8"/>
			<line id="Línea_1724" class="st2" x1="293.1" y1="18.6" x2="796.7" y2="406.3"/>
			<line id="Línea_1725" class="st2" x1="293.1" y1="2.1" x2="796.7" y2="389.8"/>
		</g>
	</g>
</g>
<path id="Trazado_815" class="st3" d="M910.9,176c6.1,0.9,1.2-9-2.1-11.2c-2.9-1.9-5.2-7.2-2.5-9.9c4.3-4.2,6.8-16.1,0.5-19.2
	c-8.3-4.1-8-7.3-7.2-19.8c1-14.3-7.9-20.4-19-20.4c-0.8,0-1.6,0-2.4,0.1c9.9,1-9.4-3.3-9.4,8.4c0,12.6,11,18.3,19.3,22.4
	c-1.1,7.5,0,7.2,0,11.7c0,5.8-0.1,9.9-2.8,12c-3.2,9-6.6,3.3-3.9,13C890.5,174.2,909.2,169.6,910.9,176z"/>
<path id="Trazado_816" class="st3" d="M857.6,162.9c2.6-9.7-0.1-4.2-3.4-13.3c-2.7-2.1-3.4-5.9-3.4-11.7c0-4.5,1.1-4.1,0-11.7
	c8.3-4.1,19.3-9.8,19.3-22.4c0-11.7-19.3-7.3-9.4-8.4c-0.8-0.1-1.6-0.1-2.4-0.1c-11.1,0-19,7.8-19,20.4s5.1,17.9-3.2,22
	c-6.3,3.1-4.8,12.6-1.6,15.7c4.8,4.7,1.4,10.6-1.6,12.6c-3.3,2.2-5.9,6.2-3.9,9.9C830.6,169.5,848.3,174.2,857.6,162.9z"/>
<g class="st4">
	<path d="M35.1,55.3c0-3.1,2.3-5.2,5.2-5.2c2.1,0,3.3,1.1,4.1,2.2l-1.5,0.8c-0.5-0.8-1.4-1.5-2.6-1.5c-1.9,0-3.4,1.5-3.4,3.6
		c0,2.1,1.5,3.6,3.4,3.6c1.2,0,2.1-0.6,2.6-1.5l1.5,0.8c-0.8,1.2-2,2.2-4.1,2.2C37.4,60.4,35.1,58.3,35.1,55.3z"/>
	<path d="M45.3,56.6c0-2.1,1.4-3.8,3.7-3.8c2.3,0,3.7,1.7,3.7,3.8c0,2.1-1.4,3.8-3.7,3.8C46.7,60.4,45.3,58.7,45.3,56.6z M51.1,56.6
		c0-1.3-0.8-2.4-2.1-2.4c-1.3,0-2.1,1.1-2.1,2.4c0,1.3,0.8,2.4,2.1,2.4C50.4,59,51.1,57.9,51.1,56.6z"/>
	<path d="M63.2,55.5c0-0.8-0.3-1.3-1.2-1.3c-0.7,0-1.4,0.5-1.7,1v5.1h-1.6v-4.7c0-0.8-0.3-1.3-1.2-1.3c-0.7,0-1.3,0.5-1.7,1v5.1
		h-1.6V53h1.6v1c0.3-0.5,1.3-1.2,2.4-1.2c1.1,0,1.7,0.5,2,1.3c0.4-0.7,1.4-1.3,2.5-1.3c1.3,0,2.1,0.7,2.1,2.2v5.2h-1.6V55.5z"/>
	<path d="M66.8,63V53h1.6v1c0.5-0.7,1.4-1.2,2.3-1.2c1.9,0,3.2,1.4,3.2,3.8s-1.3,3.8-3.2,3.8c-0.9,0-1.7-0.4-2.3-1.2V63H66.8z
		 M70.3,54.2c-0.7,0-1.5,0.4-1.9,1v2.9c0.3,0.5,1.1,1,1.9,1c1.2,0,2-1,2-2.4C72.3,55.2,71.5,54.2,70.3,54.2z"/>
	<path d="M80,59.5c-0.5,0.6-1.4,1-2.3,1c-1.2,0-2.5-0.8-2.5-2.4c0-1.7,1.3-2.4,2.5-2.4c1,0,1.8,0.3,2.3,0.9v-1.1
		c0-0.8-0.7-1.4-1.7-1.4c-0.8,0-1.5,0.3-2.1,0.9L75.5,54c0.8-0.8,1.9-1.2,3-1.2c1.6,0,3,0.7,3,2.6v4.8H80V59.5z M80,57.5
		c-0.4-0.5-1-0.8-1.7-0.8c-0.9,0-1.5,0.5-1.5,1.3c0,0.8,0.7,1.3,1.5,1.3c0.7,0,1.4-0.3,1.7-0.8V57.5z"/>
	<path d="M88.5,55.7c0-1.1-0.6-1.5-1.5-1.5c-0.8,0-1.5,0.5-1.9,1v5.1h-1.6V53h1.6v1c0.5-0.6,1.4-1.2,2.5-1.2c1.6,0,2.3,0.8,2.3,2.3
		v5.1h-1.6V55.7z"/>
	<path d="M92.6,61.8c0.5,0,0.8-0.2,1-0.6l0.4-0.8L91,53h1.7l2.1,5.4l2.1-5.4h1.7l-3.5,8.5c-0.5,1.2-1.4,1.6-2.5,1.6
		c-0.2,0-0.7,0-0.9-0.1l0.2-1.4C92.2,61.8,92.4,61.8,92.6,61.8z"/>
</g>
<g class="st4">
	<path d="M222,58.3h-1.4v3.6h-2.8V51.2h5.3c2.4,0,3.7,1.6,3.7,3.6c0,1.9-1.1,2.8-2.1,3.2l2.2,3.9h-3.2L222,58.3z M222.8,53.5h-2.2
		v2.4h2.2c0.7,0,1.3-0.5,1.3-1.2S223.5,53.5,222.8,53.5z"/>
	<path d="M231.5,54c2.3,0,4,1.7,4,4.3v0.5H230c0.1,0.7,0.8,1.4,2,1.4c0.7,0,1.5-0.3,1.9-0.7l1,1.5c-0.8,0.7-2,1-3.2,1
		c-2.4,0-4.2-1.6-4.2-4.1C227.4,55.8,229.1,54,231.5,54z M229.9,57.2h3.2c-0.1-0.5-0.5-1.3-1.6-1.3C230.4,55.9,230,56.6,229.9,57.2z
		"/>
	<path d="M241.9,64.8V61c-0.6,0.8-1.4,1.1-2.3,1.1c-2,0-3.4-1.4-3.4-4.1c0-2.6,1.5-4,3.4-4c0.9,0,1.7,0.4,2.3,1.1v-0.9h2.4v10.7
		H241.9z M241.9,56.8c-0.3-0.4-1-0.7-1.5-0.7c-1,0-1.7,0.7-1.7,1.9c0,1.2,0.7,1.9,1.7,1.9c0.5,0,1.2-0.3,1.5-0.7V56.8z"/>
	<path d="M251.3,61c-0.5,0.5-1.4,1.1-2.7,1.1c-1.8,0-2.5-1-2.5-2.4v-5.5h2.5v4.5c0,0.9,0.5,1.2,1.3,1.2c0.7,0,1.2-0.4,1.5-0.8v-5
		h2.5v7.7h-2.5V61z"/>
	<path d="M259.2,54c2.3,0,4,1.7,4,4.3v0.5h-5.5c0.1,0.7,0.8,1.4,2,1.4c0.7,0,1.5-0.3,1.9-0.7l1,1.5c-0.8,0.7-2,1-3.2,1
		c-2.4,0-4.2-1.6-4.2-4.1C255.1,55.8,256.8,54,259.2,54z M257.6,57.2h3.2c-0.1-0.5-0.5-1.3-1.6-1.3
		C258.1,55.9,257.7,56.6,257.6,57.2z"/>
	<path d="M264.7,59.2c0.6,0.5,1.8,1,2.7,1c0.7,0,1-0.2,1-0.6c0-0.4-0.5-0.5-1.3-0.7c-1.3-0.2-3.2-0.5-3.2-2.5c0-1.4,1.2-2.5,3.3-2.5
		c1.3,0,2.4,0.4,3.2,1l-0.9,1.6c-0.5-0.4-1.3-0.8-2.3-0.8c-0.6,0-1,0.2-1,0.5c0,0.4,0.4,0.5,1.2,0.6c1.3,0.2,3.3,0.5,3.3,2.6
		c0,1.5-1.3,2.6-3.5,2.6c-1.4,0-2.8-0.5-3.6-1.2L264.7,59.2z"/>
	<path d="M272.6,59.8v-3.5h-1.3v-2.1h1.3V52h2.4v2.1h1.6v2.1h-1.6v2.8c0,0.4,0.3,0.8,0.7,0.8c0.3,0,0.5-0.1,0.6-0.2l0.5,1.9
		c-0.3,0.3-0.9,0.5-1.8,0.5C273.5,62.1,272.6,61.3,272.6,59.8z"/>
	<path d="M281.5,54c2.3,0,4,1.7,4,4.3v0.5h-5.5c0.1,0.7,0.8,1.4,2,1.4c0.7,0,1.5-0.3,1.9-0.7l1,1.5c-0.8,0.7-2,1-3.2,1
		c-2.4,0-4.2-1.6-4.2-4.1C277.4,55.8,279.1,54,281.5,54z M279.9,57.2h3.2c-0.1-0.5-0.5-1.3-1.6-1.3C280.4,55.9,280,56.6,279.9,57.2z
		"/>
	<path d="M291.8,61c-0.6,0.7-1.4,1.1-2.3,1.1c-1.9,0-3.4-1.4-3.4-4.1c0-2.5,1.5-4,3.4-4c0.8,0,1.7,0.3,2.3,1.1v-3.9h2.4v10.7h-2.4
		V61z M291.8,56.8c-0.3-0.4-1-0.7-1.5-0.7c-1,0-1.7,0.7-1.7,1.9c0,1.2,0.7,1.9,1.7,1.9c0.5,0,1.2-0.3,1.5-0.7V56.8z"/>
	<path d="M300.2,51.2h2.8v8.3h4.3v2.4h-7V51.2z"/>
	<path d="M308.1,58c0-2.2,1.6-4,4.2-4c2.7,0,4.2,1.9,4.2,4c0,2.2-1.6,4.1-4.2,4.1C309.6,62.1,308.1,60.2,308.1,58z M314,58
		c0-1-0.6-1.9-1.7-1.9c-1.1,0-1.7,0.8-1.7,1.9c0,1,0.6,1.9,1.7,1.9C313.4,59.9,314,59.1,314,58z"/>
	<path d="M322.3,61.1c-0.5,0.6-1.4,1-2.4,1c-1.2,0-2.7-0.8-2.7-2.5c0-1.9,1.5-2.4,2.7-2.4c1,0,1.9,0.3,2.4,0.9v-1
		c0-0.7-0.6-1.1-1.6-1.1c-0.8,0-1.6,0.3-2.2,0.8l-0.9-1.6c1-0.8,2.3-1.2,3.5-1.2c1.9,0,3.6,0.7,3.6,3.1v4.8h-2.5V61.1z M322.3,59.2
		c-0.3-0.4-0.8-0.5-1.4-0.5c-0.7,0-1.2,0.3-1.2,0.9c0,0.6,0.6,0.9,1.2,0.9c0.5,0,1.1-0.2,1.4-0.6V59.2z"/>
	<path d="M331.8,57.4c0-0.9-0.5-1.3-1.3-1.3c-0.7,0-1.2,0.4-1.5,0.8v5h-2.5v-7.7h2.5v0.9c0.5-0.5,1.4-1.1,2.7-1.1
		c1.8,0,2.6,1,2.6,2.4v5.5h-2.5V57.4z"/>
</g>
<g class="st4">
	<path d="M624.2,51.2h7.8v2.3h-5.1v1.8h5v2.3h-5v4.2h-2.8V51.2z"/>
	<path d="M638.6,61c-0.5,0.5-1.4,1.1-2.7,1.1c-1.8,0-2.5-1-2.5-2.4v-5.5h2.5v4.5c0,0.9,0.5,1.2,1.3,1.2c0.7,0,1.2-0.4,1.5-0.8v-5
		h2.5v7.7h-2.5V61z"/>
	<path d="M648.1,57.4c0-0.9-0.5-1.3-1.3-1.3c-0.7,0-1.2,0.4-1.5,0.8v5h-2.5v-7.7h2.5v0.9c0.5-0.5,1.4-1.1,2.7-1.1
		c1.8,0,2.6,1,2.6,2.4v5.5h-2.5V57.4z"/>
	<path d="M657.6,61c-0.6,0.7-1.4,1.1-2.3,1.1c-1.9,0-3.4-1.4-3.4-4.1c0-2.5,1.5-4,3.4-4c0.8,0,1.7,0.3,2.3,1.1v-3.9h2.4v10.7h-2.4
		V61z M657.6,56.8c-0.3-0.4-1-0.7-1.5-0.7c-1,0-1.7,0.7-1.7,1.9c0,1.2,0.7,1.9,1.7,1.9c0.5,0,1.2-0.3,1.5-0.7V56.8z"/>
	<path d="M665.4,54c2.3,0,4,1.7,4,4.3v0.5h-5.5c0.1,0.7,0.8,1.4,2,1.4c0.7,0,1.5-0.3,1.9-0.7l1,1.5c-0.8,0.7-2,1-3.2,1
		c-2.4,0-4.2-1.6-4.2-4.1C661.3,55.8,663,54,665.4,54z M663.9,57.2h3.2c-0.1-0.5-0.5-1.3-1.6-1.3C664.4,55.9,664,56.6,663.9,57.2z"
		/>
	<path d="M675.8,61c-0.6,0.7-1.4,1.1-2.3,1.1c-1.9,0-3.4-1.4-3.4-4.1c0-2.5,1.5-4,3.4-4c0.8,0,1.7,0.3,2.3,1.1v-3.9h2.4v10.7h-2.4
		V61z M675.8,56.8c-0.3-0.4-1-0.7-1.5-0.7c-1,0-1.7,0.7-1.7,1.9c0,1.2,0.7,1.9,1.7,1.9c0.5,0,1.2-0.3,1.5-0.7V56.8z"/>
	<path d="M684.2,51.2h2.8v8.3h4.3v2.4h-7V51.2z"/>
	<path d="M692,58c0-2.2,1.6-4,4.2-4c2.7,0,4.2,1.9,4.2,4c0,2.2-1.6,4.1-4.2,4.1C693.6,62.1,692,60.2,692,58z M697.9,58
		c0-1-0.6-1.9-1.7-1.9c-1.1,0-1.7,0.8-1.7,1.9c0,1,0.6,1.9,1.7,1.9C697.3,59.9,697.9,59.1,697.9,58z"/>
	<path d="M706.3,61.1c-0.5,0.6-1.4,1-2.4,1c-1.2,0-2.7-0.8-2.7-2.5c0-1.9,1.5-2.4,2.7-2.4c1,0,1.9,0.3,2.4,0.9v-1
		c0-0.7-0.6-1.1-1.6-1.1c-0.8,0-1.6,0.3-2.2,0.8l-0.9-1.6c1-0.8,2.3-1.2,3.5-1.2c1.9,0,3.6,0.7,3.6,3.1v4.8h-2.5V61.1z M706.3,59.2
		c-0.3-0.4-0.8-0.5-1.4-0.5c-0.7,0-1.2,0.3-1.2,0.9c0,0.6,0.6,0.9,1.2,0.9c0.5,0,1.1-0.2,1.4-0.6V59.2z"/>
	<path d="M715.8,57.4c0-0.9-0.5-1.3-1.3-1.3c-0.7,0-1.2,0.4-1.5,0.8v5h-2.5v-7.7h2.5v0.9c0.5-0.5,1.4-1.1,2.7-1.1
		c1.8,0,2.6,1,2.6,2.4v5.5h-2.5V57.4z"/>
</g>
<g class="st4">
	<path d="M845.8,51.2h1.9v9h4.7v1.6h-6.6V51.2z"/>
	<path d="M857.3,54c2.3,0,3.8,1.8,3.8,4.2v0.4h-6c0.1,1.2,1,2.1,2.5,2.1c0.8,0,1.6-0.3,2.2-0.8l0.8,1.1c-0.8,0.7-1.9,1.1-3.1,1.1
		c-2.3,0-4-1.6-4-4.1C853.3,55.8,855,54,857.3,54z M855.1,57.4h4.4c0-0.9-0.7-2-2.2-2C855.8,55.3,855.2,56.4,855.1,57.4z"/>
	<path d="M867.9,57c0-1.2-0.6-1.6-1.6-1.6c-0.9,0-1.6,0.5-2,1v5.4h-1.7v-7.7h1.7v1.1c0.5-0.6,1.5-1.2,2.7-1.2c1.7,0,2.5,0.9,2.5,2.5
		v5.4h-1.7V57z"/>
	<path d="M877.2,60.8c-0.6,0.8-1.5,1.2-2.5,1.2c-2,0-3.4-1.5-3.4-4c0-2.5,1.4-4.1,3.4-4.1c1,0,1.9,0.4,2.5,1.3v-4h1.7v10.7h-1.7
		V60.8z M877.2,56.5c-0.4-0.6-1.2-1-2-1c-1.3,0-2.2,1.1-2.2,2.6c0,1.5,0.8,2.6,2.2,2.6c0.8,0,1.6-0.4,2-1V56.5z"/>
	<path d="M884.5,54c2.3,0,3.8,1.8,3.8,4.2v0.4h-6c0.1,1.2,1,2.1,2.5,2.1c0.8,0,1.6-0.3,2.2-0.8l0.8,1.1c-0.8,0.7-1.9,1.1-3.1,1.1
		c-2.3,0-4-1.6-4-4.1C880.6,55.8,882.2,54,884.5,54z M882.4,57.4h4.4c0-0.9-0.7-2-2.2-2C883.1,55.3,882.4,56.4,882.4,57.4z"/>
	<path d="M890,54.2h1.7v1.1c0.6-0.7,1.5-1.3,2.5-1.3v1.7c-0.1,0-0.3,0-0.5,0c-0.7,0-1.6,0.5-2,1v5.3H890V54.2z"/>
</g>
<path id="Trazado_819" class="st5" d="M275.4,181.5h-32.7c-3.4,0-6.1-2.8-6.1-6.1l0,0v-54"/>
<line id="Línea_1733" class="st6" x1="133.9" y1="138.5" x2="208.4" y2="138.5"/>
<line id="Línea_1735" class="st6" x1="323.2" y1="138.5" x2="397.6" y2="138.5"/>
<line id="Línea_1736" class="st6" x1="530" y1="138.5" x2="604.5" y2="138.5"/>
<path id="Trazado_821" class="st7" d="M662.8,217.7v28.2h-392v-26.5"/>
<path id="Trazado_822" class="st7" d="M270.8,29.2V1h392v27.6"/>
<circle id="Elipse_208" class="st8" cx="270.7" cy="31" r="3.5"/>
<circle id="Elipse_209" class="st8" cx="662.7" cy="31" r="3.5"/>
<circle id="Elipse_210" class="st8" cx="270.7" cy="216.9" r="3.5"/>
<circle id="Elipse_211" class="st8" cx="662.7" cy="216.9" r="3.5"/>
<path id="Rectángulo_2094" class="st9" d="M245,81.7h68.5c2.2,0,4,1.8,4,4v87.1c0,2.2-1.8,4-4,4H245c-2.2,0-4-1.8-4-4V85.7
	C241,83.5,242.8,81.7,245,81.7z"/>
<line id="Línea_1737" class="st10" x1="252.8" y1="117.2" x2="298.6" y2="117.2"/>
<line id="Línea_1738" class="st10" x1="252.8" y1="130" x2="281.4" y2="130"/>
<path id="Trazado_824" class="st11" d="M297.5,176.5v-26.8h16.8v33.7l-8.1-6.7l-8.4,5.7"/>
<g class="st4">
	<path class="st12" d="M251.4,92.9h2.6v7.8h4v2.2h-6.6V92.9z"/>
	<path class="st12" d="M263.8,92.7c3.1,0,5.3,2.1,5.3,5.2s-2.3,5.2-5.3,5.2c-3.1,0-5.4-2.1-5.4-5.2S260.8,92.7,263.8,92.7z
		 M263.8,95c-1.7,0-2.7,1.3-2.7,2.9c0,1.6,1.1,2.9,2.7,2.9c1.6,0,2.7-1.3,2.7-2.9C266.5,96.3,265.5,95,263.8,95z"/>
	<path class="st12" d="M276.4,101.4h-4.2l-0.5,1.5h-2.8l3.8-10h3.2l3.8,10h-2.8L276.4,101.4z M272.9,99.2h2.8l-1.4-4.1L272.9,99.2z"
		/>
	<path class="st12" d="M283,96.9v6h-2.6v-10h2.7l4,5.8v-5.8h2.6v10h-2.5L283,96.9z"/>
</g>
<line id="Línea_1739" class="st10" x1="252.8" y1="143.6" x2="266" y2="143.6"/>
<circle id="Elipse_212" class="st13" cx="305.9" cy="150.8" r="11.7"/>
<path id="Trazado_825" class="st5" d="M299.1,152.4l4.1,4.2l8.9-10.6"/>
<path id="Trazado_826" class="st5" d="M240.8,112V85.8c0-2.5,2-4.5,4.5-4.5c0,0,0,0,0,0h67.9c2.5,0,4.5,2,4.5,4.5c0,0,0,0,0,0v49.1"
	/>
<path id="Trazado_827" class="st5" d="M289.3,177.3h-44.1c-2.5,0-4.5-2-4.5-4.5v-56"/>
<line id="Línea_1740" class="st10" x1="252.8" y1="165.3" x2="264" y2="165.3"/>
<line id="Línea_1741" class="st10" x1="271.5" y1="165.3" x2="282.7" y2="165.3"/>
<path id="Rectángulo_2095" class="st9" d="M636.2,81.7h68.5c2.2,0,4,1.8,4,4v87.1c0,2.2-1.8,4-4,4h-68.5c-2.2,0-4-1.8-4-4V85.7
	C632.2,83.5,634,81.7,636.2,81.7z"/>
<line id="Línea_1742" class="st10" x1="645" y1="117.4" x2="690.8" y2="117.4"/>
<line id="Línea_1743" class="st10" x1="645" y1="130.2" x2="673.6" y2="130.2"/>
<g class="st4">
	<path class="st12" d="M643.6,93.1h2.6v7.8h4v2.2h-6.6V93.1z"/>
	<path class="st12" d="M656,92.9c3.1,0,5.3,2.1,5.3,5.2s-2.3,5.2-5.3,5.2c-3.1,0-5.4-2.1-5.4-5.2S653,92.9,656,92.9z M656,95.2
		c-1.7,0-2.7,1.3-2.7,2.9c0,1.6,1.1,2.9,2.7,2.9c1.7,0,2.7-1.3,2.7-2.9C658.7,96.5,657.7,95.2,656,95.2z"/>
	<path class="st12" d="M668.6,101.6h-4.2l-0.5,1.5h-2.8l3.8-10h3.2l3.8,10h-2.8L668.6,101.6z M665.1,99.4h2.8l-1.4-4.1L665.1,99.4z"
		/>
	<path class="st12" d="M675.2,97v6h-2.6v-10h2.7l4,5.8v-5.8h2.6v10h-2.5L675.2,97z"/>
</g>
<line id="Línea_1744" class="st10" x1="645" y1="143.8" x2="658.2" y2="143.8"/>
<line id="Línea_1745" class="st10" x1="645.4" y1="165.3" x2="656.6" y2="165.3"/>
<line id="Línea_1746" class="st10" x1="664.1" y1="165.3" x2="675.3" y2="165.3"/>
<path id="Trazado_828" class="st5" d="M633,112.2V86c0-2.5,2-4.5,4.5-4.5h67.9c2.5,0,4.5,2,4.5,4.5v49.1"/>
<path id="Trazado_829" class="st5" d="M681.5,177.5h-44.1c-2.5,0-4.5-2-4.5-4.5v-56"/>
<path id="Trazado_830" class="st5" d="M689.7,176.8v-27h16.8v33.7l-8.1-6.7l-8.4,5.7"/>
<circle id="Elipse_213" class="st14" cx="698.1" cy="151" r="11.7"/>
<path id="Trazado_831" class="st15" d="M691.3,152.4l4.1,4.2l8.9-10.6"/>
<path id="Trazado_832" class="st16" d="M415.1,167.1v-61c0-3.2,2.6-5.7,5.7-5.7h88.6c3.2,0,5.7,2.6,5.7,5.7v61.2"/>
<path id="Trazado_833" class="st5" d="M493.2,100.2h18c2.2,0,4,1.8,4,4v63.1"/>
<path id="Trazado_834" class="st5" d="M415,167.1v-62.9c0-2.2,1.8-4,4-4h67.7"/>
<ellipse id="Elipse_214" class="st16" cx="463.3" cy="148.2" rx="24.6" ry="21.5"/>
<g id="Grupo_622" transform="translate(3.126)">
	<path id="Trazado_835" class="st9" d="M461.6,160c-13.1,0-23.8-10.7-23.8-23.8c0-13.1,10.7-23.8,23.8-23.8
		c13.1,0,23.8,10.7,23.8,23.8C485.4,149.4,474.7,160,461.6,160z M461.6,115.3c-11.5,0-20.9,9.4-20.9,20.9c0,11.5,9.4,20.9,20.9,20.9
		c11.5,0,20.9-9.4,20.9-20.9C482.5,124.7,473.1,115.3,461.6,115.3z"/>
</g>
<g id="Grupo_629" transform="translate(0 6.098)">
	<g id="Grupo_625">
		<g id="Grupo_624">
			<g id="Grupo_623">
				<path id="Trazado_836" class="st9" d="M439.2,141.9c-0.2,0-0.4,0-0.6-0.1c-0.7-0.3-1-1.2-0.7-1.9c0,0,0,0,0,0
					c4-8.5,11.5-14.4,21.7-17.2c4.6-1.3,9.4-1.8,14.2-1.7c0.8,0.1,1.4,0.7,1.3,1.5c-0.1,0.8-0.7,1.4-1.5,1.3c0,0,0,0,0,0
					c-4.5-0.1-9,0.4-13.4,1.6c-9.4,2.6-16.1,7.9-19.8,15.7C440.3,141.6,439.8,141.9,439.2,141.9z"/>
				<path id="Trazado_837" class="st9" d="M468.1,131l-2-2l6.6-6.6l-7.9-7.9l2-2l9.9,9.9L468.1,131z"/>
			</g>
		</g>
	</g>
	<g id="Grupo_628" transform="translate(14.864 5.943)">
		<g id="Grupo_627">
			<g id="Grupo_626">
				<path id="Trazado_838" class="st9" d="M442.4,133.4c-1,0-1.6,0-1.7,0c-0.8-0.1-1.4-0.7-1.3-1.5c0,0,0,0,0,0
					c0.1-0.8,0.7-1.4,1.5-1.3c0,0,0,0,0,0c4.5,0.1,9-0.4,13.4-1.6c9.4-2.6,16.1-7.9,19.8-15.7c0.3-0.7,1.2-1,1.9-0.7
					c0.7,0.3,1,1.2,0.7,1.9c0,0,0,0,0,0c-4,8.5-11.5,14.4-21.7,17.2C450.8,132.8,446.6,133.4,442.4,133.4z"/>
				<path id="Trazado_839" class="st9" d="M447.7,141.9l-9.9-9.9l8.7-8.7l2,2l-6.6,6.6l7.9,7.9L447.7,141.9z"/>
			</g>
		</g>
	</g>
</g>
<path id="Trazado_840" class="st5" d="M421.8,167.2l-11.8,0v7.2c0,2.6,2.1,4.7,4.7,4.7H515c2.6,0,4.7-2.1,4.7-4.7c0,0,0,0,0,0v-7
	l-45.4-0.1c-3.6,1.4-7.5,2.1-11.4,2.1c-3.9,0-7.8-0.7-11.4-2.2l-24.2,0"/>
<path id="Trazado_851" class="st0" d="M893,170c0,0.3-3.2,1.8-3.2,12.6c-1.7,0.7-4.8,0.4-6.5,0.6c3.2-4.2,5.2-14.5,5.3-14.8
	c1.1,1.5,2.1,1,3.4,1.7L893,170z"/>
<path id="Trazado_852" class="st0" d="M855.9,183.4c-1.7-0.2-5.3,0-7-0.6c0-10.6-2.8-12.3-2.8-12.4c1.2-0.6,2.9-0.7,4-2.2l0,0.1
	C850.2,168.3,851.3,178.2,855.9,183.4z"/>
<path id="Trazado_853" class="st17" d="M846,170.3c1.5,2.1,3.2,5.8,3.5,12.1c2.1,0.3,4.2,0.5,6.4,0.7c-3.7-4.6-5.2-11.1-5.8-14.6
	C848.8,169.3,847.4,169.8,846,170.3z"/>
<path id="Trazado_854" class="st5" d="M888.8,168.5c-2.5-1.6-4.9-3.3-7.2-5.1c-1.6-1.6-1.5-4.7-1.4-7c-7.8,7.8-13.7,7.8-21.6,0
	c0.1,2.3,0.2,5.4-1.4,7c-2.3,1.9-4.7,3.6-7.2,5.2"/>
<path id="Trazado_855" class="st17" d="M869.6,183.6"/>
<path id="Trazado_856" class="st17" d="M847.9,183.2c5.4,0.3,21.7,0.3,27.1,0"/>
<path id="Trazado_857" class="st17" d="M846,170.3c-2.7,0.6-8.9,1.8-11.7,1.8c-2.7,0-5.2,1.7-6.1,4.3c5.7,2.7,15.1,5.1,21.3,6"/>
<path id="Trazado_858" class="st17" d="M889.4,182.5c6.3-0.9,15.8-3.3,21.5-6.1c-0.9-2.6-3.4-4.3-6.2-4.3c-2.8,0-9.1-1.3-11.8-1.9"
	/>
<path id="Trazado_859" class="st17" d="M888.8,168.5c-0.6,3.5-2.1,10.1-5.8,14.7c2.2-0.2,4.4-0.4,6.4-0.7c0.3-6.4,2-10.2,3.5-12.2
	C891.5,169.8,890.1,169.2,888.8,168.5z"/>
<path id="Trazado_860" class="st5" d="M900.2,114.6c0,13.8-2.4,16.2,5.1,19.9c7.5,3.8,6.5,15,2.1,19.4c-1.4,1.3-2.2,3.2-2,5.1
	c0.3,2.3,1.5,4.4,3.4,5.7c2.9,1.7,4.7,4.8,4.9,8.1 M893.8,128.7l-0.5-0.2 M831.5,142.7c-0.5,3.2,0.3,6.4,2.3,8.9
	c2.1,2,3.2,4.9,2.9,7.8c-0.4,3.3-2.2,6.3-4.9,8.2c-1.2,0.7-2.1,1.7-2.7,3"/>
<path id="Trazado_861" class="st5" d="M840.6,107c3.9-6.3,9.7-11.6,17-11.4c6.7,0,10,2.1,11.7,4.1c1.7-2.1,5-4.1,11.7-4.1
	c13,0,19.1,5,19.1,19"/>
<path id="Trazado_862" class="st5" d="M888.3,126.7c-0.6,3.5-1.1,6.7-0.4,10.2c1.3,6.2-0.5,10.5-4,15.3"/>
<path id="Trazado_863" class="st5" d="M845.5,128.4c9.7-3.1,17.8-7.4,22.4-16.5c0.3-0.6,0.9-1,1.5-1c0.7,0,1.3,0.4,1.5,1
	c0.1,0.1,6.6,11.8,22.4,16.5"/>
<path id="Trazado_864" class="st17" d="M858.8,156.6c-4.5-5.7-9.3-12.6-7.9-19.7c0.7-3.4,0.3-6.7-0.3-10"/>
<path id="Trazado_865" class="st5" d="M839.3,112.6c0,13,5.7,20-4.3,24.9c-2,1-3.3,2.9-3.5,5.1"/>
<path id="Trazado_866" class="st5" d="M667.3,181.7h-32.7c-3.4,0-6.1-2.8-6.1-6.1v-54.1"/>
<path id="Trazado_867" class="st17" d="M261.4,195c0,0-105.5,94.6-195.3,0"/>
<rect id="Rectángulo_2096" x="38.2" y="173" class="st3" width="31.6" height="11.4"/>
<rect id="Rectángulo_2097" x="74.1" y="103" class="st3" width="19.3" height="36"/>
<rect id="Rectángulo_2098" x="38.1" y="131.3" class="st3" width="31.6" height="21.9"/>
<g id="Grupo_633">
	<g id="Grupo_632">
		<path id="Trazado_868" class="st5" d="M111.7,184.1c0.3-0.6,0.4-1.3,0.4-1.9c0-2.7-2.2-4.9-5-5c-0.3,0-0.6,0-0.8,0.1
			c-1.2-2.1-3.4-3.4-5.8-3.4c-2.4,0-4.6,1.3-5.8,3.4c-0.3,0-0.6-0.1-0.8-0.1c-2.7,0-4.9,2.2-5,5c0,0.6,0.1,1.1,0.3,1.7 M93.5,153.1
			h-7.9 M85.6,145.2h7.9 M85.6,159.3h7.9v7.9h-7.9V159.3z M38.2,183.8v-10.5h7.9 M69.7,167.1H38.2v-7.9h31.5L69.7,167.1z
			 M46.1,153.1h-7.9v-7.9 M38.2,141.7v-10.5h7.9 M58.3,124.9H38.2v-21.8h20.1V124.9z M50,173.3h7.9 M57.9,153.1H46.1 M46.1,131.2
			h15.8 M57.9,173.3h11.9v10.5 M69.8,145.2v7.8h-7.9 M61.9,131.2h7.9v14 M69.8,125h-7.9v-7.9h7.9V125z M69.8,111h-7.9v-7.8h7.9V111z
			 M81.7,183.8h-7.9v-10.5h7.9V183.8z M81.7,167.1h-7.9v-7.9h7.9V167.1z M81.7,153.1h-7.9v-7.9h11.9 M93.5,139H73.8v-35.9h19.7V139z
			"/>
		<path id="Trazado_869" class="st5" d="M98.9,165.5V99.6c0-0.9-0.7-1.7-1.6-1.7H85.7v-5c0-0.9-0.7-1.7-1.7-1.7H72.5v-1.6
			c0-0.9-0.7-1.7-1.6-1.7h-9.9c-0.9,0-1.6,0.7-1.6,1.7v1.6H47.7c-0.9,0-1.6,0.7-1.6,1.7v5H34.5c-0.9,0-1.7,0.7-1.7,1.6c0,0,0,0,0,0
			v84.2H10.4V177c3.8-0.8,6.6-4.2,6.6-8.1c0-0.2-0.1-21.5-8.3-21.5S0.5,168.7,0.5,169c0,3.9,2.8,7.3,6.6,8.1v6.8H1.7"/>
	</g>
</g>
<path id="Trazado_903" class="st18" d="M157.3,271.5c-8.2-0.3-16.6-1.3-16.6-3.2v4.1c0,1.9,8.5,3.5,16.6,3.5s16.7-1.5,16.7-3.4
	l-0.2-4.3C173.8,270.2,165.5,271.8,157.3,271.5z"/>
<path id="Trazado_904" class="st18" d="M160,265.1c-9.2,0-14.7-1.8-14.7-3.7v4.3c0,1.9,5.5,3.7,14.7,3.7s18.6-1.5,18.6-3.4V262
	C178.5,263.9,169.2,265.1,160,265.1z"/>
<path id="Trazado_905" class="st18" d="M155.9,258.8c-8.9,0.2-14-2.1-14.2-3.4v4.3c1.2,1.6,5.2,3.7,14.1,3.7s19-2,19-3.9l0.2-3.6
	C173,257.4,164.3,258.6,155.9,258.8z"/>
<path id="Trazado_906" class="st19" d="M151.9,251.1c2-0.2,4.1-0.2,6.3-0.2c1.7,0,16.8,0.1,16.8,3.8c0,2.8-8.6,4.3-16.8,4.3
	s-16.8-1.5-16.8-4.3c0-1.3,1.8-2.3,5.5-3"/>
<path id="Trazado_907" class="st20" d="M174.9,254.6v4.3c0,3-9.8,4.3-16.8,4.3s-16.8-1.3-16.8-4.3v-4.3"/>
<path id="Trazado_908" class="st20" d="M144.5,261.3V257"/>
<path id="Trazado_909" class="st20" d="M148.8,262.4V258"/>
<path id="Trazado_910" class="st20" d="M153,263.2v-4.3"/>
<path id="Trazado_911" class="st20" d="M157.2,263.2v-4.3"/>
<path id="Trazado_912" class="st20" d="M161.5,263.2v-4.3"/>
<path id="Trazado_913" class="st20" d="M165.7,263.2v-4.3"/>
<path id="Trazado_914" class="st20" d="M170,262.1v-4.3"/>
<path id="Trazado_915" class="st20" d="M173.8,260.6v-4.3"/>
<path id="Trazado_916" class="st19" d="M175,258.5c2.1,0.6,3.5,1.4,3.5,2.5c0,2.8-8.6,4.3-16.8,4.3c-7.4,0-15.2-1.2-16.6-3.5"/>
<path id="Trazado_917" class="st20" d="M178.6,261v4.3c0,3-9.8,4.3-16.8,4.3s-16.8-1.3-16.8-4.3v-3.8"/>
<path id="Trazado_918" class="st20" d="M148.1,267.7v-4.3"/>
<path id="Trazado_919" class="st20" d="M152.4,268.8v-4.3"/>
<path id="Trazado_920" class="st20" d="M156.6,269.6v-4.3"/>
<path id="Trazado_921" class="st20" d="M160.9,269.6v-4.3"/>
<path id="Trazado_922" class="st20" d="M165.2,269.6v-4.3"/>
<path id="Trazado_923" class="st20" d="M169.4,269.6v-4.3"/>
<path id="Trazado_924" class="st20" d="M173.7,268.5v-4.3"/>
<path id="Trazado_925" class="st20" d="M177.5,267v-4.3"/>
<path id="Trazado_926" class="st19" d="M173.3,268.6c-2.2,1.9-9.3,3-16.1,3c-8.1,0-16.8-1.5-16.8-4.3c0-1.1,1.4-2,4.2-2.7"/>
<path id="Trazado_927" class="st20" d="M174,268.5v3.1c0,3-9.8,4.3-16.8,4.3s-16.8-1.3-16.8-4.3v-4.3"/>
<path id="Trazado_928" class="st20" d="M143.6,274v-4.3"/>
<path id="Trazado_929" class="st20" d="M147.8,275v-4.3"/>
<path id="Trazado_930" class="st20" d="M152,275.8v-4.3"/>
<path id="Trazado_931" class="st20" d="M156.3,275.8v-4.3"/>
<path id="Trazado_932" class="st20" d="M160.6,275.9v-4.3"/>
<path id="Trazado_933" class="st20" d="M164.8,275.9v-4.3"/>
<path id="Trazado_934" class="st20" d="M169.1,274.7v-4.3"/>
<path id="Trazado_935" class="st20" d="M172.9,273.3v-4.3"/>
<g class="st4">
	<path d="M390.5,57.1h-1.3v3.4h-2.6v-10h5c2.2,0,3.5,1.5,3.5,3.3c0,1.7-1.1,2.7-2,3l2,3.7h-3L390.5,57.1z M391.2,52.7h-2v2.2h2
		c0.7,0,1.2-0.4,1.2-1.1C392.4,53.1,391.8,52.7,391.2,52.7z"/>
	<path d="M396,55.5c0-3.1,2.3-5.2,5.3-5.2c2.5,0,3.8,1.4,4.4,2.7l-2.2,1c-0.3-0.8-1.2-1.5-2.2-1.5c-1.6,0-2.7,1.3-2.7,2.9
		c0,1.6,1.2,2.9,2.7,2.9c1,0,1.9-0.7,2.2-1.5l2.2,1c-0.6,1.3-1.9,2.7-4.4,2.7C398.3,60.7,396,58.6,396,55.5z"/>
	<path d="M409.4,54.4v6h-2.6v-10h2.7l4,5.8v-5.8h2.6v10h-2.5L409.4,54.4z"/>
	<path d="M421.3,55.5c0-3.1,2.3-5.2,5.3-5.2c2.5,0,3.8,1.4,4.4,2.7l-2.2,1c-0.3-0.8-1.2-1.5-2.2-1.5c-1.6,0-2.7,1.3-2.7,2.9
		c0,1.6,1.2,2.9,2.7,2.9c1,0,1.9-0.7,2.2-1.5l2.2,1c-0.6,1.3-1.9,2.7-4.4,2.7C423.6,60.7,421.3,58.6,421.3,55.5z"/>
	<path d="M432.1,53.2h2.3v0.9c0.5-0.6,1.4-1.1,2.3-1.1v2.2c-0.1,0-0.3-0.1-0.6-0.1c-0.6,0-1.4,0.3-1.7,0.7v4.6h-2.3V53.2z"/>
	<path d="M441.1,53.1c2.1,0,3.7,1.6,3.7,4v0.5h-5.2c0.1,0.7,0.8,1.3,1.8,1.3c0.6,0,1.4-0.3,1.8-0.6l1,1.4c-0.7,0.6-1.9,1-3,1
		c-2.2,0-4-1.5-4-3.8C437.3,54.8,438.8,53.1,441.1,53.1z M439.6,56.1h3c-0.1-0.5-0.4-1.2-1.5-1.2C440.1,54.8,439.7,55.6,439.6,56.1z
		"/>
	<path d="M450.8,59.6c-0.6,0.7-1.3,1-2.1,1c-1.8,0-3.2-1.3-3.2-3.8c0-2.4,1.4-3.8,3.2-3.8c0.8,0,1.6,0.3,2.1,1v-3.6h2.3v10h-2.3
		V59.6z M450.8,55.7c-0.3-0.4-0.9-0.6-1.4-0.6c-0.9,0-1.6,0.7-1.6,1.8s0.7,1.8,1.6,1.8c0.5,0,1.1-0.3,1.4-0.7V55.7z"/>
	<path d="M454.7,51c0-0.7,0.6-1.3,1.3-1.3c0.7,0,1.3,0.6,1.3,1.3c0,0.7-0.6,1.3-1.3,1.3C455.2,52.3,454.7,51.7,454.7,51z
		 M454.8,53.2h2.3v7.2h-2.3V53.2z"/>
	<path d="M459.3,58.5v-3.3h-1.2v-2h1.2v-2h2.3v2h1.5v2h-1.5v2.6c0,0.4,0.2,0.7,0.6,0.7c0.3,0,0.5-0.1,0.6-0.2l0.5,1.7
		c-0.3,0.3-0.9,0.5-1.7,0.5C460.1,60.7,459.3,59.9,459.3,58.5z"/>
	<path d="M476.9,53.7l-2.5,6.8h-1.1l-2.5-6.8v6.8h-2.6v-10h3.6l2.1,5.7l2.1-5.7h3.6v10h-2.6V53.7z"/>
	<path d="M485.5,59.8c-0.5,0.5-1.3,0.9-2.2,0.9c-1.1,0-2.5-0.8-2.5-2.4c0-1.8,1.4-2.3,2.5-2.3c1,0,1.8,0.3,2.2,0.8v-0.9
		c0-0.6-0.5-1-1.5-1c-0.7,0-1.5,0.3-2.1,0.8l-0.8-1.5c0.9-0.8,2.2-1.1,3.3-1.1c1.7,0,3.4,0.6,3.4,2.9v4.5h-2.3V59.8z M485.5,58
		c-0.2-0.3-0.8-0.5-1.3-0.5c-0.6,0-1.2,0.3-1.2,0.8s0.5,0.8,1.2,0.8c0.5,0,1-0.2,1.3-0.5V58z"/>
	<path d="M489.5,53.2h2.3v0.9c0.5-0.6,1.4-1.1,2.3-1.1v2.2c-0.1,0-0.3-0.1-0.6-0.1c-0.6,0-1.4,0.3-1.7,0.7v4.6h-2.3V53.2z"/>
	<path d="M498.1,57.9l-0.7,0.8v1.7h-2.3v-10h2.3v5.7l2.2-2.9h2.8l-2.7,3.3l2.8,3.9h-2.8L498.1,57.9z"/>
	<path d="M506.4,53.1c2.1,0,3.7,1.6,3.7,4v0.5H505c0.1,0.7,0.8,1.3,1.8,1.3c0.6,0,1.4-0.3,1.8-0.6l1,1.4c-0.7,0.6-1.9,1-3,1
		c-2.2,0-4-1.5-4-3.8C502.6,54.8,504.2,53.1,506.4,53.1z M504.9,56.1h3c-0.1-0.5-0.4-1.2-1.5-1.2C505.4,54.8,505,55.6,504.9,56.1z"
		/>
	<path d="M511.8,58.5v-3.3h-1.2v-2h1.2v-2h2.3v2h1.5v2h-1.5v2.6c0,0.4,0.2,0.7,0.6,0.7c0.3,0,0.5-0.1,0.6-0.2l0.5,1.7
		c-0.3,0.3-0.9,0.5-1.7,0.5C512.6,60.7,511.8,59.9,511.8,58.5z"/>
	<path d="M516.7,63.2v-10h2.3v0.8c0.6-0.7,1.3-1,2.1-1c1.8,0,3.2,1.3,3.2,3.8c0,2.5-1.4,3.8-3.2,3.8c-0.8,0-1.5-0.3-2.1-1v3.6H516.7
		z M520.4,55.1c-0.5,0-1.1,0.3-1.4,0.7V58c0.3,0.4,0.9,0.7,1.4,0.7c0.9,0,1.6-0.7,1.6-1.8C522,55.8,521.3,55.1,520.4,55.1z"/>
	<path d="M525.5,50.5h2.3v10h-2.3V50.5z"/>
	<path d="M533.8,59.8c-0.5,0.5-1.3,0.9-2.2,0.9c-1.1,0-2.5-0.8-2.5-2.4c0-1.8,1.4-2.3,2.5-2.3c1,0,1.8,0.3,2.2,0.8v-0.9
		c0-0.6-0.5-1-1.5-1c-0.7,0-1.5,0.3-2.1,0.8l-0.8-1.5c0.9-0.8,2.2-1.1,3.3-1.1c1.7,0,3.4,0.6,3.4,2.9v4.5h-2.3V59.8z M533.8,58
		c-0.2-0.3-0.8-0.5-1.3-0.5c-0.6,0-1.2,0.3-1.2,0.8s0.5,0.8,1.2,0.8c0.5,0,1-0.2,1.3-0.5V58z"/>
	<path d="M541.3,53.1c1.6,0,2.5,0.7,3,1.3l-1.5,1.4c-0.3-0.4-0.8-0.7-1.4-0.7c-1,0-1.7,0.7-1.7,1.8s0.7,1.8,1.7,1.8
		c0.6,0,1.1-0.3,1.4-0.7l1.5,1.4c-0.4,0.6-1.4,1.3-3,1.3c-2.3,0-4-1.5-4-3.8C537.3,54.6,539,53.1,541.3,53.1z"/>
	<path d="M548.7,53.1c2.1,0,3.7,1.6,3.7,4v0.5h-5.2c0.1,0.7,0.8,1.3,1.8,1.3c0.6,0,1.4-0.3,1.8-0.6l1,1.4c-0.7,0.6-1.9,1-3,1
		c-2.2,0-4-1.5-4-3.8C544.8,54.8,546.4,53.1,548.7,53.1z M547.2,56.1h3c-0.1-0.5-0.4-1.2-1.5-1.2C547.7,54.8,547.3,55.6,547.2,56.1z
		"/>
</g>
<line id="Línea_1867" class="st21" x1="386.4" y1="66.6" x2="551.4" y2="66.6"/>
<path id="Polígono_11" class="st22" d="M214.9,138.6l-7,4v-8L214.9,138.6z"/>
<path id="Polígono_12" class="st22" d="M403.9,138.6l-7,4v-8L403.9,138.6z"/>
<path id="Polígono_13" class="st22" d="M610.9,138.6l-7,4v-8L610.9,138.6z"/>
<line id="Línea_1734" class="st17" x1="808.7" y1="138.5" x2="734.2" y2="138.5"/>
<path id="Polígono_14" d="M732.9,138.6l7-4v8L732.9,138.6z"/>
<path id="Polígono_16" d="M63.9,193.1l7.8,2.1l-5.7,5.7L63.9,193.1z"/>
<path id="Trazado_1251" class="st17" d="M871.4,195c0,0-105.5,94.6-195.3,0"/>
<path id="Trazado_903-2" class="st18" d="M767.3,271.5c-8.2-0.3-16.6-1.3-16.6-3.2v4.1c0,1.9,8.5,3.5,16.6,3.5
	c8.2,0,16.7-1.5,16.7-3.4l-0.2-4.3C783.8,270.2,775.5,271.8,767.3,271.5z"/>
<path id="Trazado_904-2" class="st18" d="M770,265.1c-9.2,0-14.7-1.8-14.7-3.7v4.3c0,1.9,5.5,3.7,14.7,3.7c9.2,0,18.6-1.5,18.6-3.4
	V262C788.5,263.9,779.2,265.1,770,265.1z"/>
<path id="Trazado_905-2" class="st18" d="M765.9,258.8c-8.9,0.2-14-2.1-14.2-3.4v4.3c1.2,1.6,5.2,3.7,14.1,3.7c8.9,0,19-2,19-3.9
	l0.2-3.6C783,257.4,774.3,258.6,765.9,258.8z"/>
<path id="Trazado_906-2" class="st19" d="M761.9,251.1c2-0.2,4.1-0.2,6.3-0.2c1.7,0,16.8,0.1,16.8,3.8c0,2.8-8.6,4.3-16.8,4.3
	c-8.1,0-16.8-1.5-16.8-4.3c0-1.3,1.8-2.3,5.5-3"/>
<path id="Trazado_907-2" class="st20" d="M784.9,254.6v4.3c0,3-9.8,4.3-16.8,4.3c-7,0-16.8-1.3-16.8-4.3v-4.3"/>
<path id="Trazado_908-2" class="st20" d="M754.5,261.3V257"/>
<path id="Trazado_909-2" class="st20" d="M758.8,262.4V258"/>
<path id="Trazado_910-2" class="st20" d="M763,263.2v-4.3"/>
<path id="Trazado_911-2" class="st20" d="M767.2,263.2v-4.3"/>
<path id="Trazado_912-2" class="st20" d="M771.5,263.2v-4.3"/>
<path id="Trazado_913-2" class="st20" d="M775.7,263.2v-4.3"/>
<path id="Trazado_914-2" class="st20" d="M780,262.1v-4.3"/>
<path id="Trazado_915-2" class="st20" d="M783.8,260.6v-4.3"/>
<path id="Trazado_916-2" class="st19" d="M785,258.5c2.1,0.6,3.5,1.4,3.5,2.5c0,2.8-8.6,4.3-16.8,4.3c-7.4,0-15.2-1.2-16.6-3.5"/>
<path id="Trazado_917-2" class="st20" d="M788.6,261v4.3c0,3-9.8,4.3-16.8,4.3c-7,0-16.8-1.3-16.8-4.3v-3.8"/>
<path id="Trazado_918-2" class="st20" d="M758.1,267.7v-4.3"/>
<path id="Trazado_919-2" class="st20" d="M762.4,268.8v-4.3"/>
<path id="Trazado_920-2" class="st20" d="M766.6,269.6v-4.3"/>
<path id="Trazado_921-2" class="st20" d="M770.9,269.6v-4.3"/>
<path id="Trazado_922-2" class="st20" d="M775.2,269.6v-4.3"/>
<path id="Trazado_923-2" class="st20" d="M779.4,269.6v-4.3"/>
<path id="Trazado_924-2" class="st20" d="M783.7,268.5v-4.3"/>
<path id="Trazado_925-2" class="st20" d="M787.5,267v-4.3"/>
<path id="Trazado_926-2" class="st19" d="M783.3,268.6c-2.2,1.9-9.3,3-16.1,3c-8.1,0-16.8-1.5-16.8-4.3c0-1.1,1.4-2,4.2-2.7"/>
<path id="Trazado_927-2" class="st20" d="M784,268.5v3.1c0,3-9.8,4.3-16.8,4.3s-16.8-1.3-16.8-4.3v-4.3"/>
<path id="Trazado_928-2" class="st20" d="M753.6,274v-4.3"/>
<path id="Trazado_929-2" class="st20" d="M757.8,275v-4.3"/>
<path id="Trazado_930-2" class="st20" d="M762,275.8v-4.3"/>
<path id="Trazado_931-2" class="st20" d="M766.3,275.8v-4.3"/>
<path id="Trazado_932-2" class="st20" d="M770.6,275.9v-4.3"/>
<path id="Trazado_933-2" class="st20" d="M774.8,275.9v-4.3"/>
<path id="Trazado_934-2" class="st20" d="M779.1,274.7v-4.3"/>
<path id="Trazado_935-2" class="st20" d="M782.9,273.3v-4.3"/>
<path id="Polígono_17" d="M673.9,193.1l7.8,2.1l-5.7,5.7L673.9,193.1z"/>
</svg>
