<?xml version="1.0" encoding="utf-8"?>
<!-- Generator: Adobe Illustrator 23.0.6, SVG Export Plug-In . SVG Version: 6.00 Build 0)  -->
<svg version="1.1" id="Capa_1" xmlns="http://www.w3.org/2000/svg" xmlns:xlink="http://www.w3.org/1999/xlink" x="0px" y="0px"
	 viewBox="0 0 91 91" style="enable-background:new 0 0 91 91;" xml:space="preserve">
<style type="text/css">
	.st0{fill:#404FFF;}
	.st1{fill:#FFC400;}
</style>
<g id="Grupo_556" transform="translate(-1907.709 158.525)">
	<g id="Trazado_317">
		<path class="st0" d="M1914.1-75.3c-3.5,0-6.3-2.8-6.3-6.3v-62.8c0-3.5,2.8-6.3,6.3-6.3h51.4c3.5,0,6.3,2.8,6.3,6.3v6.5
			c0,0.6-0.5,1.1-1.1,1.1s-1.1-0.5-1.1-1.1v-6.5c0-2.3-1.9-4.2-4.2-4.2H1914c-1.1,0-2.2,0.4-2.9,1.2c-0.8,0.8-1.2,1.8-1.2,2.9v62.8
			c0,1.1,0.4,2.2,1.2,2.9c0.8,0.8,1.8,1.2,2.9,1.2l0,0h51.4c2.3,0,4.2-1.9,4.2-4.2V-86c0-0.6,0.5-1.1,1.1-1.1s1.1,0.5,1.1,1.1v4.2
			c0,3.5-2.8,6.3-6.3,6.3"/>
	</g>
	<path class="st1" d="M1932-116h7.5c0.6,0,1.1,0.5,1.1,1.1v7.5c0,0.6-0.5,1.1-1.1,1.1h-7.5c-0.6,0-1.1-0.5-1.1-1.1v-7.5
		C1931-115.5,1931.4-116,1932-116z"/>
	<path class="st0" d="M1950.6-112.2h-8.9v-2.7c0-1.2-1-2.2-2.2-2.2h-7.5c-1.2,0-2.2,1-2.2,2.2v7.5c0,1.2,1,2.2,2.2,2.2h7.5
		c1.2,0,2.2-1,2.2-2.2v-2.7h8.9c0.6,0,1.1-0.5,1.1-1.1C1951.7-111.7,1951.2-112.2,1950.6-112.2z M1932-114.9L1932-114.9v-1.1V-114.9
		z M1932-107.4v-7.5h7.5v3.7l0,0l0,0v3.7L1932-107.4z"/>
	<g id="Línea_1222">
		<path class="st0" d="M1980.3-110h-21.6c-0.6,0-1.1-0.5-1.1-1.1s0.5-1.1,1.1-1.1h21.6c0.6,0,1.1,0.5,1.1,1.1S1980.9-110,1980.3-110
			z"/>
	</g>
	<path class="st1" d="M1945.9-131.1h7.5c0.6,0,1.1,0.5,1.1,1.1v7.5c0,0.6-0.5,1.1-1.1,1.1h-7.5c-0.6,0-1.1-0.5-1.1-1.1v-7.5
		C1944.8-130.7,1945.3-131.1,1945.9-131.1z"/>
	<path class="st0" d="M1964.5-127.4h-8.9v-2.7c0-1.2-1-2.2-2.2-2.2h-7.5c-1.2,0-2.2,1-2.2,2.2v7.5c0,1.2,1,2.2,2.2,2.2h7.5
		c1.2,0,2.2-1,2.2-2.2v-2.7h8.9c0.6,0,1.1-0.5,1.1-1.1C1965.6-126.9,1965.1-127.4,1964.5-127.4z M1945.9-130.1L1945.9-130.1v-1.1
		V-130.1z M1945.9-122.5v-7.5h7.5v3.7l0,0l0,0v3.7L1945.9-122.5z"/>
	<g id="Línea_1224">
		<path class="st0" d="M1981.5-125.2h-8.9c-0.6,0-1.1-0.5-1.1-1.1s0.5-1.1,1.1-1.1h8.9c0.6,0,1.1,0.5,1.1,1.1
			S1982.1-125.2,1981.5-125.2z"/>
	</g>
	<path class="st1" d="M1947.2-100.8h7.5c0.6,0,1.1,0.5,1.1,1.1v7.5c0,0.6-0.5,1.1-1.1,1.1h-7.5c-0.6,0-1.1-0.5-1.1-1.1v-7.5
		C1946.1-100.3,1946.6-100.8,1947.2-100.8z"/>
	<path class="st0" d="M1965.7-97.1h-8.9v-2.7c0-1.2-1-2.2-2.2-2.2h-7.5c-1.2,0-2.2,1-2.2,2.2v7.5c0,1.2,1,2.2,2.2,2.2h7.5
		c1.2,0,2.2-1,2.2-2.2V-95h8.9c0.6,0,1.1-0.5,1.1-1.1C1966.8-96.6,1966.4-97.1,1965.7-97.1z M1947.2-99.7L1947.2-99.7v-1.1V-99.7z
		 M1947.2-92.2v-7.5h7.5v3.7l0,0l0,0v3.7L1947.2-92.2z"/>
	<g id="Línea_1226">
		<path class="st0" d="M1997.5-94.9h-23.7c-0.6,0-1.1-0.5-1.1-1.1s0.5-1.1,1.1-1.1h23.7c0.6,0,1.1,0.5,1.1,1.1
			S1998.1-94.9,1997.5-94.9z"/>
	</g>
</g>
</svg>
