<?xml version="1.0" encoding="utf-8"?>
<!-- Generator: Adobe Illustrator 23.0.6, SVG Export Plug-In . SVG Version: 6.00 Build 0)  -->
<svg version="1.1" id="Capa_1" xmlns="http://www.w3.org/2000/svg" xmlns:xlink="http://www.w3.org/1999/xlink" x="0px" y="0px"
	 viewBox="0 0 91 91" style="enable-background:new 0 0 91 91;" xml:space="preserve">
<style type="text/css">
	.st0{fill:#FFC400;}
	.st1{fill:#404FFF;}
</style>
<path class="st0" d="M55.6,36.5v15.9c0,1-0.8,1.8-1.8,1.8H37.9c-1,0-1.8-0.8-1.8-1.8V36.5c0-1,0.8-1.8,1.8-1.8h15.9
	C54.8,34.7,55.6,35.5,55.6,36.5z"/>
<path class="st0" d="M7.1,77.6v-10c0-1.2,1-2.3,2.3-2.3h12.1c1.2,0,2.3,1,2.3,2.3v12.1c0,1.2-1,2.3-2.3,2.3H9.4
	c-1.2,0-2.3-1-2.3-2.3V77.6"/>
<path class="st0" d="M50.8,14.6v6c0,1-0.8,1.8-1.8,1.8h-6c-1,0-1.8-0.8-1.8-1.8v-6c0-1,0.8-1.8,1.8-1.8h6
	C50,12.8,50.8,13.6,50.8,14.6z"/>
<path class="st0" d="M77,71.4v6c0,1-0.8,1.8-1.8,1.8h-6c-1,0-1.8-0.8-1.8-1.8v-6c0-1,0.8-1.8,1.8-1.8h6C76.2,69.7,77,70.5,77,71.4z"
	/>
<path class="st1" d="M88.1,2.3c0.4-0.4,0.4-1.1,0-1.5s-1.1-0.4-1.5,0l-5.1,5.1c0,0-0.1,0.1-0.1,0.2c-0.5-0.2-1-0.4-1.5-0.4h-6.2
	c-0.6,0-1.1,0.5-1.1,1.1s0.5,1.1,1.1,1.1h6.2C80.5,7.8,81,8.3,81,9v15c0,0.7-0.5,1.2-1.2,1.2h-15c-0.7,0-1.2-0.5-1.2-1.2V9
	c0-0.7,0.5-1.2,1.2-1.2h1.7c0.6,0,1.1-0.5,1.1-1.1s-0.5-1.1-1.1-1.1h-1.7c-1.8,0-3.3,1.5-3.3,3.3v7.5h-9.7v-1.9
	c0-1.6-1.3-2.8-2.8-2.8h-6c-1.6,0-2.8,1.3-2.8,2.8v1.9H24.7v-2.9c0-0.6-0.5-1.1-1.1-1.1s-1.1,0.5-1.1,1.1v7.1c0,0.7-0.5,1.2-1.2,1.2
	H13c-0.7,0-1.2-0.5-1.2-1.2v-8.4c0-0.7,0.5-1.2,1.2-1.2h6.4c0.6,0,1.1-0.5,1.1-1.1S20,8.9,19.4,8.9H13c-1.8,0-3.3,1.5-3.3,3.3v4.3
	h-6c-0.6,0-1.1,0.5-1.1,1.1s0.5,1.1,1.1,1.1h6v2.1c0,1.8,1.5,3.3,3.3,3.3h8.4c0.6,0,1.1-0.2,1.6-0.4l12.2,11.9c0,0,0,0,0,0
	c-0.1,0.3-0.2,0.7-0.2,1v15.9c0,1.6,1.3,2.8,2.8,2.8h15.9c1.6,0,2.8-1.3,2.8-2.8v-6.9h7.6c0.1,0,0.1,0,0.2,0v3.2
	c0,1.8,1.5,3.3,3.3,3.3h3.8c-0.1,0.1-0.1,0.3-0.1,0.4v16.2c0,0,0,0,0,0h-2.2c-1.6,0-2.8,1.3-2.8,2.8v1.9h-13v-2.6
	c0-1.8-1.5-3.3-3.3-3.3h-8.4c-1.8,0-3.3,1.5-3.3,3.3v2H24.7v-5.2c0-1.8-1.5-3.3-3.3-3.3h-5V49.2c0-0.6-0.5-1.1-1.1-1.1
	c-0.6,0-1.1,0.5-1.1,1.1v15.2H9.4c-1.8,0-3.3,1.5-3.3,3.3v12.1C6,81.5,7.5,83,9.4,83h12.1c0.5,0,1-0.1,1.4-0.3l7.8,7.5
	c0.2,0.2,0.5,0.3,0.7,0.3c0.3,0,0.6-0.1,0.8-0.3c0.4-0.4,0.4-1.1,0-1.5l-7.7-7.4c0.2-0.5,0.4-1,0.4-1.5v-4.8h13.6v3.5
	c0,0.6,0.5,1.1,1.1,1.1s1.1-0.5,1.1-1.1v-7.6c0-0.7,0.5-1.2,1.2-1.2h8.4c0.7,0,1.2,0.5,1.2,1.2v8.4c0,0.7-0.5,1.2-1.2,1.2h-6.8
	c-0.6,0-1.1,0.5-1.1,1.1c0,0.6,0.5,1.1,1.1,1.1h6.8c1.8,0,3.3-1.5,3.3-3.3v-3.8h13v1.9c0,1.6,1.3,2.8,2.8,2.8h6
	c1.6,0,2.8-1.3,2.8-2.8v-1.6h6.5c0.6,0,1.1-0.5,1.1-1.1c0-0.6-0.5-1.1-1.1-1.1h-6.5v-2.2c0-1.6-1.3-2.8-2.8-2.8h-1.6c0,0,0,0,0,0
	V52.3c0-0.1,0-0.3-0.1-0.4h1.9c0.6,0,1.1-0.5,1.1-1.1s-0.5-1.1-1.1-1.1h-7.6c-0.7,0-1.2-0.5-1.2-1.2v-8.4c0-0.7,0.5-1.2,1.2-1.2h8.4
	c0.7,0,1.2,0.5,1.2,1.2V46c0,0.6,0.5,1.1,1.1,1.1c0.6,0,1.1-0.5,1.1-1.1v-5.9c0-1.8-1.5-3.3-3.3-3.3h-8.4c-1.8,0-3.3,1.5-3.3,3.3
	v3.2c-0.1,0-0.1,0-0.2,0h-7.6v-6.9c0-1.6-1.3-2.8-2.8-2.8H37.9c-0.4,0-0.8,0.1-1.2,0.3L24.4,22c0.2-0.4,0.3-0.9,0.3-1.3v-2.1h15.5
	v1.9c0,1.6,1.3,2.8,2.8,2.8h6c1.6,0,2.8-1.3,2.8-2.8v-1.9h9.7v5.3c0,1.8,1.5,3.3,3.3,3.3h6.6v4.3c0,0.6,0.5,1.1,1.1,1.1
	s1.1-0.5,1.1-1.1v-4.3h6.3c1.8,0,3.3-1.5,3.3-3.3V9c0-0.5-0.1-1-0.4-1.5c0.1,0,0.1-0.1,0.2-0.1L88.1,2.3z M21.4,80.9H9.4
	c-0.7,0-1.2-0.5-1.2-1.2V67.6c0-0.7,0.5-1.2,1.2-1.2h12.1c0.7,0,1.2,0.5,1.2,1.2v12.1C22.6,80.4,22.1,80.9,21.4,80.9z M75.2,70.7
	c0.4,0,0.7,0.3,0.7,0.7v6c0,0.4-0.3,0.7-0.7,0.7h-6c-0.4,0-0.7-0.3-0.7-0.7v-6c0-0.4,0.3-0.7,0.7-0.7H75.2z M37.2,36.5
	c0-0.4,0.3-0.7,0.7-0.7h15.9c0.4,0,0.7,0.3,0.7,0.7v15.9c0,0.4-0.3,0.7-0.7,0.7H37.9c-0.4,0-0.7-0.3-0.7-0.7V36.5z M49.7,20.5
	c0,0.4-0.3,0.7-0.7,0.7h-6c-0.4,0-0.7-0.3-0.7-0.7v-6c0-0.4,0.3-0.7,0.7-0.7h6c0.4,0,0.7,0.3,0.7,0.7V20.5z"/>
</svg>
