<svg xmlns="http://www.w3.org/2000/svg" width="836.723" height="739.612" viewBox="0 0 836.723 739.612"><defs><style>.a{fill:none;stroke:#707070;opacity:0.159;}</style></defs><path class="a" d="M-3002.8-2277.473a22.379,22.379,0,0,0-29.8,10.63,441.95,441.95,0,0,1-26.5,48.029c-50.405-144.036-187.682-247.626-348.7-247.626-203.638,0-369.308,165.671-369.308,369.305a370.144,370.144,0,0,0,5.772,65.253,469.417,469.417,0,0,0-52.1,85.272,22.374,22.374,0,0,0,10.629,29.8,22.288,22.288,0,0,0,9.57,2.163,22.377,22.377,0,0,0,20.23-12.793,441.942,441.942,0,0,1,26.5-48.025c50.4,144.039,187.685,247.632,348.712,247.632,203.635,0,369.3-165.671,369.3-369.306a370.106,370.106,0,0,0-5.773-65.26,469.423,469.423,0,0,0,52.1-85.274A22.376,22.376,0,0,0-3002.8-2277.473Zm-80.445,180.339c0,178.964-145.595,324.562-324.557,324.562-152.65,0-281.021-105.93-315.473-248.14,59.6-70.636,142.4-120.848,247.353-149.8,68.758-18.964,131.5-23.887,169.529-24.873l-80.552,80.561,31.642,31.637,134.666-134.681-153.96-153.967-31.638,31.639,99.954,99.958a762.225,762.225,0,0,0-180.138,26.21c-99.141,27.122-181.948,73.631-245.323,137.051q-.615-10-.621-20.159c0-178.962,145.6-324.561,324.563-324.561,152.645,0,281.012,105.926,315.466,248.131-59.6,70.635-142.4,120.848-247.349,149.8-68.76,18.966-131.51,23.89-169.534,24.875l80.551-80.563-31.641-31.638-134.67,134.689,153.973,153.965,31.64-31.639-99.965-99.961a761.85,761.85,0,0,0,180.145-26.208c99.139-27.123,181.946-73.633,245.32-137.054Q-3083.254-2107.293-3083.248-2097.134Z" transform="translate(3826.169 2466.939)"/></svg>