<?xml version="1.0" encoding="utf-8"?>
<!-- Generator: Adobe Illustrator 25.0.0, SVG Export Plug-In . SVG Version: 6.00 Build 0)  -->
<svg version="1.1" id="Capa_1" xmlns="http://www.w3.org/2000/svg" xmlns:xlink="http://www.w3.org/1999/xlink" x="0px" y="0px"
	 viewBox="0 0 110 70" style="enable-background:new 0 0 110 70;" xml:space="preserve">
<style type="text/css">
	.st0{fill:#3B99FC;}
</style>
<g id="Page-1">
	<g id="walletconnect-logo-alt">
		<path id="WalletConnect" class="st0" d="M23,14.6c17.6-17.3,46.2-17.3,63.9,0l2.1,2.1c0.9,0.9,0.9,2.3,0,3.1l-7.3,7.1
			c-0.4,0.4-1.2,0.4-1.6,0L77.2,24C64.9,12,44.9,12,32.6,24l-3.1,3.1c-0.4,0.4-1.2,0.4-1.6,0L20.6,20c-0.9-0.9-0.9-2.3,0-3.1
			L23,14.6z M101.9,29.3l6.5,6.3c0.9,0.9,0.9,2.3,0,3.1L79.2,67.3c-0.9,0.9-2.3,0.9-3.2,0l0,0L55.3,47c-0.2-0.2-0.6-0.2-0.8,0l0,0
			L33.8,67.3c-0.9,0.9-2.3,0.9-3.2,0l0,0L1.5,38.7c-0.9-0.9-0.9-2.3,0-3.1L8,29.3c0.9-0.9,2.3-0.9,3.2,0l20.7,20.3
			c0.2,0.2,0.6,0.2,0.8,0l0,0l20.7-20.3c0.9-0.9,2.3-0.9,3.2,0l0,0l20.7,20.3c0.2,0.2,0.6,0.2,0.8,0l20.7-20.3
			C99.6,28.4,101,28.4,101.9,29.3z"/>
	</g>
</g>
</svg>
