<?xml version="1.0" encoding="utf-8"?>
<!-- Generator: Adobe Illustrator 25.0.0, SVG Export Plug-In . SVG Version: 6.00 Build 0)  -->
<svg version="1.1" id="Capa_1" xmlns="http://www.w3.org/2000/svg" xmlns:xlink="http://www.w3.org/1999/xlink" x="0px" y="0px"
	 viewBox="0 0 110 70" style="enable-background:new 0 0 110 70;" xml:space="preserve">
<style type="text/css">
	.st0{fill:#DC6BE5;}
</style>
<g id="uniswap-logo">
	<path id="Path" class="st0" d="M84.6,16.9c-1.5,1.5-4,1.4-5.5-0.1l-4-4.1c-5.9-6.1-15.6-6.3-21.8-0.5L26.6,37.3l25.3,0.6
		c2.1,0.1,3.8,1.8,3.7,3.9c-0.1,2.1-1.8,3.8-3.9,3.7L17,44.7c-2.1-0.1-3.8-1.8-3.7-3.9l0.9-34.4c0.1-2.1,1.8-3.8,3.9-3.7
		s3.8,1.8,3.7,3.9l-0.6,25.1L48,6.5c9.3-8.7,23.9-8.3,32.7,0.8l4,4.1C86.2,13,86.1,15.4,84.6,16.9z"/>
	<path id="Path_1_" class="st0" d="M25.4,52.4c1.5-1.5,4-1.4,5.5,0.1l4,4.1c5.9,6.1,15.6,6.3,21.8,0.5l26.7-25.3l-25.3-0.6
		c-2.1-0.1-3.8-1.8-3.7-3.9c0.1-2.1,1.8-3.8,3.9-3.7L93,24.5c2.1,0.1,3.8,1.8,3.7,3.9l-0.9,34.4c-0.1,2.1-1.8,3.8-3.9,3.7
		s-3.8-1.8-3.7-3.9l0.6-25.1L62,62.7c-9.3,8.7-23.9,8.3-32.7-0.8l-4-4.1C23.8,56.2,23.9,53.8,25.4,52.4z"/>
</g>
</svg>
