<?xml version="1.0" encoding="utf-8"?>
<!-- Generator: Adobe Illustrator 25.0.0, SVG Export Plug-In . SVG Version: 6.00 Build 0)  -->
<svg version="1.1" id="Capa_1" xmlns="http://www.w3.org/2000/svg" xmlns:xlink="http://www.w3.org/1999/xlink" x="0px" y="0px"
	 viewBox="0 0 110 70" style="enable-background:new 0 0 110 70;" xml:space="preserve">
<style type="text/css">
	.st0{clip-path:url(#SVGID_2_);}
	.st1{fill:#7908FF;}
</style>
<g>
	<defs>
		<rect id="SVGID_1_" x="0.7" y="8.8" width="108.3" height="51.5"/>
	</defs>
	<clipPath id="SVGID_2_">
		<use xlink:href="#SVGID_1_"  style="overflow:visible;"/>
	</clipPath>
	<g id="Grupo_840" class="st0">
		<path id="Trazado_1288" class="st1" d="M8.9,26.9L8.9,26.9c1.6-2.7,4.5-4.3,7.6-4.1h1.6v7.9c-1.1-0.6-2.3-0.8-3.5-0.8
			c-4.6,0-5.7,3-5.7,7v9.4H0.7V23h8.3V26.9z"/>
		<rect id="Rectángulo_2421" x="22.4" y="23" class="st1" width="8.3" height="23.3"/>
		<path id="Trazado_1289" class="st1" d="M45.2,25.7L45.2,25.7c1.7-2.2,4.4-3.5,7.1-3.4c7,0,11.8,5.8,11.8,12.5
			c0,6.7-4.8,12.4-11.7,12.4c-2.7,0.1-5.4-1-7.2-3v12.8l-8.3,3.5V23h8.3L45.2,25.7z M44.9,34.7c-0.1,2.7,2,5.1,4.7,5.2
			c0.2,0,0.4,0,0.6,0c2.7,0.2,5.1-1.9,5.3-4.6c0-0.2,0-0.4,0-0.6c0.1-2.8-2.1-5.2-4.9-5.3c-0.2,0-0.3,0-0.5,0
			c-2.8-0.1-5.2,2-5.3,4.8C44.9,34.4,44.9,34.6,44.9,34.7"/>
		<rect id="Rectángulo_2422" x="68.5" y="23" class="st1" width="8.3" height="23.3"/>
		<path id="Trazado_1290" class="st1" d="M109,34.7c0,7.9-6.5,12.4-14,12.4c-7.4,0-14-4.5-14-12.4s6.5-12.4,14-12.4
			C102.5,22.3,109,26.8,109,34.7 M89.6,34.7c0,2.9,2.5,5.3,5.4,5.2c2.9,0,5.2-2.4,5.2-5.2c0-2.9-2.5-5.3-5.4-5.2
			C92,29.5,89.7,31.8,89.6,34.7"/>
		<path id="Trazado_1291" class="st1" d="M30.7,16.6l-8.1,3.3v-7.7l8.1-3.3L30.7,16.6z"/>
		<path id="Trazado_1292" class="st1" d="M76.7,16.6l-8.1,3.3v-7.7l8.1-3.3L76.7,16.6z"/>
	</g>
</g>
</svg>
