<?xml version="1.0" encoding="utf-8"?>
<!-- Generator: Adobe Illustrator 25.0.0, SVG Export Plug-In . SVG Version: 6.00 Build 0)  -->
<svg version="1.1" id="Capa_1" xmlns="http://www.w3.org/2000/svg" xmlns:xlink="http://www.w3.org/1999/xlink" x="0px" y="0px"
	 viewBox="0 0 110 70" style="enable-background:new 0 0 110 70;" xml:space="preserve">
<style type="text/css">
	.st0{fill:#E2761B;stroke:#E2761B;stroke-linecap:round;stroke-linejoin:round;}
	.st1{fill:#E4761B;stroke:#E4761B;stroke-linecap:round;stroke-linejoin:round;}
	.st2{fill:#D7C1B3;stroke:#D7C1B3;stroke-linecap:round;stroke-linejoin:round;}
	.st3{fill:#233447;stroke:#233447;stroke-linecap:round;stroke-linejoin:round;}
	.st4{fill:#CD6116;stroke:#CD6116;stroke-linecap:round;stroke-linejoin:round;}
	.st5{fill:#E4751F;stroke:#E4751F;stroke-linecap:round;stroke-linejoin:round;}
	.st6{fill:#F6851B;stroke:#F6851B;stroke-linecap:round;stroke-linejoin:round;}
	.st7{fill:#C0AD9E;stroke:#C0AD9E;stroke-linecap:round;stroke-linejoin:round;}
	.st8{fill:#161616;stroke:#161616;stroke-linecap:round;stroke-linejoin:round;}
	.st9{fill:#763D16;stroke:#763D16;stroke-linecap:round;stroke-linejoin:round;}
</style>
<g>
	<polygon class="st0" points="87.8,1.9 59.9,22.6 65,10.4 	"/>
	<g>
		<polygon class="st1" points="23.4,1.9 51.1,22.8 46.1,10.4 		"/>
		<polygon class="st1" points="77.7,49.9 70.3,61.3 86.2,65.7 90.8,50.2 		"/>
		<polygon class="st1" points="20.5,50.2 25,65.7 40.9,61.3 33.5,49.9 		"/>
		<polygon class="st1" points="40,30.7 35.6,37.4 51.3,38.1 50.8,21.1 		"/>
		<polygon class="st1" points="71.2,30.7 60.2,20.9 59.9,38.1 75.6,37.4 		"/>
		<polygon class="st1" points="40.9,61.3 50.4,56.7 42.2,50.3 		"/>
		<polygon class="st1" points="60.8,56.7 70.3,61.3 69,50.3 		"/>
	</g>
	<g>
		<polygon class="st2" points="70.3,61.3 60.8,56.7 61.6,62.9 61.5,65.5 		"/>
		<polygon class="st2" points="40.9,61.3 49.7,65.5 49.7,62.9 50.4,56.7 		"/>
	</g>
	<polygon class="st3" points="49.9,46.2 41.9,43.9 47.5,41.3 	"/>
	<polygon class="st3" points="61.3,46.2 63.6,41.3 69.2,43.9 	"/>
	<g>
		<polygon class="st4" points="40.9,61.3 42.2,49.9 33.5,50.2 		"/>
		<polygon class="st4" points="69,49.9 70.3,61.3 77.7,50.2 		"/>
		<polygon class="st4" points="75.6,37.4 59.9,38.1 61.3,46.2 63.7,41.3 69.3,43.9 		"/>
		<polygon class="st4" points="41.9,43.9 47.6,41.3 49.9,46.2 51.3,38.1 35.6,37.4 		"/>
	</g>
	<g>
		<polygon class="st5" points="35.6,37.4 42.2,50.3 41.9,43.9 		"/>
		<polygon class="st5" points="69.3,43.9 69,50.3 75.6,37.4 		"/>
		<polygon class="st5" points="51.3,38.1 49.9,46.2 51.7,55.7 52.1,43.2 		"/>
		<polygon class="st5" points="59.9,38.1 59.1,43.1 59.5,55.7 61.3,46.2 		"/>
	</g>
	<polygon class="st6" points="61.3,46.2 59.5,55.7 60.8,56.7 69,50.3 69.3,43.9 	"/>
	<polygon class="st6" points="41.9,43.9 42.2,50.3 50.4,56.7 51.7,55.7 49.9,46.2 	"/>
	<polygon class="st7" points="61.5,65.5 61.6,62.9 60.9,62.2 50.3,62.2 49.7,62.9 49.7,65.5 40.9,61.3 44,63.8 50.2,68.2 61,68.2 
		67.2,63.8 70.3,61.3 	"/>
	<polygon class="st8" points="60.8,56.7 59.5,55.7 51.7,55.7 50.4,56.7 49.7,62.9 50.3,62.2 60.9,62.2 61.6,62.9 	"/>
	<g>
		<polygon class="st9" points="88.9,24 91.3,12.5 87.8,1.9 60.8,21.9 71.2,30.7 85.8,35 89.1,31.2 87.7,30.2 89.9,28.1 88.2,26.8 
			90.4,25.1 		"/>
		<polygon class="st9" points="19.9,12.5 22.2,24 20.7,25.1 23,26.8 21.3,28.1 23.5,30.2 22.1,31.2 25.3,35 40,30.7 50.4,21.9 
			23.4,1.9 		"/>
	</g>
	<polygon class="st6" points="85.8,35 71.2,30.7 75.6,37.4 69,50.3 77.7,50.2 90.8,50.2 	"/>
	<polygon class="st6" points="40,30.7 25.3,35 20.5,50.2 33.5,50.2 42.2,50.3 35.6,37.4 	"/>
	<polygon class="st6" points="59.9,38.1 60.8,21.9 65.1,10.4 46.1,10.4 50.4,21.9 51.3,38.1 51.7,43.2 51.7,55.7 59.5,55.7 
		59.5,43.2 	"/>
</g>
</svg>
