<?xml version="1.0" encoding="utf-8"?>
<!-- Generator: Adobe Illustrator 25.0.0, SVG Export Plug-In . SVG Version: 6.00 Build 0)  -->
<svg version="1.1" id="Capa_1" xmlns="http://www.w3.org/2000/svg" xmlns:xlink="http://www.w3.org/1999/xlink" x="0px" y="0px"
	 viewBox="0 0 110 70" style="enable-background:new 0 0 110 70;" xml:space="preserve">
<style type="text/css">
	.st0{fill:url(#Elipse_245_1_);}
	.st1{fill:#FFFFFF;}
</style>
<g id="Layer_1">
	
		<linearGradient id="Elipse_245_1_" gradientUnits="userSpaceOnUse" x1="4.8246" y1="67.9936" x2="4.8246" y2="68.6137" gradientTransform="matrix(110 0 0 -110 -475 7548.5)">
		<stop  offset="0" style="stop-color:#4FA89B"/>
		<stop  offset="1" style="stop-color:#6ACEBB"/>
	</linearGradient>
	<circle id="Elipse_245" class="st0" cx="55.7" cy="34.9" r="34.1"/>
	<path id="Trazado_1295" class="st1" d="M38.9,45.1V29.1l12.2,9.2v6.9h3.1v-7.5c0-0.6-0.3-1.1-0.7-1.4L38.7,25
		c-0.8-0.6-1.9-0.4-2.5,0.4c-0.2,0.3-0.4,0.7-0.4,1.1v18.6H38.9z M72.6,45.1V29.1l-12.2,9.2v6.9h-3.1v-7.5c0-0.6,0.3-1.1,0.7-1.4
		L72.8,25c0.8-0.6,1.9-0.4,2.5,0.4c0.2,0.3,0.4,0.7,0.4,1.1v18.6L72.6,45.1z"/>
</g>
</svg>
